{
.appVersion = "1352";
copyright = "Copyright 2016 The My Soul Project Authors (https://github.com/googlefonts/my-soul)";
customParameters = (
{
name = panose;
value = (
2,
0,
5,
7,
6,
0,
0,
2,
0,
3
);
},
{
name = blueScale;
value = 0.31141;
},
{
name = fsType;
value = (
);
},
{
name = "Use Typo Metrics";
value = 1;
},
{
name = glyphOrder;
value = (
.notdef,
CR,
.null,
space,
nbspace
);
},
{
name = licenseURL;
value = "https://scripts.sil.org/OFL";
},
{
name = license;
value = "This Font Software is licensed under the SIL Open Font License, Version 1.1. This license is available with a FAQ at: https://scripts.sil.org/OFL";
},
{
name = vendorID;
value = GOOG;
}
);
date = "2022-02-17 01:42:17 +0000";
designer = "Robert E. Leuschke";
designerURL = www.typesetit.com;
disablesNiceNames = 1;
familyName = "My Soul";
featurePrefixes = (
{
automatic = 1;
code = "languagesystem DFLT dflt;\012\012languagesystem latn dflt;\012languagesystem latn AZE;\012languagesystem latn CRT;\012languagesystem latn KAZ;\012languagesystem latn TAT;\012languagesystem latn TRK;\012languagesystem latn ROM;\012languagesystem latn MOL;\012languagesystem latn CAT;\012";
name = Languagesystems;
}
);
features = (
{
automatic = 1;
code = "feature locl;\012feature sups;\012feature frac;\012feature ordn;\012";
name = aalt;
},
{
automatic = 1;

glyphs = (
{
glyphname = A;
lastChange = "2021-11-27 15:47:13 +0000";
layers = (
{
hints = (
{
horizontal = 1;
place = "{267, 19}";
type = Stem;
}
);
layerId = "9E0C627C-9F9A-47B5-8A8C-706F30D5AE4A";
paths = (
{
closed = 1;
nodes = (
"111 -233 OFFCURVE",
"115 -229 OFFCURVE",
"115 -225 CURVE SMOOTH",
"115 -223 OFFCURVE",
"114 -221 OFFCURVE",
"113 -220 CURVE SMOOTH",
"97 -199 OFFCURVE",
"92 -178 OFFCURVE",
"92 -152 CURVE SMOOTH",
"92 -72 OFFCURVE",
"140 21 OFFCURVE",
"191 80 CURVE SMOOTH",
"344 260 OFFCURVE",
"565 361 OFFCURVE",
"762 485 CURVE SMOOTH",
"775 493 OFFCURVE",
"815 521 OFFCURVE",
"830 521 CURVE SMOOTH",
"834 521 OFFCURVE",
"836 519 OFFCURVE",
"836 515 CURVE SMOOTH",
"836 513 LINE",
"836 510 LINE SMOOTH",
"824 365 OFFCURVE",
"734 207 OFFCURVE",
"655 85 CURVE SMOOTH",
"641 64 OFFCURVE",
"615 23 OFFCURVE",
"598 7 CURVE SMOOTH",
"588 -2 OFFCURVE",
"574 -3 OFFCURVE",
"574 -19 CURVE SMOOTH",
"574 -34 OFFCURVE",
"588 -52 OFFCURVE",
"604 -52 CURVE SMOOTH",
"628 -52 OFFCURVE",
"682 13 OFFCURVE",
"698 31 CURVE SMOOTH",
"728 64 OFFCURVE",
"766 94 OFFCURVE",
"810 103 CURVE SMOOTH",
"813 104 OFFCURVE",
"818 105 OFFCURVE",
"818 108 CURVE SMOOTH",
"818 112 OFFCURVE",
"812 113 OFFCURVE",
"808 113 CURVE SMOOTH",
"778 113 OFFCURVE",
"686 61 OFFCURVE",
"658 44 CURVE",
"796 185 OFFCURVE",
"890 356 OFFCURVE",
"920 551 CURVE",
"928 550 OFFCURVE",
"935 550 OFFCURVE",
"943 550 CURVE SMOOTH",
"990 550 OFFCURVE",
"1005 565 OFFCURVE",
"1039 590 CURVE SMOOTH",
"1043 593 OFFCURVE",
"1047 596 OFFCURVE",
"1047 601 CURVE SMOOTH",
"1047 603 OFFCURVE",
"1046 604 OFFCURVE",
"1044 604 CURVE SMOOTH",
"1040 604 OFFCURVE",
"1031 596 OFFCURVE",
"1012 596 CURVE SMOOTH",
"968 596 OFFCURVE",
"905 615 OFFCURVE",
"863 627 CURVE SMOOTH",
"752 660 OFFCURVE",
"634 692 OFFCURVE",
"518 692 CURVE SMOOTH",
"328 692 OFFCURVE",
"30 605 OFFCURVE",
"30 370 CURVE SMOOTH",
"30 317 OFFCURVE",
"59 275 OFFCURVE",
"108 254 CURVE SMOOTH",
"121 248 OFFCURVE",
"136 244 OFFCURVE",
"151 244 CURVE SMOOTH",
"154 244 OFFCURVE",
"164 245 OFFCURVE",
"164 249 CURVE SMOOTH",
"164 253 OFFCURVE",
"159 253 OFFCURVE",
"157 253 CURVE SMOOTH",
"91 253 OFFCURVE",
"82 341 OFFCURVE",
"82 390 CURVE SMOOTH",
"82 579 OFFCURVE",
"285 658 OFFCURVE",
"446 658 CURVE SMOOTH",
"582 658 OFFCURVE",
"708 611 OFFCURVE",
"836 572 CURVE",
"813 548 OFFCURVE",
"784 529 OFFCURVE",
"756 511 CURVE SMOOTH",
"553 383 OFFCURVE",
"285 269 OFFCURVE",
"128 86 CURVE SMOOTH",
"85 35 OFFCURVE",
"60 -32 OFFCURVE",
"60 -100 CURVE SMOOTH",
"60 -144 OFFCURVE",
"71 -196 OFFCURVE",
"102 -230 CURVE",
"103 -232 OFFCURVE",
"105 -233 OFFCURVE",
"107 -233 CURVE SMOOTH"
);
},
{
closed = 1;
nodes = (
"661 209 OFFCURVE",
"663 210 OFFCURVE",
"665 211 CURVE SMOOTH",
"688 223 OFFCURVE",
"715 247 OFFCURVE",
"715 275 CURVE SMOOTH",
"715 309 OFFCURVE",
"681 315 OFFCURVE",
"654 315 CURVE SMOOTH",
"551 315 OFFCURVE",
"461 241 OFFCURVE",
"375 241 CURVE SMOOTH",
"372 241 OFFCURVE",
"365 240 OFFCURVE",
"365 236 CURVE SMOOTH",
"365 232 OFFCURVE",
"372 231 OFFCURVE",
"375 231 CURVE SMOOTH",
"445 231 OFFCURVE",
"514 241 OFFCURVE",
"584 249 CURVE SMOOTH",
"599 251 OFFCURVE",
"613 253 OFFCURVE",
"628 253 CURVE SMOOTH",
"641 253 OFFCURVE",
"670 251 OFFCURVE",
"670 232 CURVE SMOOTH",
"670 218 OFFCURVE",
"656 218 OFFCURVE",
"656 211 CURVE SMOOTH",
"656 209 OFFCURVE",
"657 209 OFFCURVE",
"658 209 CURVE SMOOTH"
);
}
);
width = 872;
}
);
note = A;
unicode = 0041;
},
{
glyphname = AE;
lastChange = "2021-11-27 15:47:14 +0000";
layers = (
{
hints = (
{
horizontal = 1;
place = "{267, 19}";
type = Stem;
}
);
layerId = "9E0C627C-9F9A-47B5-8A8C-706F30D5AE4A";
paths = (
{
closed = 1;
nodes = (
"273 244 OFFCURVE",
"283 245 OFFCURVE",
"283 249 CURVE SMOOTH",
"283 253 OFFCURVE",
"278 253 OFFCURVE",
"276 253 CURVE SMOOTH",
"210 253 OFFCURVE",
"201 341 OFFCURVE",
"201 390 CURVE SMOOTH",
"201 587 OFFCURVE",
"442 657 OFFCURVE",
"602 657 CURVE SMOOTH",
"688 657 OFFCURVE",
"776 641 OFFCURVE",
"861 625 CURVE SMOOTH",
"983 602 OFFCURVE",
"1105 573 OFFCURVE",
"1224 538 CURVE SMOOTH",
"1251 530 OFFCURVE",
"1278 524 OFFCURVE",
"1306 524 CURVE SMOOTH",
"1353 524 OFFCURVE",
"1368 539 OFFCURVE",
"1402 564 CURVE SMOOTH",
"1406 567 OFFCURVE",
"1410 570 OFFCURVE",
"1410 575 CURVE SMOOTH",
"1410 577 OFFCURVE",
"1409 578 OFFCURVE",
"1407 578 CURVE SMOOTH",
"1403 578 OFFCURVE",
"1394 570 OFFCURVE",
"1375 570 CURVE SMOOTH",
"1331 570 OFFCURVE",
"1268 589 OFFCURVE",
"1226 601 CURVE SMOOTH",
"1051 653 OFFCURVE",
"845 682 OFFCURVE",
"663 682 CURVE SMOOTH",
"458 682 OFFCURVE",
"149 638 OFFCURVE",
"149 370 CURVE SMOOTH",
"149 316 OFFCURVE",
"178 275 OFFCURVE",
"227 254 CURVE SMOOTH",
"240 248 OFFCURVE",
"256 244 OFFCURVE",
"270 244 CURVE SMOOTH"
);
},
{
closed = 1;
nodes = (
"111 -233 OFFCURVE",
"115 -229 OFFCURVE",
"115 -225 CURVE SMOOTH",
"115 -223 OFFCURVE",
"114 -221 OFFCURVE",
"113 -220 CURVE SMOOTH",
"97 -199 OFFCURVE",
"92 -178 OFFCURVE",
"92 -152 CURVE SMOOTH",
"92 -72 OFFCURVE",
"140 21 OFFCURVE",
"191 80 CURVE SMOOTH",
"344 260 OFFCURVE",
"566 362 OFFCURVE",
"762 485 CURVE SMOOTH",
"775 493 OFFCURVE",
"815 521 OFFCURVE",
"830 521 CURVE SMOOTH",
"834 521 OFFCURVE",
"836 519 OFFCURVE",
"836 515 CURVE SMOOTH",
"836 513 LINE",
"836 510 LINE SMOOTH",
"823 353 OFFCURVE",
"703 133 OFFCURVE",
"601 11 CURVE",
"553 12 OFFCURVE",
"459 17 OFFCURVE",
"426 58 CURVE SMOOTH",
"420 65 OFFCURVE",
"418 71 OFFCURVE",
"415 79 CURVE SMOOTH",
"414 82 OFFCURVE",
"412 87 OFFCURVE",
"408 87 CURVE SMOOTH",
"402 87 OFFCURVE",
"400 80 OFFCURVE",
"400 75 CURVE SMOOTH",
"400 67 OFFCURVE",
"409 46 OFFCURVE",
"414 38 CURVE SMOOTH",
"452 -26 OFFCURVE",
"552 -34 OFFCURVE",
"619 -34 CURVE SMOOTH",
"680 -34 OFFCURVE",
"740 -27 OFFCURVE",
"801 -23 CURVE SMOOTH",
"874 -18 OFFCURVE",
"946 -14 OFFCURVE",
"1019 -14 CURVE SMOOTH",
"1067 -14 OFFCURVE",
"1114 -16 OFFCURVE",
"1161 -20 CURVE SMOOTH",
"1193 -23 OFFCURVE",
"1298 -23 OFFCURVE",
"1298 -71 CURVE SMOOTH",
"1298 -85 OFFCURVE",
"1288 -99 OFFCURVE",
"1288 -105 CURVE SMOOTH",
"1288 -107 OFFCURVE",
"1290 -108 OFFCURVE",
"1292 -108 CURVE SMOOTH",
"1313 -108 OFFCURVE",
"1325 -58 OFFCURVE",
"1325 -41 CURVE SMOOTH",
"1325 44 OFFCURVE",
"1165 46 OFFCURVE",
"1097 46 CURVE SMOOTH",
"938 46 OFFCURVE",
"783 13 OFFCURVE",
"624 11 CURVE",
"784 161 OFFCURVE",
"885 338 OFFCURVE",
"921 556 CURVE",
"921 561 LINE SMOOTH",
"921 585 OFFCURVE",
"893 613 OFFCURVE",
"869 613 CURVE SMOOTH",
"861 613 OFFCURVE",
"858 610 OFFCURVE",
"856 603 CURVE",
"839 562 OFFCURVE",
"792 534 OFFCURVE",
"756 511 CURVE SMOOTH",
"553 383 OFFCURVE",
"284 269 OFFCURVE",
"128 86 CURVE SMOOTH",
"85 34 OFFCURVE",
"60 -32 OFFCURVE",
"60 -100 CURVE SMOOTH",
"60 -144 OFFCURVE",
"71 -196 OFFCURVE",
"102 -230 CURVE",
"103 -232 OFFCURVE",
"105 -233 OFFCURVE",
"107 -233 CURVE SMOOTH"
);
},
{
closed = 1;
nodes = (
"1169 261 OFFCURVE",
"1171 262 OFFCURVE",
"1173 263 CURVE SMOOTH",
"1197 273 OFFCURVE",
"1228 296 OFFCURVE",
"1228 325 CURVE SMOOTH",
"1228 364 OFFCURVE",
"1182 368 OFFCURVE",
"1152 368 CURVE SMOOTH",
"1060 368 OFFCURVE",
"979 317 OFFCURVE",
"899 317 CURVE SMOOTH",
"896 317 OFFCURVE",
"876 320 OFFCURVE",
"876 314 CURVE SMOOTH",
"876 309 OFFCURVE",
"883 308 OFFCURVE",
"886 308 CURVE",
"903 305 OFFCURVE",
"922 305 OFFCURVE",
"941 305 CURVE SMOOTH",
"1001 305 OFFCURVE",
"1060 308 OFFCURVE",
"1119 308 CURVE SMOOTH",
"1135 308 OFFCURVE",
"1180 308 OFFCURVE",
"1180 285 CURVE SMOOTH",
"1180 270 OFFCURVE",
"1164 270 OFFCURVE",
"1164 263 CURVE SMOOTH",
"1164 262 OFFCURVE",
"1165 261 OFFCURVE",
"1167 261 CURVE SMOOTH"
);
},
{
closed = 1;
nodes = (
"661 209 OFFCURVE",
"663 210 OFFCURVE",
"665 211 CURVE SMOOTH",
"688 223 OFFCURVE",
"715 247 OFFCURVE",
"715 275 CURVE SMOOTH",
"715 309 OFFCURVE",
"681 315 OFFCURVE",
"654 315 CURVE SMOOTH",
"551 315 OFFCURVE",
"461 241 OFFCURVE",
"375 241 CURVE SMOOTH",
"372 241 OFFCURVE",
"365 240 OFFCURVE",
"365 236 CURVE SMOOTH",
"365 232 OFFCURVE",
"372 231 OFFCURVE",
"375 231 CURVE SMOOTH",
"445 231 OFFCURVE",
"514 241 OFFCURVE",
"584 249 CURVE SMOOTH",
"599 251 OFFCURVE",
"613 253 OFFCURVE",
"628 253 CURVE SMOOTH",
"641 253 OFFCURVE",
"670 251 OFFCURVE",
"670 232 CURVE SMOOTH",
"670 218 OFFCURVE",
"656 218 OFFCURVE",
"656 211 CURVE SMOOTH",
"656 209 OFFCURVE",
"657 209 OFFCURVE",
"658 209 CURVE SMOOTH"
);
}
);
width = 1346;
}
);
note = AE;
unicode = 00C6;
},
{
glyphname = B;
lastChange = "2021-11-27 15:47:13 +0000";
layers = (
{
hints = (
{
horizontal = 1;
place = "{330, 16}";
type = Stem;
}
);
layerId = "9E0C627C-9F9A-47B5-8A8C-706F30D5AE4A";
paths = (
{
closed = 1;
nodes = (
"129 -64 OFFCURVE",
"139 -59 OFFCURVE",
"148 -55 CURVE SMOOTH",
"165 -47 OFFCURVE",
"214 -46 OFFCURVE",
"225 -40 CURVE SMOOTH",
"234 -35 OFFCURVE",
"238 -29 OFFCURVE",
"241 -19 CURVE",
"271 -24 OFFCURVE",
"301 -26 OFFCURVE",
"331 -26 CURVE SMOOTH",
"357 -26 OFFCURVE",
"383 -25 OFFCURVE",
"408 -21 CURVE SMOOTH",
"443 -16 OFFCURVE",
"478 -8 OFFCURVE",
"511 3 CURVE SMOOTH",
"588 30 OFFCURVE",
"700 91 OFFCURVE",
"742 165 CURVE SMOOTH",
"760 196 OFFCURVE",
"782 242 OFFCURVE",
"782 279 CURVE SMOOTH",
"782 333 OFFCURVE",
"737 347 OFFCURVE",
"691 347 CURVE SMOOTH",
"654 347 OFFCURVE",
"617 342 OFFCURVE",
"579 342 CURVE SMOOTH",
"530 342 LINE",
"627 361 OFFCURVE",
"814 429 OFFCURVE",
"814 549 CURVE SMOOTH",
"814 630 OFFCURVE",
"718 668 OFFCURVE",
"653 684 CURVE",
"690 712 OFFCURVE",
"733 731 OFFCURVE",
"781 731 CURVE SMOOTH",
"816 731 OFFCURVE",
"882 720 OFFCURVE",
"882 674 CURVE SMOOTH",
"882 666 OFFCURVE",
"878 659 OFFCURVE",
"878 652 CURVE SMOOTH",
"878 650 OFFCURVE",
"879 648 OFFCURVE",
"882 648 CURVE SMOOTH",
"895 648 OFFCURVE",
"906 693 OFFCURVE",
"906 705 CURVE SMOOTH",
"906 748 OFFCURVE",
"860 760 OFFCURVE",
"825 760 CURVE SMOOTH",
"753 760 OFFCURVE",
"685 732 OFFCURVE",
"627 690 CURVE",
"576 701 OFFCURVE",
"524 705 OFFCURVE",
"472 705 CURVE SMOOTH",
"302 705 OFFCURVE",
"65 653 OFFCURVE",
"-9 480 CURVE SMOOTH",
"-24 446 OFFCURVE",
"-31 412 OFFCURVE",
"-32 375 CURVE SMOOTH",
"-32 370 LINE SMOOTH",
"-33 316 OFFCURVE",
"-3 276 OFFCURVE",
"46 254 CURVE SMOOTH",
"59 248 OFFCURVE",
"75 244 OFFCURVE",
"89 244 CURVE SMOOTH",
"92 244 OFFCURVE",
"103 245 OFFCURVE",
"103 249 CURVE SMOOTH",
"103 253 OFFCURVE",
"97 253 OFFCURVE",
"95 253 CURVE SMOOTH",
"29 253 OFFCURVE",
"21 341 OFFCURVE",
"21 390 CURVE SMOOTH",
"21 602 OFFCURVE",
"234 675 OFFCURVE",
"412 675 CURVE SMOOTH",
"469 675 OFFCURVE",
"526 668 OFFCURVE",
"581 653 CURVE",
"507 588 OFFCURVE",
"445 502 OFFCURVE",
"398 415 CURVE SMOOTH",
"328 286 OFFCURVE",
"267 152 OFFCURVE",
"185 29 CURVE",
"140 54 OFFCURVE",
"115 96 OFFCURVE",
"115 148 CURVE SMOOTH",
"115 171 OFFCURVE",
"119 195 OFFCURVE",
"137 210 CURVE SMOOTH",
"139 212 OFFCURVE",
"143 214 OFFCURVE",
"143 217 CURVE SMOOTH",
"143 219 OFFCURVE",
"140 220 OFFCURVE",
"138 220 CURVE SMOOTH",
"135 220 OFFCURVE",
"132 219 OFFCURVE",
"129 217 CURVE SMOOTH",
"97 195 OFFCURVE",
"74 155 OFFCURVE",
"74 116 CURVE SMOOTH",
"74 59 OFFCURVE",
"117 21 OFFCURVE",
"166 1 CURVE",
"151 -21 OFFCURVE",
"133 -40 OFFCURVE",
"116 -61 CURVE",
"116 -62 OFFCURVE",
"115 -62 OFFCURVE",
"115 -63 CURVE SMOOTH",
"115 -64 OFFCURVE",
"118 -64 OFFCURVE",
"119 -64 CURVE SMOOTH"
);
},
{
closed = 1;
nodes = (
"445 352 OFFCURVE",
"434 354 OFFCURVE",
"434 363 CURVE SMOOTH",
"434 366 OFFCURVE",
"435 369 OFFCURVE",
"436 372 CURVE",
"484 465 OFFCURVE",
"536 570 OFFCURVE",
"608 645 CURVE",
"660 629 OFFCURVE",
"760 584 OFFCURVE",
"760 520 CURVE SMOOTH",
"760 430 OFFCURVE",
"526 352 OFFCURVE",
"452 352 CURVE SMOOTH"
);
},
{
closed = 1;
nodes = (
"257 191 OFFCURVE",
"268 209 OFFCURVE",
"270 214 CURVE SMOOTH",
"303 283 OFFCURVE",
"342 364 OFFCURVE",
"342 442 CURVE SMOOTH",
"342 469 OFFCURVE",
"337 513 OFFCURVE",
"301 513 CURVE SMOOTH",
"271 513 OFFCURVE",
"248 485 OFFCURVE",
"237 460 CURVE SMOOTH",
"236 458 OFFCURVE",
"235 456 OFFCURVE",
"235 454 CURVE SMOOTH",
"235 453 OFFCURVE",
"235 451 OFFCURVE",
"237 451 CURVE SMOOTH",
"244 451 OFFCURVE",
"244 466 OFFCURVE",
"259 466 CURVE SMOOTH",
"281 466 OFFCURVE",
"281 421 OFFCURVE",
"281 406 CURVE SMOOTH",
"281 344 OFFCURVE",
"269 278 OFFCURVE",
"254 218 CURVE SMOOTH",
"252 211 OFFCURVE",
"250 204 OFFCURVE",
"250 196 CURVE SMOOTH",
"250 195 OFFCURVE",
"250 191 OFFCURVE",
"252 191 CURVE SMOOTH"
);
},
{
closed = 1;
nodes = (
"310 -4 OFFCURVE",
"280 -2 OFFCURVE",
"252 5 CURVE",
"280 63 OFFCURVE",
"309 120 OFFCURVE",
"337 178 CURVE SMOOTH",
"354 211 OFFCURVE",
"370 245 OFFCURVE",
"387 277 CURVE SMOOTH",
"399 298 OFFCURVE",
"411 307 OFFCURVE",
"435 310 CURVE SMOOTH",
"462 313 OFFCURVE",
"490 314 OFFCURVE",
"517 314 CURVE SMOOTH",
"567 314 OFFCURVE",
"702 313 OFFCURVE",
"702 241 CURVE SMOOTH",
"702 230 OFFCURVE",
"699 219 OFFCURVE",
"695 209 CURVE SMOOTH",
"654 103 OFFCURVE",
"511 16 OFFCURVE",
"402 0 CURVE SMOOTH",
"381 -3 OFFCURVE",
"360 -4 OFFCURVE",
"339 -4 CURVE SMOOTH"
);
}
);
width = 744;
}
);
note = B;
unicode = 0042;
},
{
glyphname = C;
lastChange = "2021-11-27 15:47:13 +0000";
layers = (
{
hints = (
{
horizontal = 1;
place = "{-27, 30}";
type = Stem;
},
{
horizontal = 1;
place = "{351, 14}";
type = Stem;
},
{
horizontal = 1;
place = "{561, -20}";
target = down;
type = TopGhost;
},
{
horizontal = 1;
place = "{668, 24}";
type = Stem;
},
{
place = "{-5, 26}";
type = Stem;
},
{
place = "{801, 56}";
type = Stem;
},
{
horizontal = 1;
place = "{685, 50}";
type = Stem;
},
{
place = "{26, 65}";
type = Stem;
},
{
horizontal = 1;
place = "{376, -20}";
target = down;
type = TopGhost;
}
);
layerId = "9E0C627C-9F9A-47B5-8A8C-706F30D5AE4A";
paths = (
{
closed = 1;
nodes = (
"413 -27 OFFCURVE",
"618 31 OFFCURVE",
"703 138 CURVE SMOOTH",
"719 158 OFFCURVE",
"739 198 OFFCURVE",
"739 224 CURVE SMOOTH",
"739 229 OFFCURVE",
"737 238 OFFCURVE",
"731 238 CURVE SMOOTH",
"727 238 OFFCURVE",
"727 235 OFFCURVE",
"726 232 CURVE SMOOTH",
"720 212 OFFCURVE",
"682 166 OFFCURVE",
"668 150 CURVE SMOOTH",
"586 59 OFFCURVE",
"487 3 OFFCURVE",
"363 3 CURVE SMOOTH",
"315 3 OFFCURVE",
"267 11 OFFCURVE",
"221 26 CURVE SMOOTH",
"141 51 OFFCURVE",
"91 111 OFFCURVE",
"91 196 CURVE SMOOTH",
"91 257 OFFCURVE",
"116 315 OFFCURVE",
"148 366 CURVE",
"178 354 OFFCURVE",
"225 351 OFFCURVE",
"255 351 CURVE SMOOTH",
"269 351 OFFCURVE",
"299 352 OFFCURVE",
"299 362 CURVE SMOOTH",
"299 364 OFFCURVE",
"298 366 OFFCURVE",
"296 366 CURVE SMOOTH",
"291 366 OFFCURVE",
"286 365 OFFCURVE",
"281 365 CURVE SMOOTH",
"245 365 OFFCURVE",
"202 381 OFFCURVE",
"171 398 CURVE",
"240 495 OFFCURVE",
"337 593 OFFCURVE",
"448 642 CURVE",
"571 605 OFFCURVE",
"680 538 OFFCURVE",
"797 487 CURVE SMOOTH",
"799 486 OFFCURVE",
"801 486 OFFCURVE",
"804 486 CURVE SMOOTH",
"829 486 OFFCURVE",
"857 521 OFFCURVE",
"857 545 CURVE SMOOTH",
"857 549 OFFCURVE",
"856 553 OFFCURVE",
"855 557 CURVE SMOOTH",
"820 660 OFFCURVE",
"691 692 OFFCURVE",
"594 692 CURVE SMOOTH",
"563 692 OFFCURVE",
"531 689 OFFCURVE",
"501 681 CURVE",
"416 708 OFFCURVE",
"322 735 OFFCURVE",
"232 735 CURVE SMOOTH",
"122 735 OFFCURVE",
"-5 689 OFFCURVE",
"-5 559 CURVE SMOOTH",
"-5 489 OFFCURVE",
"39 431 OFFCURVE",
"96 394 CURVE",
"56 331 OFFCURVE",
"26 259 OFFCURVE",
"26 183 CURVE SMOOTH",
"26 26 OFFCURVE",
"142 -27 OFFCURVE",
"281 -27 CURVE SMOOTH"
);
},
{
closed = 1;
nodes = (
"109 437 OFFCURVE",
"97 445 OFFCURVE",
"86 454 CURVE SMOOTH",
"48 484 OFFCURVE",
"21 530 OFFCURVE",
"21 579 CURVE SMOOTH",
"21 676 OFFCURVE",
"125 685 OFFCURVE",
"199 685 CURVE SMOOTH",
"272 685 OFFCURVE",
"345 672 OFFCURVE",
"416 652 CURVE",
"299 601 OFFCURVE",
"200 529 OFFCURVE",
"121 428 CURVE"
);
},
{
closed = 1;
nodes = (
"789 561 OFFCURVE",
"695 607 OFFCURVE",
"680 613 CURVE SMOOTH",
"636 633 OFFCURVE",
"591 651 OFFCURVE",
"545 667 CURVE",
"553 668 OFFCURVE",
"561 668 OFFCURVE",
"568 668 CURVE SMOOTH",
"621 668 OFFCURVE",
"706 652 OFFCURVE",
"751 622 CURVE SMOOTH",
"763 614 OFFCURVE",
"801 581 OFFCURVE",
"801 565 CURVE SMOOTH",
"801 562 OFFCURVE",
"799 561 OFFCURVE",
"797 561 CURVE SMOOTH"
);
},
{
closed = 1;
nodes = (
"349 274 OFFCURVE",
"352 274 OFFCURVE",
"354 275 CURVE SMOOTH",
"374 282 OFFCURVE",
"391 290 OFFCURVE",
"412 293 CURVE SMOOTH",
"425 295 OFFCURVE",
"488 303 OFFCURVE",
"496 309 CURVE SMOOTH",
"499 311 OFFCURVE",
"504 314 OFFCURVE",
"504 318 CURVE SMOOTH",
"504 323 OFFCURVE",
"477 334 OFFCURVE",
"471 339 CURVE SMOOTH",
"461 349 OFFCURVE",
"458 359 OFFCURVE",
"452 370 CURVE SMOOTH",
"450 374 OFFCURVE",
"449 376 OFFCURVE",
"445 376 CURVE SMOOTH",
"424 376 OFFCURVE",
"341 301 OFFCURVE",
"341 280 CURVE SMOOTH",
"341 276 OFFCURVE",
"343 274 OFFCURVE",
"347 274 CURVE SMOOTH"
);
}
);
width = 688;
}
);
note = C;
unicode = 0043;
},
{
glyphname = D;
lastChange = "2021-11-27 15:47:13 +0000";
layers = (
{
hints = (
{
place = "{2528, 55}";
type = Stem;
}
);
layerId = "9E0C627C-9F9A-47B5-8A8C-706F30D5AE4A";
paths = (
{
closed = 1;
nodes = (
"182 -64 OFFCURVE",
"192 -59 OFFCURVE",
"201 -55 CURVE SMOOTH",
"218 -48 OFFCURVE",
"269 -45 OFFCURVE",
"278 -40 CURVE SMOOTH",
"285 -36 OFFCURVE",
"291 -24 OFFCURVE",
"295 -17 CURVE",
"359 -31 OFFCURVE",
"424 -38 OFFCURVE",
"490 -38 CURVE SMOOTH",
"503 -38 OFFCURVE",
"517 -38 OFFCURVE",
"530 -37 CURVE SMOOTH",
"589 -34 OFFCURVE",
"646 -24 OFFCURVE",
"702 -5 CURVE SMOOTH",
"857 48 OFFCURVE",
"1022 174 OFFCURVE",
"1035 350 CURVE SMOOTH",
"1035 362 LINE SMOOTH",
"1035 539 OFFCURVE",
"853 638 OFFCURVE",
"706 684 CURVE",
"743 712 OFFCURVE",
"786 731 OFFCURVE",
"834 731 CURVE SMOOTH",
"869 731 OFFCURVE",
"935 720 OFFCURVE",
"935 674 CURVE SMOOTH",
"935 666 OFFCURVE",
"931 659 OFFCURVE",
"931 652 CURVE SMOOTH",
"931 650 OFFCURVE",
"932 648 OFFCURVE",
"935 648 CURVE SMOOTH",
"948 648 OFFCURVE",
"959 693 OFFCURVE",
"959 705 CURVE SMOOTH",
"959 748 OFFCURVE",
"913 760 OFFCURVE",
"878 760 CURVE SMOOTH",
"806 760 OFFCURVE",
"738 732 OFFCURVE",
"680 690 CURVE",
"629 701 OFFCURVE",
"577 705 OFFCURVE",
"525 705 CURVE SMOOTH",
"355 705 OFFCURVE",
"118 653 OFFCURVE",
"44 480 CURVE SMOOTH",
"29 446 OFFCURVE",
"22 412 OFFCURVE",
"21 375 CURVE SMOOTH",
"21 370 LINE SMOOTH",
"20 316 OFFCURVE",
"50 276 OFFCURVE",
"99 254 CURVE SMOOTH",
"112 248 OFFCURVE",
"128 244 OFFCURVE",
"142 244 CURVE SMOOTH",
"145 244 OFFCURVE",
"156 245 OFFCURVE",
"156 249 CURVE SMOOTH",
"156 253 OFFCURVE",
"150 253 OFFCURVE",
"148 253 CURVE SMOOTH",
"82 253 OFFCURVE",
"74 341 OFFCURVE",
"74 390 CURVE SMOOTH",
"74 602 OFFCURVE",
"287 675 OFFCURVE",
"465 675 CURVE SMOOTH",
"522 675 OFFCURVE",
"579 668 OFFCURVE",
"634 653 CURVE",
"560 588 OFFCURVE",
"498 502 OFFCURVE",
"451 415 CURVE SMOOTH",
"381 286 OFFCURVE",
"320 152 OFFCURVE",
"238 29 CURVE",
"193 54 OFFCURVE",
"168 96 OFFCURVE",
"168 148 CURVE SMOOTH",
"168 199 OFFCURVE",
"196 212 OFFCURVE",
"196 217 CURVE SMOOTH",
"196 219 OFFCURVE",
"193 220 OFFCURVE",
"191 220 CURVE SMOOTH",
"188 220 OFFCURVE",
"185 219 OFFCURVE",
"182 217 CURVE SMOOTH",
"150 195 OFFCURVE",
"127 155 OFFCURVE",
"127 116 CURVE SMOOTH",
"127 59 OFFCURVE",
"170 21 OFFCURVE",
"219 1 CURVE",
"204 -21 OFFCURVE",
"186 -40 OFFCURVE",
"169 -61 CURVE",
"169 -62 OFFCURVE",
"168 -62 OFFCURVE",
"168 -63 CURVE SMOOTH",
"168 -64 OFFCURVE",
"171 -64 OFFCURVE",
"172 -64 CURVE SMOOTH"
);
},
{
closed = 1;
nodes = (
"418 -18 OFFCURVE",
"361 -10 OFFCURVE",
"305 5 CURVE",
"387 182 OFFCURVE",
"532 511 OFFCURVE",
"661 645 CURVE",
"803 600 OFFCURVE",
"956 514 OFFCURVE",
"956 345 CURVE SMOOTH",
"956 335 OFFCURVE",
"955 326 OFFCURVE",
"954 316 CURVE SMOOTH",
"937 167 OFFCURVE",
"818 59 OFFCURVE",
"682 12 CURVE SMOOTH",
"633 -4 OFFCURVE",
"583 -13 OFFCURVE",
"531 -16 CURVE SMOOTH",
"513 -17 OFFCURVE",
"495 -18 OFFCURVE",
"477 -18 CURVE SMOOTH"
);
},
{
closed = 1;
nodes = (
"310 191 OFFCURVE",
"321 209 OFFCURVE",
"323 214 CURVE SMOOTH",
"356 283 OFFCURVE",
"395 364 OFFCURVE",
"395 442 CURVE SMOOTH",
"395 469 OFFCURVE",
"390 513 OFFCURVE",
"354 513 CURVE SMOOTH",
"324 513 OFFCURVE",
"301 485 OFFCURVE",
"290 460 CURVE SMOOTH",
"289 458 OFFCURVE",
"288 456 OFFCURVE",
"288 454 CURVE SMOOTH",
"288 453 OFFCURVE",
"288 451 OFFCURVE",
"290 451 CURVE SMOOTH",
"297 451 OFFCURVE",
"297 466 OFFCURVE",
"312 466 CURVE SMOOTH",
"334 466 OFFCURVE",
"334 421 OFFCURVE",
"334 406 CURVE SMOOTH",
"334 344 OFFCURVE",
"322 278 OFFCURVE",
"307 218 CURVE SMOOTH",
"305 211 OFFCURVE",
"303 204 OFFCURVE",
"303 196 CURVE SMOOTH",
"303 195 OFFCURVE",
"303 191 OFFCURVE",
"305 191 CURVE SMOOTH"
);
}
);
width = 986;
}
);
note = D;
unicode = 0044;
},
{
color = 11;
glyphname = Dcroat;
lastChange = "2021-11-27 15:47:14 +0000";
layers = (
{
hints = (
{
place = "{2528, 55}";
type = Stem;
},
{
horizontal = 1;
place = "{-124, 54}";
type = Stem;
}
);
layerId = "9E0C627C-9F9A-47B5-8A8C-706F30D5AE4A";
paths = (
{
closed = 1;
nodes = (
"743 712 OFFCURVE",
"786 731 OFFCURVE",
"834 731 CURVE SMOOTH",
"869 731 OFFCURVE",
"935 720 OFFCURVE",
"935 674 CURVE SMOOTH",
"935 666 OFFCURVE",
"931 659 OFFCURVE",
"931 652 CURVE SMOOTH",
"931 650 OFFCURVE",
"932 648 OFFCURVE",
"935 648 CURVE SMOOTH",
"948 648 OFFCURVE",
"959 693 OFFCURVE",
"959 705 CURVE SMOOTH",
"959 748 OFFCURVE",
"913 760 OFFCURVE",
"878 760 CURVE SMOOTH",
"806 760 OFFCURVE",
"738 732 OFFCURVE",
"680 690 CURVE",
"629 701 OFFCURVE",
"577 705 OFFCURVE",
"525 705 CURVE SMOOTH",
"355 705 OFFCURVE",
"118 653 OFFCURVE",
"44 480 CURVE SMOOTH",
"29 446 OFFCURVE",
"21 412 OFFCURVE",
"21 375 CURVE SMOOTH",
"21 370 LINE SMOOTH",
"21 316 OFFCURVE",
"50 276 OFFCURVE",
"99 254 CURVE SMOOTH",
"112 248 OFFCURVE",
"128 244 OFFCURVE",
"142 244 CURVE SMOOTH",
"145 244 OFFCURVE",
"156 245 OFFCURVE",
"156 249 CURVE SMOOTH",
"156 253 OFFCURVE",
"150 253 OFFCURVE",
"148 253 CURVE SMOOTH",
"82 253 OFFCURVE",
"74 341 OFFCURVE",
"74 390 CURVE SMOOTH",
"74 602 OFFCURVE",
"287 675 OFFCURVE",
"465 675 CURVE SMOOTH",
"522 675 OFFCURVE",
"579 668 OFFCURVE",
"634 653 CURVE",
"560 588 OFFCURVE",
"498 502 OFFCURVE",
"451 415 CURVE SMOOTH",
"418 355 OFFCURVE",
"387 293 OFFCURVE",
"356 232 CURVE",
"271 232 LINE SMOOTH",
"253 232 OFFCURVE",
"239 201 OFFCURVE",
"239 186 CURVE SMOOTH",
"239 183 OFFCURVE",
"240 180 OFFCURVE",
"242 178 CURVE",
"257 178 OFFCURVE",
"292 180 OFFCURVE",
"329 183 CURVE",
"301 131 OFFCURVE",
"271 79 OFFCURVE",
"238 29 CURVE",
"193 54 OFFCURVE",
"168 96 OFFCURVE",
"168 148 CURVE SMOOTH",
"168 199 OFFCURVE",
"196 212 OFFCURVE",
"196 217 CURVE SMOOTH",
"196 219 OFFCURVE",
"193 220 OFFCURVE",
"191 220 CURVE SMOOTH",
"188 220 OFFCURVE",
"185 219 OFFCURVE",
"182 217 CURVE SMOOTH",
"150 195 OFFCURVE",
"127 155 OFFCURVE",
"127 116 CURVE SMOOTH",
"127 59 OFFCURVE",
"170 21 OFFCURVE",
"219 1 CURVE",
"204 -21 OFFCURVE",
"186 -40 OFFCURVE",
"169 -61 CURVE",
"169 -62 OFFCURVE",
"168 -62 OFFCURVE",
"168 -63 CURVE SMOOTH",
"168 -64 OFFCURVE",
"171 -64 OFFCURVE",
"172 -64 CURVE SMOOTH",
"182 -64 OFFCURVE",
"192 -59 OFFCURVE",
"201 -55 CURVE SMOOTH",
"218 -48 OFFCURVE",
"269 -45 OFFCURVE",
"278 -40 CURVE SMOOTH",
"285 -36 OFFCURVE",
"291 -24 OFFCURVE",
"295 -17 CURVE",
"359 -31 OFFCURVE",
"424 -38 OFFCURVE",
"490 -38 CURVE SMOOTH",
"503 -38 OFFCURVE",
"517 -38 OFFCURVE",
"530 -37 CURVE SMOOTH",
"589 -34 OFFCURVE",
"646 -24 OFFCURVE",
"702 -5 CURVE SMOOTH",
"857 48 OFFCURVE",
"1022 174 OFFCURVE",
"1035 350 CURVE SMOOTH",
"1035 362 LINE SMOOTH",
"1035 539 OFFCURVE",
"853 638 OFFCURVE",
"706 684 CURVE"
);
},
{
closed = 1;
nodes = (
"937 167 OFFCURVE",
"818 59 OFFCURVE",
"682 12 CURVE SMOOTH",
"633 -4 OFFCURVE",
"583 -13 OFFCURVE",
"531 -16 CURVE SMOOTH",
"513 -17 OFFCURVE",
"495 -18 OFFCURVE",
"477 -18 CURVE SMOOTH",
"418 -18 OFFCURVE",
"361 -10 OFFCURVE",
"305 5 CURVE",
"329 56 OFFCURVE",
"358 120 OFFCURVE",
"390 188 CURVE",
"394 188 OFFCURVE",
"398 189 OFFCURVE",
"402 189 CURVE SMOOTH",
"430 192 OFFCURVE",
"475 195 OFFCURVE",
"510 203 CURVE SMOOTH",
"517 205 OFFCURVE",
"536 211 OFFCURVE",
"536 227 CURVE SMOOTH",
"536 230 OFFCURVE",
"535 233 OFFCURVE",
"532 233 CURVE SMOOTH",
"411 233 LINE",
"487 389 OFFCURVE",
"577 558 OFFCURVE",
"661 645 CURVE",
"803 600 OFFCURVE",
"956 514 OFFCURVE",
"956 345 CURVE SMOOTH",
"956 335 OFFCURVE",
"955 326 OFFCURVE",
"954 316 CURVE SMOOTH"
);
},
{
closed = 1;
nodes = (
"326 274 OFFCURVE",
"326 270 OFFCURVE",
"328 270 CURVE SMOOTH",
"333 270 OFFCURVE",
"344 288 OFFCURVE",
"346 293 CURVE SMOOTH",
"379 362 OFFCURVE",
"418 443 OFFCURVE",
"418 521 CURVE SMOOTH",
"418 548 OFFCURVE",
"413 592 OFFCURVE",
"377 592 CURVE SMOOTH",
"347 592 OFFCURVE",
"324 564 OFFCURVE",
"313 539 CURVE SMOOTH",
"312 537 OFFCURVE",
"311 535 OFFCURVE",
"311 533 CURVE SMOOTH",
"311 532 OFFCURVE",
"311 530 OFFCURVE",
"313 530 CURVE SMOOTH",
"320 530 OFFCURVE",
"320 545 OFFCURVE",
"335 545 CURVE SMOOTH",
"357 545 OFFCURVE",
"357 500 OFFCURVE",
"357 485 CURVE SMOOTH",
"357 423 OFFCURVE",
"345 357 OFFCURVE",
"330 297 CURVE SMOOTH",
"328 290 OFFCURVE",
"326 283 OFFCURVE",
"326 275 CURVE SMOOTH"
);
}
);
width = 986;
}
);
unicode = 0110;
},
{
glyphname = E;
lastChange = "2021-11-27 15:47:13 +0000";
layers = (
{
hints = (
{
horizontal = 1;
place = "{-53, 13}";
type = Stem;
},
{
horizontal = 1;
place = "{289, 27}";
type = Stem;
},
{
horizontal = 1;
place = "{513, 27}";
type = Stem;
}
);
layerId = "9E0C627C-9F9A-47B5-8A8C-706F30D5AE4A";
paths = (
{
closed = 1;
nodes = (
"921 -108 OFFCURVE",
"933 -58 OFFCURVE",
"933 -41 CURVE SMOOTH",
"933 44 OFFCURVE",
"774 46 OFFCURVE",
"706 46 CURVE SMOOTH",
"569 46 OFFCURVE",
"435 23 OFFCURVE",
"299 14 CURVE",
"383 97 OFFCURVE",
"443 203 OFFCURVE",
"494 308 CURVE",
"521 305 OFFCURVE",
"549 304 OFFCURVE",
"576 304 CURVE SMOOTH",
"627 304 OFFCURVE",
"677 308 OFFCURVE",
"728 308 CURVE SMOOTH",
"743 308 OFFCURVE",
"788 308 OFFCURVE",
"788 285 CURVE SMOOTH",
"788 270 OFFCURVE",
"772 270 OFFCURVE",
"772 263 CURVE SMOOTH",
"772 262 OFFCURVE",
"774 261 OFFCURVE",
"775 261 CURVE SMOOTH",
"777 261 OFFCURVE",
"779 262 OFFCURVE",
"781 263 CURVE SMOOTH",
"805 274 OFFCURVE",
"836 296 OFFCURVE",
"836 325 CURVE SMOOTH",
"836 364 OFFCURVE",
"790 368 OFFCURVE",
"760 368 CURVE SMOOTH",
"667 368 OFFCURVE",
"588 315 OFFCURVE",
"507 317 CURVE SMOOTH",
"498 318 LINE",
"543 412 OFFCURVE",
"601 549 OFFCURVE",
"664 630 CURVE",
"737 611 OFFCURVE",
"807 585 OFFCURVE",
"879 564 CURVE SMOOTH",
"905 556 OFFCURVE",
"933 550 OFFCURVE",
"961 550 CURVE SMOOTH",
"1008 550 OFFCURVE",
"1023 564 OFFCURVE",
"1057 590 CURVE SMOOTH",
"1061 593 OFFCURVE",
"1065 596 OFFCURVE",
"1065 601 CURVE SMOOTH",
"1065 603 OFFCURVE",
"1064 604 OFFCURVE",
"1062 604 CURVE SMOOTH",
"1057 604 OFFCURVE",
"1046 596 OFFCURVE",
"1030 596 CURVE SMOOTH",
"986 596 OFFCURVE",
"923 615 OFFCURVE",
"881 627 CURVE SMOOTH",
"822 644 OFFCURVE",
"763 660 OFFCURVE",
"703 672 CURVE",
"748 712 OFFCURVE",
"800 737 OFFCURVE",
"861 737 CURVE SMOOTH",
"896 737 OFFCURVE",
"972 728 OFFCURVE",
"972 681 CURVE SMOOTH",
"972 672 OFFCURVE",
"968 665 OFFCURVE",
"968 657 CURVE SMOOTH",
"968 656 OFFCURVE",
"968 654 OFFCURVE",
"970 654 CURVE SMOOTH",
"980 654 OFFCURVE",
"991 696 OFFCURVE",
"991 705 CURVE SMOOTH",
"991 752 OFFCURVE",
"933 760 OFFCURVE",
"897 760 CURVE SMOOTH",
"815 760 OFFCURVE",
"741 727 OFFCURVE",
"678 677 CURVE",
"620 687 OFFCURVE",
"560 694 OFFCURVE",
"501 694 CURVE SMOOTH",
"436 694 OFFCURVE",
"370 686 OFFCURVE",
"310 661 CURVE SMOOTH",
"187 609 OFFCURVE",
"48 521 OFFCURVE",
"48 370 CURVE SMOOTH",
"48 316 OFFCURVE",
"77 276 OFFCURVE",
"126 254 CURVE SMOOTH",
"139 248 OFFCURVE",
"155 244 OFFCURVE",
"169 244 CURVE SMOOTH",
"172 244 OFFCURVE",
"182 245 OFFCURVE",
"182 249 CURVE SMOOTH",
"182 253 OFFCURVE",
"177 253 OFFCURVE",
"175 253 CURVE SMOOTH",
"108 253 OFFCURVE",
"100 341 OFFCURVE",
"100 390 CURVE SMOOTH",
"100 469 OFFCURVE",
"159 541 OFFCURVE",
"218 588 CURVE SMOOTH",
"285 642 OFFCURVE",
"353 659 OFFCURVE",
"438 659 CURVE SMOOTH",
"503 659 OFFCURVE",
"570 651 OFFCURVE",
"634 637 CURVE",
"482 486 OFFCURVE",
"391 243 OFFCURVE",
"266 64 CURVE SMOOTH",
"253 45 OFFCURVE",
"239 28 OFFCURVE",
"224 11 CURVE",
"220 11 LINE SMOOTH",
"169 11 OFFCURVE",
"72 15 OFFCURVE",
"36 56 CURVE SMOOTH",
"29 63 OFFCURVE",
"26 70 OFFCURVE",
"23 79 CURVE SMOOTH",
"22 82 OFFCURVE",
"20 87 OFFCURVE",
"16 87 CURVE SMOOTH",
"10 87 OFFCURVE",
"8 80 OFFCURVE",
"8 75 CURVE SMOOTH",
"8 64 OFFCURVE",
"20 40 OFFCURVE",
"27 30 CURVE",
"4 29 OFFCURVE",
"-11 -10 OFFCURVE",
"-11 -30 CURVE SMOOTH",
"-11 -76 OFFCURVE",
"37 -95 OFFCURVE",
"76 -95 CURVE SMOOTH",
"136 -95 OFFCURVE",
"195 -69 OFFCURVE",
"243 -34 CURVE",
"298 -33 OFFCURVE",
"354 -26 OFFCURVE",
"409 -23 CURVE SMOOTH",
"482 -18 OFFCURVE",
"554 -14 OFFCURVE",
"627 -14 CURVE SMOOTH",
"675 -14 OFFCURVE",
"722 -16 OFFCURVE",
"769 -20 CURVE SMOOTH",
"801 -23 OFFCURVE",
"906 -23 OFFCURVE",
"906 -71 CURVE SMOOTH",
"906 -85 OFFCURVE",
"896 -102 OFFCURVE",
"896 -105 CURVE SMOOTH",
"896 -107 OFFCURVE",
"898 -108 OFFCURVE",
"900 -108 CURVE SMOOTH"
);
},
{
closed = 1;
nodes = (
"310 191 OFFCURVE",
"321 209 OFFCURVE",
"323 214 CURVE SMOOTH",
"356 283 OFFCURVE",
"395 364 OFFCURVE",
"395 442 CURVE SMOOTH",
"395 469 OFFCURVE",
"390 513 OFFCURVE",
"354 513 CURVE SMOOTH",
"324 513 OFFCURVE",
"301 485 OFFCURVE",
"290 460 CURVE SMOOTH",
"289 458 OFFCURVE",
"288 456 OFFCURVE",
"288 454 CURVE SMOOTH",
"288 453 OFFCURVE",
"288 451 OFFCURVE",
"290 451 CURVE SMOOTH",
"297 451 OFFCURVE",
"297 466 OFFCURVE",
"312 466 CURVE SMOOTH",
"334 466 OFFCURVE",
"334 421 OFFCURVE",
"334 406 CURVE SMOOTH",
"334 344 OFFCURVE",
"322 278 OFFCURVE",
"307 218 CURVE SMOOTH",
"305 211 OFFCURVE",
"303 204 OFFCURVE",
"303 196 CURVE SMOOTH",
"303 195 OFFCURVE",
"303 191 OFFCURVE",
"305 191 CURVE SMOOTH"
);
},
{
closed = 1;
nodes = (
"51 -73 OFFCURVE",
"17 -58 OFFCURVE",
"17 -25 CURVE SMOOTH",
"17 -6 OFFCURVE",
"27 5 OFFCURVE",
"35 21 CURVE",
"69 -17 OFFCURVE",
"128 -28 OFFCURVE",
"177 -32 CURVE",
"150 -54 OFFCURVE",
"116 -73 OFFCURVE",
"80 -73 CURVE SMOOTH"
);
}
);
width = 956;
}
);
note = E;
unicode = 0045;
},
{
glyphname = F;
lastChange = "2021-11-27 15:47:13 +0000";
layers = (
{
hints = (
{
horizontal = 1;
place = "{332, 19}";
type = Stem;
}
);
layerId = "9E0C627C-9F9A-47B5-8A8C-706F30D5AE4A";
paths = (
{
closed = 1;
nodes = (
"320 -76 OFFCURVE",
"444 137 OFFCURVE",
"526 308 CURVE",
"554 305 OFFCURVE",
"581 304 OFFCURVE",
"608 304 CURVE SMOOTH",
"659 304 OFFCURVE",
"710 308 OFFCURVE",
"760 308 CURVE SMOOTH",
"775 308 OFFCURVE",
"821 308 OFFCURVE",
"821 285 CURVE SMOOTH",
"821 270 OFFCURVE",
"805 270 OFFCURVE",
"805 263 CURVE SMOOTH",
"805 262 OFFCURVE",
"806 261 OFFCURVE",
"808 261 CURVE SMOOTH",
"810 261 OFFCURVE",
"812 262 OFFCURVE",
"814 263 CURVE SMOOTH",
"838 274 OFFCURVE",
"869 296 OFFCURVE",
"869 325 CURVE SMOOTH",
"869 364 OFFCURVE",
"823 368 OFFCURVE",
"793 368 CURVE SMOOTH",
"700 368 OFFCURVE",
"621 315 OFFCURVE",
"540 317 CURVE SMOOTH",
"531 318 LINE",
"576 412 OFFCURVE",
"633 549 OFFCURVE",
"696 630 CURVE",
"769 611 OFFCURVE",
"840 585 OFFCURVE",
"911 564 CURVE SMOOTH",
"938 556 OFFCURVE",
"966 550 OFFCURVE",
"993 550 CURVE SMOOTH",
"1040 550 OFFCURVE",
"1055 565 OFFCURVE",
"1090 590 CURVE",
"1093 593 OFFCURVE",
"1097 596 OFFCURVE",
"1097 601 CURVE SMOOTH",
"1097 603 OFFCURVE",
"1096 604 OFFCURVE",
"1095 604 CURVE SMOOTH",
"1090 604 OFFCURVE",
"1079 596 OFFCURVE",
"1063 596 CURVE SMOOTH",
"1022 596 OFFCURVE",
"953 615 OFFCURVE",
"913 627 CURVE SMOOTH",
"855 644 OFFCURVE",
"796 660 OFFCURVE",
"736 672 CURVE",
"781 712 OFFCURVE",
"833 737 OFFCURVE",
"894 737 CURVE SMOOTH",
"929 737 OFFCURVE",
"1005 729 OFFCURVE",
"1005 681 CURVE SMOOTH",
"1005 672 OFFCURVE",
"1000 665 OFFCURVE",
"1000 657 CURVE SMOOTH",
"1000 656 OFFCURVE",
"1001 654 OFFCURVE",
"1003 654 CURVE SMOOTH",
"1013 654 OFFCURVE",
"1023 696 OFFCURVE",
"1023 705 CURVE SMOOTH",
"1023 751 OFFCURVE",
"966 760 OFFCURVE",
"930 760 CURVE SMOOTH",
"849 760 OFFCURVE",
"776 725 OFFCURVE",
"714 676 CURVE",
"654 687 OFFCURVE",
"594 694 OFFCURVE",
"533 694 CURVE SMOOTH",
"469 694 OFFCURVE",
"402 686 OFFCURVE",
"343 661 CURVE SMOOTH",
"219 609 OFFCURVE",
"80 521 OFFCURVE",
"80 370 CURVE SMOOTH",
"80 316 OFFCURVE",
"109 276 OFFCURVE",
"158 254 CURVE SMOOTH",
"171 248 OFFCURVE",
"187 244 OFFCURVE",
"201 244 CURVE SMOOTH",
"205 244 OFFCURVE",
"215 245 OFFCURVE",
"215 249 CURVE SMOOTH",
"215 253 OFFCURVE",
"209 253 OFFCURVE",
"207 253 CURVE SMOOTH",
"141 253 OFFCURVE",
"133 341 OFFCURVE",
"133 390 CURVE SMOOTH",
"133 469 OFFCURVE",
"192 541 OFFCURVE",
"250 588 CURVE SMOOTH",
"318 642 OFFCURVE",
"386 659 OFFCURVE",
"470 659 CURVE SMOOTH",
"537 659 OFFCURVE",
"604 651 OFFCURVE",
"669 636 CURVE",
"604 573 OFFCURVE",
"552 496 OFFCURVE",
"511 415 CURVE SMOOTH",
"448 292 OFFCURVE",
"275 -25 OFFCURVE",
"135 -52 CURVE SMOOTH",
"128 -54 OFFCURVE",
"120 -54 OFFCURVE",
"113 -54 CURVE SMOOTH",
"49 -54 OFFCURVE",
"25 2 OFFCURVE",
"25 58 CURVE SMOOTH",
"25 61 OFFCURVE",
"25 69 OFFCURVE",
"21 69 CURVE SMOOTH",
"5 69 OFFCURVE",
"-8 6 OFFCURVE",
"-8 -8 CURVE SMOOTH",
"-8 -71 OFFCURVE",
"54 -76 OFFCURVE",
"103 -76 CURVE SMOOTH"
);
},
{
closed = 1;
nodes = (
"357 191 OFFCURVE",
"368 209 OFFCURVE",
"370 214 CURVE SMOOTH",
"403 283 OFFCURVE",
"441 364 OFFCURVE",
"441 442 CURVE SMOOTH",
"441 469 OFFCURVE",
"437 513 OFFCURVE",
"401 513 CURVE SMOOTH",
"371 513 OFFCURVE",
"348 485 OFFCURVE",
"336 460 CURVE SMOOTH",
"335 458 OFFCURVE",
"334 456 OFFCURVE",
"334 454 CURVE SMOOTH",
"334 453 OFFCURVE",
"335 451 OFFCURVE",
"337 451 CURVE SMOOTH",
"343 451 OFFCURVE",
"344 466 OFFCURVE",
"358 466 CURVE SMOOTH",
"381 466 OFFCURVE",
"381 421 OFFCURVE",
"381 406 CURVE SMOOTH",
"381 344 OFFCURVE",
"369 278 OFFCURVE",
"353 218 CURVE",
"352 211 OFFCURVE",
"349 204 OFFCURVE",
"349 196 CURVE SMOOTH",
"349 195 OFFCURVE",
"349 191 OFFCURVE",
"352 191 CURVE SMOOTH"
);
}
);
width = 719;
}
);
note = F;
unicode = 0046;
},
{
glyphname = G;
lastChange = "2021-11-27 15:47:13 +0000";
layers = (
{
hints = (
{
horizontal = 1;
place = "{-290, 31}";
type = Stem;
},
{
horizontal = 1;
place = "{-29, 47}";
type = Stem;
},
{
horizontal = 1;
place = "{276, 49}";
type = Stem;
},
{
horizontal = 1;
place = "{675, 23}";
type = Stem;
},
{
place = "{-66, 27}";
type = Stem;
},
{
place = "{1, 79}";
type = Stem;
},
{
horizontal = 1;
place = "{264, 49}";
type = Stem;
},
{
horizontal = 1;
place = "{-18, 21}";
target = up;
type = BottomGhost;
}
);
layerId = "9E0C627C-9F9A-47B5-8A8C-706F30D5AE4A";
paths = (
{
closed = 1;
nodes = (
"449 -290 OFFCURVE",
"646 18 OFFCURVE",
"801 264 CURVE",
"848 264 OFFCURVE",
"872 282 OFFCURVE",
"905 312 CURVE SMOOTH",
"908 315 OFFCURVE",
"911 319 OFFCURVE",
"911 323 CURVE SMOOTH",
"911 325 OFFCURVE",
"910 327 OFFCURVE",
"908 327 CURVE SMOOTH",
"907 327 OFFCURVE",
"906 326 OFFCURVE",
"905 326 CURVE",
"892 317 OFFCURVE",
"885 315 OFFCURVE",
"869 314 CURVE SMOOTH",
"859 313 OFFCURVE",
"849 313 OFFCURVE",
"840 313 CURVE SMOOTH",
"779 313 OFFCURVE",
"719 325 OFFCURVE",
"658 325 CURVE SMOOTH",
"475 325 OFFCURVE",
"230 239 OFFCURVE",
"173 47 CURVE",
"114 78 OFFCURVE",
"80 133 OFFCURVE",
"80 201 CURVE SMOOTH",
"80 257 OFFCURVE",
"102 314 OFFCURVE",
"129 363 CURVE SMOOTH",
"217 520 OFFCURVE",
"413 675 OFFCURVE",
"600 675 CURVE SMOOTH",
"681 675 OFFCURVE",
"786 646 OFFCURVE",
"786 548 CURVE SMOOTH",
"786 517 OFFCURVE",
"776 488 OFFCURVE",
"764 460 CURVE SMOOTH",
"763 457 OFFCURVE",
"762 454 OFFCURVE",
"762 450 CURVE SMOOTH",
"762 446 OFFCURVE",
"764 441 OFFCURVE",
"768 441 CURVE SMOOTH",
"773 441 OFFCURVE",
"776 445 OFFCURVE",
"778 448 CURVE SMOOTH",
"797 473 OFFCURVE",
"814 498 OFFCURVE",
"834 522 CURVE SMOOTH",
"866 559 OFFCURVE",
"901 590 OFFCURVE",
"937 622 CURVE SMOOTH",
"938 623 OFFCURVE",
"939 625 OFFCURVE",
"939 626 CURVE SMOOTH",
"939 632 OFFCURVE",
"925 634 OFFCURVE",
"921 634 CURVE SMOOTH",
"902 634 OFFCURVE",
"871 585 OFFCURVE",
"852 585 CURVE SMOOTH",
"842 585 OFFCURVE",
"835 592 OFFCURVE",
"829 599 CURVE SMOOTH",
"806 624 OFFCURVE",
"782 646 OFFCURVE",
"752 663 CURVE SMOOTH",
"707 689 OFFCURVE",
"650 698 OFFCURVE",
"599 698 CURVE SMOOTH",
"414 698 OFFCURVE",
"215 579 OFFCURVE",
"103 436 CURVE SMOOTH",
"48 366 OFFCURVE",
"1 275 OFFCURVE",
"1 184 CURVE SMOOTH",
"1 80 OFFCURVE",
"62 7 OFFCURVE",
"161 -18 CURVE",
"156 -94 OFFCURVE",
"186 -164 OFFCURVE",
"266 -180 CURVE",
"269 -180 LINE SMOOTH",
"272 -180 OFFCURVE",
"275 -178 OFFCURVE",
"275 -175 CURVE SMOOTH",
"275 -171 OFFCURVE",
"272 -169 OFFCURVE",
"269 -167 CURVE SMOOTH",
"222 -136 OFFCURVE",
"206 -94 OFFCURVE",
"207 -39 CURVE SMOOTH",
"207 -27 LINE",
"222 -29 OFFCURVE",
"237 -29 OFFCURVE",
"252 -29 CURVE SMOOTH",
"375 -29 OFFCURVE",
"518 22 OFFCURVE",
"618 94 CURVE",
"536 -23 OFFCURVE",
"407 -186 OFFCURVE",
"272 -239 CURVE SMOOTH",
"238 -253 OFFCURVE",
"198 -259 OFFCURVE",
"161 -259 CURVE SMOOTH",
"69 -259 OFFCURVE",
"-24 -221 OFFCURVE",
"-39 -120 CURVE",
"-39 -112 LINE SMOOTH",
"-39 -83 OFFCURVE",
"-18 -68 OFFCURVE",
"-18 -62 CURVE SMOOTH",
"-18 -61 OFFCURVE",
"-19 -60 OFFCURVE",
"-20 -60 CURVE SMOOTH",
"-23 -60 OFFCURVE",
"-26 -62 OFFCURVE",
"-27 -64 CURVE",
"-53 -85 OFFCURVE",
"-66 -131 OFFCURVE",
"-66 -164 CURVE SMOOTH",
"-66 -261 OFFCURVE",
"40 -290 OFFCURVE",
"120 -290 CURVE SMOOTH"
);
},
{
closed = 1;
nodes = (
"580 332 OFFCURVE",
"595 332 OFFCURVE",
"597 336 CURVE",
"598 337 OFFCURVE",
"595 338 OFFCURVE",
"595 339 CURVE",
"590 342 OFFCURVE",
"584 343 OFFCURVE",
"579 345 CURVE SMOOTH",
"536 357 OFFCURVE",
"498 369 OFFCURVE",
"460 392 CURVE SMOOTH",
"450 398 OFFCURVE",
"422 414 OFFCURVE",
"431 428 CURVE SMOOTH",
"436 438 OFFCURVE",
"439 438 OFFCURVE",
"441 442 CURVE",
"442 443 OFFCURVE",
"441 444 OFFCURVE",
"441 444 CURVE",
"439 445 OFFCURVE",
"437 445 OFFCURVE",
"436 445 CURVE SMOOTH",
"416 447 OFFCURVE",
"375 438 OFFCURVE",
"364 420 CURVE SMOOTH",
"361 415 OFFCURVE",
"360 411 OFFCURVE",
"360 407 CURVE SMOOTH",
"360 390 OFFCURVE",
"379 376 OFFCURVE",
"393 368 CURVE SMOOTH",
"441 339 OFFCURVE",
"521 338 OFFCURVE",
"576 333 CURVE"
);
},
{
closed = 1;
nodes = (
"276 18 OFFCURVE",
"245 21 OFFCURVE",
"215 30 CURVE",
"228 83 OFFCURVE",
"254 137 OFFCURVE",
"290 178 CURVE SMOOTH",
"366 263 OFFCURVE",
"475 276 OFFCURVE",
"584 276 CURVE SMOOTH",
"632 276 OFFCURVE",
"682 274 OFFCURVE",
"730 271 CURVE",
"714 242 OFFCURVE",
"697 214 OFFCURVE",
"679 186 CURVE SMOOTH",
"672 175 OFFCURVE",
"665 162 OFFCURVE",
"657 153 CURVE SMOOTH",
"647 140 OFFCURVE",
"627 126 OFFCURVE",
"613 116 CURVE SMOOTH",
"529 56 OFFCURVE",
"411 18 OFFCURVE",
"307 18 CURVE SMOOTH"
);
}
);
width = 773;
}
);
note = G;
unicode = 0047;
},
{
glyphname = H;
lastChange = "2021-11-27 15:47:13 +0000";
layers = (
{
hints = (
{
horizontal = 1;
place = "{-51, 31}";
type = Stem;
},
{
horizontal = 1;
place = "{336, 24}";
type = Stem;
},
{
horizontal = 1;
place = "{466, 47}";
type = Stem;
},
{
horizontal = 1;
place = "{729, 31}";
type = Stem;
},
{
place = "{17, 27}";
type = Stem;
},
{
place = "{359, 49}";
type = Stem;
},
{
place = "{580, 60}";
type = Stem;
},
{
place = "{1618, 18}";
type = Stem;
},
{
horizontal = 1;
place = "{659, 59}";
type = Stem;
},
{
horizontal = 1;
place = "{339, 21}";
type = Stem;
}
);
layerId = "9E0C627C-9F9A-47B5-8A8C-706F30D5AE4A";
paths = (
{
closed = 1;
nodes = (
"426 -51 OFFCURVE",
"608 134 OFFCURVE",
"734 298 CURVE",
"845 324 OFFCURVE",
"962 330 OFFCURVE",
"1075 336 CURVE",
"1041 274 OFFCURVE",
"1009 211 OFFCURVE",
"977 149 CURVE SMOOTH",
"950 99 OFFCURVE",
"924 48 OFFCURVE",
"889 4 CURVE SMOOTH",
"886 0 OFFCURVE",
"885 -3 OFFCURVE",
"885 -7 CURVE SMOOTH",
"885 -28 OFFCURVE",
"907 -46 OFFCURVE",
"926 -46 CURVE SMOOTH",
"960 -46 OFFCURVE",
"1009 24 OFFCURVE",
"1032 48 CURVE SMOOTH",
"1087 105 OFFCURVE",
"1162 151 OFFCURVE",
"1231 189 CURVE SMOOTH",
"1233 190 OFFCURVE",
"1234 192 OFFCURVE",
"1234 194 CURVE SMOOTH",
"1234 198 OFFCURVE",
"1231 201 OFFCURVE",
"1228 201 CURVE SMOOTH",
"1214 201 OFFCURVE",
"1032 91 OFFCURVE",
"1008 76 CURVE",
"1062 158 OFFCURVE",
"1102 250 OFFCURVE",
"1144 339 CURVE",
"1154 339 OFFCURVE",
"1204 335 OFFCURVE",
"1204 350 CURVE SMOOTH",
"1204 359 OFFCURVE",
"1189 361 OFFCURVE",
"1175 361 CURVE SMOOTH",
"1166 361 OFFCURVE",
"1158 360 OFFCURVE",
"1154 360 CURVE",
"1215 490 OFFCURVE",
"1305 689 OFFCURVE",
"1460 724 CURVE SMOOTH",
"1478 728 OFFCURVE",
"1498 729 OFFCURVE",
"1517 729 CURVE SMOOTH",
"1549 729 OFFCURVE",
"1618 724 OFFCURVE",
"1618 680 CURVE SMOOTH",
"1618 672 OFFCURVE",
"1614 665 OFFCURVE",
"1614 657 CURVE SMOOTH",
"1614 656 OFFCURVE",
"1614 654 OFFCURVE",
"1616 654 CURVE SMOOTH",
"1626 654 OFFCURVE",
"1636 696 OFFCURVE",
"1636 705 CURVE SMOOTH",
"1636 752 OFFCURVE",
"1578 760 OFFCURVE",
"1543 760 CURVE SMOOTH",
"1320 760 OFFCURVE",
"1183 532 OFFCURVE",
"1088 360 CURVE",
"779 360 LINE",
"843 449 OFFCURVE",
"898 543 OFFCURVE",
"956 635 CURVE SMOOTH",
"975 665 OFFCURVE",
"996 690 OFFCURVE",
"1020 716 CURVE SMOOTH",
"1021 717 OFFCURVE",
"1022 719 OFFCURVE",
"1022 721 CURVE SMOOTH",
"1022 724 OFFCURVE",
"1020 727 OFFCURVE",
"1016 727 CURVE SMOOTH",
"1015 727 OFFCURVE",
"1013 726 OFFCURVE",
"1012 725 CURVE SMOOTH",
"1000 717 OFFCURVE",
"997 717 OFFCURVE",
"982 715 CURVE SMOOTH",
"975 714 OFFCURVE",
"967 714 OFFCURVE",
"960 714 CURVE SMOOTH",
"935 714 OFFCURVE",
"911 716 OFFCURVE",
"886 717 CURVE SMOOTH",
"859 718 OFFCURVE",
"832 718 OFFCURVE",
"805 718 CURVE SMOOTH",
"661 718 OFFCURVE",
"552 699 OFFCURVE",
"444 598 CURVE SMOOTH",
"400 557 OFFCURVE",
"359 491 OFFCURVE",
"359 429 CURVE SMOOTH",
"359 361 OFFCURVE",
"412 313 OFFCURVE",
"476 301 CURVE",
"478 300 LINE",
"480 300 OFFCURVE",
"483 302 OFFCURVE",
"483 305 CURVE SMOOTH",
"483 308 OFFCURVE",
"480 310 OFFCURVE",
"478 311 CURVE SMOOTH",
"466 319 OFFCURVE",
"455 327 OFFCURVE",
"447 339 CURVE SMOOTH",
"423 372 OFFCURVE",
"408 412 OFFCURVE",
"408 453 CURVE SMOOTH",
"408 484 OFFCURVE",
"416 515 OFFCURVE",
"432 542 CURVE SMOOTH",
"484 629 OFFCURVE",
"593 659 OFFCURVE",
"688 659 CURVE SMOOTH",
"756 659 OFFCURVE",
"825 657 OFFCURVE",
"893 656 CURVE",
"787 466 OFFCURVE",
"553 84 OFFCURVE",
"355 0 CURVE SMOOTH",
"322 -14 OFFCURVE",
"279 -20 OFFCURVE",
"244 -20 CURVE SMOOTH",
"152 -20 OFFCURVE",
"59 18 OFFCURVE",
"44 119 CURVE",
"44 127 LINE SMOOTH",
"44 156 OFFCURVE",
"65 171 OFFCURVE",
"65 177 CURVE SMOOTH",
"65 178 OFFCURVE",
"64 179 OFFCURVE",
"63 179 CURVE SMOOTH",
"60 179 OFFCURVE",
"57 177 OFFCURVE",
"56 176 CURVE SMOOTH",
"30 154 OFFCURVE",
"17 108 OFFCURVE",
"17 75 CURVE SMOOTH",
"17 -22 OFFCURVE",
"123 -51 OFFCURVE",
"203 -51 CURVE SMOOTH"
);
},
{
closed = 1;
nodes = (
"556 191 OFFCURVE",
"567 209 OFFCURVE",
"569 214 CURVE SMOOTH",
"602 283 OFFCURVE",
"640 364 OFFCURVE",
"640 442 CURVE SMOOTH",
"640 469 OFFCURVE",
"636 513 OFFCURVE",
"600 513 CURVE SMOOTH",
"570 513 OFFCURVE",
"547 485 OFFCURVE",
"535 460 CURVE SMOOTH",
"534 458 OFFCURVE",
"533 456 OFFCURVE",
"533 454 CURVE SMOOTH",
"533 453 OFFCURVE",
"534 451 OFFCURVE",
"536 451 CURVE SMOOTH",
"542 451 OFFCURVE",
"543 466 OFFCURVE",
"557 466 CURVE SMOOTH",
"580 466 OFFCURVE",
"580 421 OFFCURVE",
"580 406 CURVE SMOOTH",
"580 344 OFFCURVE",
"568 278 OFFCURVE",
"552 218 CURVE",
"551 211 OFFCURVE",
"548 204 OFFCURVE",
"548 196 CURVE SMOOTH",
"548 195 OFFCURVE",
"548 191 OFFCURVE",
"551 191 CURVE SMOOTH"
);
}
);
width = 1133;
}
);
note = H;
unicode = 0048;
},
{
glyphname = I;
lastChange = "2021-11-27 15:47:13 +0000";
layers = (
{
hints = (
{
horizontal = 1;
place = "{312, 39}";
type = Stem;
}
);
layerId = "9E0C627C-9F9A-47B5-8A8C-706F30D5AE4A";
paths = (
{
closed = 1;
nodes = (
"548 -51 OFFCURVE",
"795 378 OFFCURVE",
"956 635 CURVE SMOOTH",
"975 665 OFFCURVE",
"996 691 OFFCURVE",
"1020 716 CURVE SMOOTH",
"1021 717 OFFCURVE",
"1022 719 OFFCURVE",
"1022 721 CURVE SMOOTH",
"1022 724 OFFCURVE",
"1020 727 OFFCURVE",
"1016 727 CURVE SMOOTH",
"1015 727 OFFCURVE",
"1013 726 OFFCURVE",
"1012 725 CURVE SMOOTH",
"1000 717 OFFCURVE",
"997 717 OFFCURVE",
"982 715 CURVE SMOOTH",
"975 714 OFFCURVE",
"967 714 OFFCURVE",
"960 714 CURVE SMOOTH",
"935 714 OFFCURVE",
"911 716 OFFCURVE",
"886 717 CURVE SMOOTH",
"859 718 OFFCURVE",
"832 718 OFFCURVE",
"805 718 CURVE SMOOTH",
"662 718 OFFCURVE",
"552 699 OFFCURVE",
"444 598 CURVE SMOOTH",
"400 557 OFFCURVE",
"359 491 OFFCURVE",
"359 429 CURVE SMOOTH",
"359 361 OFFCURVE",
"412 314 OFFCURVE",
"476 301 CURVE",
"478 300 LINE",
"480 300 OFFCURVE",
"483 302 OFFCURVE",
"483 305 CURVE SMOOTH",
"483 308 OFFCURVE",
"480 310 OFFCURVE",
"478 311 CURVE SMOOTH",
"465 319 OFFCURVE",
"456 327 OFFCURVE",
"447 339 CURVE SMOOTH",
"422 372 OFFCURVE",
"408 413 OFFCURVE",
"408 453 CURVE SMOOTH",
"408 484 OFFCURVE",
"416 515 OFFCURVE",
"432 542 CURVE SMOOTH",
"484 629 OFFCURVE",
"593 659 OFFCURVE",
"688 659 CURVE SMOOTH",
"756 659 OFFCURVE",
"825 657 OFFCURVE",
"893 656 CURVE",
"788 467 OFFCURVE",
"552 82 OFFCURVE",
"355 0 CURVE SMOOTH",
"322 -14 OFFCURVE",
"279 -20 OFFCURVE",
"244 -20 CURVE SMOOTH",
"152 -20 OFFCURVE",
"60 18 OFFCURVE",
"44 119 CURVE",
"44 127 LINE SMOOTH",
"44 157 OFFCURVE",
"65 170 OFFCURVE",
"65 177 CURVE SMOOTH",
"65 178 OFFCURVE",
"64 179 OFFCURVE",
"63 179 CURVE SMOOTH",
"60 179 OFFCURVE",
"57 177 OFFCURVE",
"56 176 CURVE SMOOTH",
"30 153 OFFCURVE",
"17 109 OFFCURVE",
"17 75 CURVE SMOOTH",
"17 -22 OFFCURVE",
"123 -51 OFFCURVE",
"203 -51 CURVE SMOOTH"
);
},
{
closed = 1;
nodes = (
"602 234 OFFCURVE",
"609 245 OFFCURVE",
"611 249 CURVE SMOOTH",
"630 286 OFFCURVE",
"654 332 OFFCURVE",
"654 374 CURVE SMOOTH",
"654 396 OFFCURVE",
"648 424 OFFCURVE",
"620 424 CURVE SMOOTH",
"597 424 OFFCURVE",
"576 407 OFFCURVE",
"566 387 CURVE",
"565 383 LINE SMOOTH",
"565 382 OFFCURVE",
"566 381 OFFCURVE",
"567 381 CURVE SMOOTH",
"572 381 OFFCURVE",
"573 392 OFFCURVE",
"586 392 CURVE SMOOTH",
"607 392 OFFCURVE",
"608 351 OFFCURVE",
"608 336 CURVE SMOOTH",
"608 307 OFFCURVE",
"604 278 OFFCURVE",
"597 250 CURVE SMOOTH",
"596 246 OFFCURVE",
"595 242 OFFCURVE",
"595 238 CURVE SMOOTH",
"595 237 OFFCURVE",
"596 234 OFFCURVE",
"598 234 CURVE SMOOTH"
);
}
);
width = 765;
}
);
note = I;
unicode = 0049;
},
{
glyphname = J;
lastChange = "2021-11-27 15:47:13 +0000";
layers = (
{
hints = (
{
horizontal = 1;
place = "{-303, 30}";
type = Stem;
},
{
horizontal = 1;
place = "{108, 17}";
type = Stem;
},
{
horizontal = 1;
place = "{387, 32}";
type = Stem;
},
{
horizontal = 1;
place = "{678, 49}";
type = Stem;
},
{
place = "{-135, 56}";
type = Stem;
},
{
place = "{333, 46}";
type = Stem;
},
{
place = "{629, 46}";
type = Stem;
},
{
horizontal = 1;
place = "{690, 49}";
type = Stem;
}
);
layerId = "9E0C627C-9F9A-47B5-8A8C-706F30D5AE4A";
paths = (
{
closed = 1;
nodes = (
"444 234 OFFCURVE",
"447 236 OFFCURVE",
"447 239 CURVE SMOOTH",
"447 243 OFFCURVE",
"444 245 OFFCURVE",
"441 247 CURVE SMOOTH",
"394 278 OFFCURVE",
"379 320 OFFCURVE",
"379 375 CURVE SMOOTH",
"379 449 OFFCURVE",
"413 537 OFFCURVE",
"462 592 CURVE SMOOTH",
"539 677 OFFCURVE",
"647 690 OFFCURVE",
"756 690 CURVE SMOOTH",
"820 690 OFFCURVE",
"884 688 OFFCURVE",
"948 680 CURVE SMOOTH",
"956 679 OFFCURVE",
"965 678 OFFCURVE",
"973 678 CURVE SMOOTH",
"1020 678 OFFCURVE",
"1044 696 OFFCURVE",
"1077 726 CURVE SMOOTH",
"1080 729 OFFCURVE",
"1083 733 OFFCURVE",
"1083 737 CURVE SMOOTH",
"1083 739 OFFCURVE",
"1082 741 OFFCURVE",
"1080 741 CURVE SMOOTH",
"1079 741 OFFCURVE",
"1078 740 OFFCURVE",
"1077 740 CURVE",
"1064 730 OFFCURVE",
"1057 729 OFFCURVE",
"1041 728 CURVE SMOOTH",
"1031 727 OFFCURVE",
"1022 727 OFFCURVE",
"1012 727 CURVE SMOOTH",
"951 727 OFFCURVE",
"891 739 OFFCURVE",
"830 739 CURVE SMOOTH",
"823 739 OFFCURVE",
"817 739 OFFCURVE",
"810 738 CURVE SMOOTH",
"605 727 OFFCURVE",
"362 636 OFFCURVE",
"334 404 CURVE SMOOTH",
"333 396 OFFCURVE",
"333 388 OFFCURVE",
"333 380 CURVE SMOOTH",
"333 310 OFFCURVE",
"365 248 OFFCURVE",
"438 234 CURVE",
"441 234 LINE SMOOTH"
);
},
{
closed = 1;
nodes = (
"95 -303 OFFCURVE",
"118 -301 OFFCURVE",
"141 -297 CURVE SMOOTH",
"342 -265 OFFCURVE",
"515 -112 OFFCURVE",
"620 56 CURVE SMOOTH",
"652 107 OFFCURVE",
"681 159 OFFCURVE",
"710 211 CURVE SMOOTH",
"761 300 OFFCURVE",
"811 388 OFFCURVE",
"861 477 CURVE SMOOTH",
"894 533 OFFCURVE",
"925 591 OFFCURVE",
"962 645 CURVE SMOOTH",
"963 647 OFFCURVE",
"964 649 OFFCURVE",
"964 651 CURVE SMOOTH",
"964 654 OFFCURVE",
"961 655 OFFCURVE",
"958 655 CURVE SMOOTH",
"950 655 OFFCURVE",
"951 643 OFFCURVE",
"926 640 CURVE SMOOTH",
"895 636 OFFCURVE",
"872 644 OFFCURVE",
"847 618 CURVE SMOOTH",
"845 616 OFFCURVE",
"807 538 OFFCURVE",
"804 532 CURVE SMOOTH",
"742 408 OFFCURVE",
"683 283 OFFCURVE",
"620 160 CURVE SMOOTH",
"545 13 OFFCURVE",
"378 -204 OFFCURVE",
"216 -255 CURVE SMOOTH",
"180 -266 OFFCURVE",
"143 -273 OFFCURVE",
"105 -273 CURVE SMOOTH",
"23 -273 OFFCURVE",
"-79 -231 OFFCURVE",
"-79 -134 CURVE SMOOTH",
"-79 -12 OFFCURVE",
"84 55 OFFCURVE",
"181 80 CURVE SMOOTH",
"250 97 OFFCURVE",
"323 103 OFFCURVE",
"394 106 CURVE SMOOTH",
"418 107 OFFCURVE",
"441 108 OFFCURVE",
"465 108 CURVE SMOOTH",
"491 108 LINE",
"497 109 OFFCURVE",
"501 113 OFFCURVE",
"501 120 CURVE SMOOTH",
"501 125 OFFCURVE",
"497 125 OFFCURVE",
"493 125 CURVE SMOOTH",
"445 125 LINE SMOOTH",
"355 125 OFFCURVE",
"261 122 OFFCURVE",
"173 101 CURVE SMOOTH",
"71 76 OFFCURVE",
"-56 24 OFFCURVE",
"-112 -71 CURVE SMOOTH",
"-126 -96 OFFCURVE",
"-135 -124 OFFCURVE",
"-135 -152 CURVE SMOOTH",
"-135 -262 OFFCURVE",
"-19 -303 OFFCURVE",
"72 -303 CURVE SMOOTH"
);
},
{
closed = 1;
nodes = (
"623 229 OFFCURVE",
"630 240 OFFCURVE",
"632 244 CURVE SMOOTH",
"651 281 OFFCURVE",
"675 327 OFFCURVE",
"675 369 CURVE SMOOTH",
"675 391 OFFCURVE",
"669 419 OFFCURVE",
"641 419 CURVE SMOOTH",
"618 419 OFFCURVE",
"597 402 OFFCURVE",
"587 382 CURVE",
"586 378 LINE SMOOTH",
"586 377 OFFCURVE",
"587 376 OFFCURVE",
"588 376 CURVE SMOOTH",
"593 376 OFFCURVE",
"594 387 OFFCURVE",
"607 387 CURVE SMOOTH",
"628 387 OFFCURVE",
"629 346 OFFCURVE",
"629 331 CURVE SMOOTH",
"629 302 OFFCURVE",
"625 273 OFFCURVE",
"618 245 CURVE SMOOTH",
"617 241 OFFCURVE",
"616 237 OFFCURVE",
"616 233 CURVE SMOOTH",
"616 232 OFFCURVE",
"617 229 OFFCURVE",
"619 229 CURVE SMOOTH"
);
}
);
width = 676;
}
);
note = J;
unicode = 004A;
},
{
glyphname = K;
lastChange = "2021-11-27 15:47:13 +0000";
layers = (
{
hints = (
{
horizontal = 1;
place = "{-121, 61}";
type = Stem;
}
);
layerId = "9E0C627C-9F9A-47B5-8A8C-706F30D5AE4A";
paths = (
{
closed = 1;
nodes = (
"1369 740 OFFCURVE",
"1276 701 OFFCURVE",
"1216 670 CURVE SMOOTH",
"1051 585 OFFCURVE",
"885 429 OFFCURVE",
"759 294 CURVE",
"742 309 LINE",
"797 382 OFFCURVE",
"847 459 OFFCURVE",
"895 536 CURVE SMOOTH",
"925 584 OFFCURVE",
"953 632 OFFCURVE",
"985 679 CURVE",
"1006 693 OFFCURVE",
"1005 705 OFFCURVE",
"1014 724 CURVE SMOOTH",
"1016 729 OFFCURVE",
"1019 733 OFFCURVE",
"1019 737 CURVE SMOOTH",
"1019 738 OFFCURVE",
"1019 739 OFFCURVE",
"1017 739 CURVE SMOOTH",
"1013 739 OFFCURVE",
"1005 726 OFFCURVE",
"978 726 CURVE SMOOTH",
"901 726 OFFCURVE",
"825 739 OFFCURVE",
"748 739 CURVE SMOOTH",
"739 739 OFFCURVE",
"731 739 OFFCURVE",
"723 738 CURVE SMOOTH",
"551 729 OFFCURVE",
"324 658 OFFCURVE",
"252 484 CURVE SMOOTH",
"241 458 OFFCURVE",
"236 431 OFFCURVE",
"232 403 CURVE SMOOTH",
"231 397 OFFCURVE",
"231 391 OFFCURVE",
"231 385 CURVE SMOOTH",
"231 311 OFFCURVE",
"277 249 OFFCURVE",
"351 234 CURVE",
"354 234 LINE SMOOTH",
"357 234 OFFCURVE",
"360 236 OFFCURVE",
"360 239 CURVE SMOOTH",
"360 243 OFFCURVE",
"357 245 OFFCURVE",
"354 247 CURVE SMOOTH",
"307 278 OFFCURVE",
"292 320 OFFCURVE",
"292 375 CURVE SMOOTH",
"292 450 OFFCURVE",
"325 537 OFFCURVE",
"375 592 CURVE SMOOTH",
"451 677 OFFCURVE",
"560 690 OFFCURVE",
"669 690 CURVE SMOOTH",
"747 690 OFFCURVE",
"825 682 OFFCURVE",
"902 673 CURVE",
"840 560 OFFCURVE",
"773 450 OFFCURVE",
"699 345 CURVE",
"684 357 OFFCURVE",
"669 369 OFFCURVE",
"653 380 CURVE",
"664 413 OFFCURVE",
"671 447 OFFCURVE",
"671 481 CURVE SMOOTH",
"671 508 OFFCURVE",
"667 553 OFFCURVE",
"630 553 CURVE SMOOTH",
"600 553 OFFCURVE",
"578 524 OFFCURVE",
"566 500 CURVE SMOOTH",
"565 498 OFFCURVE",
"564 495 OFFCURVE",
"564 493 CURVE SMOOTH",
"564 492 OFFCURVE",
"565 491 OFFCURVE",
"566 491 CURVE SMOOTH",
"573 491 OFFCURVE",
"573 506 OFFCURVE",
"588 506 CURVE SMOOTH",
"609 506 OFFCURVE",
"610 467 OFFCURVE",
"610 449 CURVE SMOOTH",
"610 435 OFFCURVE",
"609 420 OFFCURVE",
"608 406 CURVE",
"585 416 OFFCURVE",
"560 423 OFFCURVE",
"533 423 CURVE SMOOTH",
"522 423 OFFCURVE",
"464 415 OFFCURVE",
"464 401 CURVE SMOOTH",
"464 397 OFFCURVE",
"469 393 OFFCURVE",
"473 393 CURVE SMOOTH",
"480 393 OFFCURVE",
"491 402 OFFCURVE",
"508 402 CURVE SMOOTH",
"538 402 OFFCURVE",
"572 385 OFFCURVE",
"604 364 CURVE",
"599 328 OFFCURVE",
"592 291 OFFCURVE",
"583 257 CURVE SMOOTH",
"581 250 OFFCURVE",
"579 243 OFFCURVE",
"579 235 CURVE SMOOTH",
"579 234 OFFCURVE",
"579 230 OFFCURVE",
"581 230 CURVE SMOOTH",
"587 230 OFFCURVE",
"597 249 OFFCURVE",
"600 253 CURVE",
"613 281 OFFCURVE",
"627 310 OFFCURVE",
"639 340 CURVE",
"675 312 LINE",
"602 211 OFFCURVE",
"473 47 OFFCURVE",
"355 0 CURVE SMOOTH",
"321 -14 OFFCURVE",
"281 -20 OFFCURVE",
"244 -20 CURVE SMOOTH",
"152 -20 OFFCURVE",
"59 18 OFFCURVE",
"44 119 CURVE",
"44 127 LINE SMOOTH",
"44 156 OFFCURVE",
"65 171 OFFCURVE",
"65 177 CURVE SMOOTH",
"65 178 OFFCURVE",
"64 179 OFFCURVE",
"63 179 CURVE SMOOTH",
"60 179 OFFCURVE",
"57 177 OFFCURVE",
"56 176 CURVE SMOOTH",
"30 153 OFFCURVE",
"17 109 OFFCURVE",
"17 75 CURVE SMOOTH",
"17 -22 OFFCURVE",
"123 -51 OFFCURVE",
"203 -51 CURVE SMOOTH",
"417 -51 OFFCURVE",
"593 119 OFFCURVE",
"717 276 CURVE",
"731 263 LINE",
"710 241 OFFCURVE",
"547 53 OFFCURVE",
"547 43 CURVE SMOOTH",
"547 38 OFFCURVE",
"554 34 OFFCURVE",
"558 34 CURVE SMOOTH",
"561 34 OFFCURVE",
"563 35 OFFCURVE",
"565 37 CURVE SMOOTH",
"584 60 OFFCURVE",
"601 83 OFFCURVE",
"620 105 CURVE SMOOTH",
"661 154 OFFCURVE",
"703 202 OFFCURVE",
"747 249 CURVE",
"864 139 OFFCURVE",
"970 17 OFFCURVE",
"1093 -86 CURVE SMOOTH",
"1129 -116 OFFCURVE",
"1188 -164 OFFCURVE",
"1238 -164 CURVE SMOOTH",
"1289 -164 OFFCURVE",
"1314 -121 OFFCURVE",
"1325 -77 CURVE",
"1325 -75 LINE SMOOTH",
"1325 -71 OFFCURVE",
"1320 -58 OFFCURVE",
"1315 -58 CURVE SMOOTH",
"1314 -58 OFFCURVE",
"1313 -59 OFFCURVE",
"1313 -60 CURVE",
"1307 -80 OFFCURVE",
"1300 -104 OFFCURVE",
"1274 -104 CURVE SMOOTH",
"1244 -104 OFFCURVE",
"1186 -62 OFFCURVE",
"1161 -45 CURVE SMOOTH",
"1021 50 OFFCURVE",
"904 169 OFFCURVE",
"777 280 CURVE",
"922 428 OFFCURVE",
"1222 697 OFFCURVE",
"1442 701 CURVE SMOOTH",
"1445 701 LINE SMOOTH",
"1471 701 OFFCURVE",
"1484 689 OFFCURVE",
"1484 663 CURVE SMOOTH",
"1484 653 OFFCURVE",
"1480 643 OFFCURVE",
"1480 634 CURVE SMOOTH",
"1480 629 OFFCURVE",
"1484 626 OFFCURVE",
"1488 626 CURVE SMOOTH",
"1497 626 OFFCURVE",
"1498 645 OFFCURVE",
"1498 655 CURVE SMOOTH",
"1498 694 OFFCURVE",
"1484 740 OFFCURVE",
"1438 740 CURVE SMOOTH"
);
}
);
width = 1116;
}
);
note = K;
unicode = 004B;
},
{
glyphname = L;
lastChange = "2021-11-27 15:47:13 +0000";
layers = (
{
hints = (
{
horizontal = 1;
place = "{-28, 13}";
type = Stem;
}
);
layerId = "9E0C627C-9F9A-47B5-8A8C-706F30D5AE4A";
paths = (
{
closed = 1;
nodes = (
"1059 -176 OFFCURVE",
"1192 -149 OFFCURVE",
"1192 -53 CURVE SMOOTH",
"1192 -10 OFFCURVE",
"1160 38 OFFCURVE",
"1120 55 CURVE SMOOTH",
"1115 57 OFFCURVE",
"1104 61 OFFCURVE",
"1098 61 CURVE SMOOTH",
"1095 61 OFFCURVE",
"1086 58 OFFCURVE",
"1086 54 CURVE SMOOTH",
"1086 53 OFFCURVE",
"1088 52 OFFCURVE",
"1089 52 CURVE",
"1131 37 OFFCURVE",
"1161 -13 OFFCURVE",
"1161 -57 CURVE SMOOTH",
"1161 -123 OFFCURVE",
"1099 -141 OFFCURVE",
"1045 -141 CURVE SMOOTH",
"875 -141 OFFCURVE",
"629 1 OFFCURVE",
"484 81 CURVE",
"549 164 OFFCURVE",
"598 258 OFFCURVE",
"649 350 CURVE SMOOTH",
"716 473 OFFCURVE",
"788 667 OFFCURVE",
"940 703 CURVE SMOOTH",
"950 705 OFFCURVE",
"960 706 OFFCURVE",
"970 706 CURVE SMOOTH",
"1019 706 OFFCURVE",
"1082 683 OFFCURVE",
"1104 636 CURVE SMOOTH",
"1109 625 OFFCURVE",
"1110 616 OFFCURVE",
"1112 605 CURVE SMOOTH",
"1113 600 OFFCURVE",
"1115 597 OFFCURVE",
"1121 597 CURVE SMOOTH",
"1128 597 OFFCURVE",
"1130 602 OFFCURVE",
"1130 609 CURVE SMOOTH",
"1130 624 OFFCURVE",
"1125 642 OFFCURVE",
"1119 656 CURVE SMOOTH",
"1089 721 OFFCURVE",
"1018 750 OFFCURVE",
"950 750 CURVE SMOOTH",
"942 750 OFFCURVE",
"934 750 OFFCURVE",
"927 749 CURVE SMOOTH",
"756 729 OFFCURVE",
"670 541 OFFCURVE",
"597 407 CURVE SMOOTH",
"543 308 OFFCURVE",
"497 203 OFFCURVE",
"436 108 CURVE",
"379 139 OFFCURVE",
"323 172 OFFCURVE",
"266 203 CURVE SMOOTH",
"224 226 OFFCURVE",
"172 251 OFFCURVE",
"124 251 CURVE SMOOTH",
"54 251 OFFCURVE",
"9 192 OFFCURVE",
"9 125 CURVE SMOOTH",
"9 80 OFFCURVE",
"30 25 OFFCURVE",
"62 -8 CURVE SMOOTH",
"65 -11 OFFCURVE",
"70 -16 OFFCURVE",
"75 -16 CURVE SMOOTH",
"78 -16 OFFCURVE",
"80 -14 OFFCURVE",
"80 -11 CURVE SMOOTH",
"80 -7 OFFCURVE",
"77 -3 OFFCURVE",
"75 0 CURVE SMOOTH",
"54 32 OFFCURVE",
"45 91 OFFCURVE",
"45 128 CURVE SMOOTH",
"45 165 OFFCURVE",
"50 191 OFFCURVE",
"94 191 CURVE SMOOTH",
"171 191 OFFCURVE",
"325 92 OFFCURVE",
"397 51 CURVE",
"357 2 OFFCURVE",
"272 -72 OFFCURVE",
"206 -72 CURVE SMOOTH",
"178 -72 OFFCURVE",
"140 -62 OFFCURVE",
"140 -28 CURVE SMOOTH",
"140 -11 OFFCURVE",
"140 -2 OFFCURVE",
"148 14 CURVE SMOOTH",
"149 16 OFFCURVE",
"151 18 OFFCURVE",
"151 21 CURVE SMOOTH",
"151 25 OFFCURVE",
"147 26 OFFCURVE",
"144 26 CURVE SMOOTH",
"121 26 OFFCURVE",
"109 -4 OFFCURVE",
"109 -23 CURVE SMOOTH",
"109 -72 OFFCURVE",
"161 -90 OFFCURVE",
"202 -90 CURVE SMOOTH",
"297 -90 OFFCURVE",
"373 -38 OFFCURVE",
"437 28 CURVE",
"590 -56 OFFCURVE",
"808 -176 OFFCURVE",
"986 -176 CURVE SMOOTH"
);
},
{
closed = 1;
nodes = (
"494 264 OFFCURVE",
"504 282 OFFCURVE",
"507 287 CURVE SMOOTH",
"540 356 OFFCURVE",
"578 437 OFFCURVE",
"578 515 CURVE SMOOTH",
"578 542 OFFCURVE",
"574 586 OFFCURVE",
"537 586 CURVE SMOOTH",
"507 586 OFFCURVE",
"485 558 OFFCURVE",
"473 533 CURVE SMOOTH",
"472 531 OFFCURVE",
"471 529 OFFCURVE",
"471 527 CURVE SMOOTH",
"471 526 OFFCURVE",
"472 524 OFFCURVE",
"473 524 CURVE SMOOTH",
"480 524 OFFCURVE",
"480 539 OFFCURVE",
"495 539 CURVE SMOOTH",
"516 539 OFFCURVE",
"517 501 OFFCURVE",
"517 483 CURVE SMOOTH",
"517 420 OFFCURVE",
"506 352 OFFCURVE",
"490 291 CURVE SMOOTH",
"488 284 OFFCURVE",
"486 277 OFFCURVE",
"486 269 CURVE SMOOTH",
"486 268 OFFCURVE",
"486 264 OFFCURVE",
"488 264 CURVE SMOOTH"
);
}
);
width = 666;
}
);
note = L;
unicode = 004C;
},
{
color = 11;
glyphname = Lslash;
lastChange = "2021-11-27 15:47:14 +0000";
layers = (
{
components = (
{
name = strokeshortcomb;
transform = "{0.99027, 0.13917, -0.13917, 0.99027, 449, -46}";
}
);
hints = (
{
horizontal = 1;
place = "{-28, 13}";
type = Stem;
}
);
layerId = "9E0C627C-9F9A-47B5-8A8C-706F30D5AE4A";
paths = (
{
closed = 1;
nodes = (
"1059 -176 OFFCURVE",
"1192 -149 OFFCURVE",
"1192 -53 CURVE SMOOTH",
"1192 -10 OFFCURVE",
"1160 38 OFFCURVE",
"1120 55 CURVE SMOOTH",
"1115 57 OFFCURVE",
"1104 61 OFFCURVE",
"1098 61 CURVE SMOOTH",
"1095 61 OFFCURVE",
"1086 58 OFFCURVE",
"1086 54 CURVE SMOOTH",
"1086 53 OFFCURVE",
"1088 52 OFFCURVE",
"1089 52 CURVE",
"1131 37 OFFCURVE",
"1161 -13 OFFCURVE",
"1161 -57 CURVE SMOOTH",
"1161 -123 OFFCURVE",
"1099 -141 OFFCURVE",
"1045 -141 CURVE SMOOTH",
"875 -141 OFFCURVE",
"629 1 OFFCURVE",
"484 81 CURVE",
"549 164 OFFCURVE",
"598 258 OFFCURVE",
"649 350 CURVE SMOOTH",
"716 473 OFFCURVE",
"788 667 OFFCURVE",
"940 703 CURVE SMOOTH",
"950 705 OFFCURVE",
"960 706 OFFCURVE",
"970 706 CURVE SMOOTH",
"1019 706 OFFCURVE",
"1082 683 OFFCURVE",
"1104 636 CURVE SMOOTH",
"1109 625 OFFCURVE",
"1110 616 OFFCURVE",
"1112 605 CURVE SMOOTH",
"1113 600 OFFCURVE",
"1115 597 OFFCURVE",
"1121 597 CURVE SMOOTH",
"1128 597 OFFCURVE",
"1130 602 OFFCURVE",
"1130 609 CURVE SMOOTH",
"1130 624 OFFCURVE",
"1125 642 OFFCURVE",
"1119 656 CURVE SMOOTH",
"1089 721 OFFCURVE",
"1018 750 OFFCURVE",
"950 750 CURVE SMOOTH",
"942 750 OFFCURVE",
"934 750 OFFCURVE",
"927 749 CURVE SMOOTH",
"756 729 OFFCURVE",
"670 541 OFFCURVE",
"597 407 CURVE SMOOTH",
"543 308 OFFCURVE",
"497 203 OFFCURVE",
"436 108 CURVE",
"379 139 OFFCURVE",
"323 172 OFFCURVE",
"266 203 CURVE SMOOTH",
"224 226 OFFCURVE",
"172 251 OFFCURVE",
"124 251 CURVE SMOOTH",
"54 251 OFFCURVE",
"9 192 OFFCURVE",
"9 125 CURVE SMOOTH",
"9 80 OFFCURVE",
"30 25 OFFCURVE",
"62 -8 CURVE SMOOTH",
"65 -11 OFFCURVE",
"70 -16 OFFCURVE",
"75 -16 CURVE SMOOTH",
"78 -16 OFFCURVE",
"80 -14 OFFCURVE",
"80 -11 CURVE SMOOTH",
"80 -7 OFFCURVE",
"77 -3 OFFCURVE",
"75 0 CURVE SMOOTH",
"54 32 OFFCURVE",
"45 91 OFFCURVE",
"45 128 CURVE SMOOTH",
"45 165 OFFCURVE",
"50 191 OFFCURVE",
"94 191 CURVE SMOOTH",
"171 191 OFFCURVE",
"325 92 OFFCURVE",
"397 51 CURVE",
"357 2 OFFCURVE",
"272 -72 OFFCURVE",
"206 -72 CURVE SMOOTH",
"178 -72 OFFCURVE",
"140 -62 OFFCURVE",
"140 -28 CURVE SMOOTH",
"140 -11 OFFCURVE",
"140 -2 OFFCURVE",
"148 14 CURVE SMOOTH",
"149 16 OFFCURVE",
"151 18 OFFCURVE",
"151 21 CURVE SMOOTH",
"151 25 OFFCURVE",
"147 26 OFFCURVE",
"144 26 CURVE SMOOTH",
"121 26 OFFCURVE",
"109 -4 OFFCURVE",
"109 -23 CURVE SMOOTH",
"109 -72 OFFCURVE",
"161 -90 OFFCURVE",
"202 -90 CURVE SMOOTH",
"297 -90 OFFCURVE",
"373 -38 OFFCURVE",
"437 28 CURVE",
"590 -56 OFFCURVE",
"808 -176 OFFCURVE",
"986 -176 CURVE SMOOTH"
);
},
{
closed = 1;
nodes = (
"494 304 OFFCURVE",
"504 322 OFFCURVE",
"507 327 CURVE SMOOTH",
"540 396 OFFCURVE",
"578 477 OFFCURVE",
"578 555 CURVE SMOOTH",
"578 582 OFFCURVE",
"574 626 OFFCURVE",
"537 626 CURVE SMOOTH",
"507 626 OFFCURVE",
"485 598 OFFCURVE",
"473 573 CURVE SMOOTH",
"472 571 OFFCURVE",
"471 569 OFFCURVE",
"471 567 CURVE SMOOTH",
"471 566 OFFCURVE",
"472 564 OFFCURVE",
"473 564 CURVE SMOOTH",
"480 564 OFFCURVE",
"480 579 OFFCURVE",
"495 579 CURVE SMOOTH",
"516 579 OFFCURVE",
"517 541 OFFCURVE",
"517 523 CURVE SMOOTH",
"517 460 OFFCURVE",
"506 392 OFFCURVE",
"490 331 CURVE SMOOTH",
"488 324 OFFCURVE",
"486 317 OFFCURVE",
"486 309 CURVE SMOOTH",
"486 308 OFFCURVE",
"486 304 OFFCURVE",
"488 304 CURVE SMOOTH"
);
}
);
width = 666;
}
);
unicode = 0141;
},
{
glyphname = M;
lastChange = "2021-11-27 15:47:13 +0000";
layers = (
{
hints = (
{
horizontal = 1;
place = "{-158, 37}";
type = Stem;
},
{
horizontal = 1;
place = "{-20, 21}";
target = up;
type = BottomGhost;
},
{
horizontal = 1;
place = "{78, 72}";
type = Stem;
},
{
horizontal = 1;
place = "{301, 9}";
type = Stem;
},
{
horizontal = 1;
place = "{466, 47}";
type = Stem;
},
{
horizontal = 1;
place = "{607, 46}";
type = Stem;
},
{
horizontal = 1;
place = "{715, 34}";
type = Stem;
},
{
place = "{1, 30}";
type = Stem;
},
{
place = "{134, 52}";
type = Stem;
},
{
place = "{693, 60}";
type = Stem;
},
{
place = "{908, 74}";
type = Stem;
},
{
horizontal = 1;
place = "{660, 39}";
type = Stem;
}
);
layerId = "9E0C627C-9F9A-47B5-8A8C-706F30D5AE4A";
paths = (
{
closed = 1;
nodes = (
"573 -158 OFFCURVE",
"796 241 OFFCURVE",
"969 512 CURVE",
"945 415 OFFCURVE",
"908 275 OFFCURVE",
"908 178 CURVE SMOOTH",
"908 140 OFFCURVE",
"913 78 OFFCURVE",
"964 78 CURVE SMOOTH",
"1074 78 OFFCURVE",
"1348 389 OFFCURVE",
"1430 483 CURVE",
"1431 485 OFFCURVE",
"1434 488 OFFCURVE",
"1437 488 CURVE SMOOTH",
"1440 488 OFFCURVE",
"1440 483 OFFCURVE",
"1440 481 CURVE SMOOTH",
"1440 472 OFFCURVE",
"1436 462 OFFCURVE",
"1431 454 CURVE SMOOTH",
"1415 427 OFFCURVE",
"1396 401 OFFCURVE",
"1379 375 CURVE SMOOTH",
"1314 276 OFFCURVE",
"1236 162 OFFCURVE",
"1197 50 CURVE SMOOTH",
"1194 41 OFFCURVE",
"1183 6 OFFCURVE",
"1183 -3 CURVE SMOOTH",
"1183 -15 OFFCURVE",
"1234 -20 OFFCURVE",
"1242 -20 CURVE SMOOTH",
"1260 -20 OFFCURVE",
"1277 -17 OFFCURVE",
"1286 0 CURVE SMOOTH",
"1291 10 OFFCURVE",
"1295 19 OFFCURVE",
"1301 28 CURVE SMOOTH",
"1344 86 OFFCURVE",
"1465 172 OFFCURVE",
"1532 202 CURVE",
"1532 205 OFFCURVE",
"1530 210 OFFCURVE",
"1526 210 CURVE SMOOTH",
"1524 210 OFFCURVE",
"1509 204 OFFCURVE",
"1508 204 CURVE",
"1456 184 OFFCURVE",
"1410 152 OFFCURVE",
"1364 120 CURVE SMOOTH",
"1354 113 OFFCURVE",
"1337 101 OFFCURVE",
"1325 101 CURVE SMOOTH",
"1317 101 OFFCURVE",
"1314 107 OFFCURVE",
"1314 114 CURVE SMOOTH",
"1314 130 OFFCURVE",
"1324 152 OFFCURVE",
"1330 166 CURVE SMOOTH",
"1389 307 OFFCURVE",
"1460 445 OFFCURVE",
"1548 570 CURVE SMOOTH",
"1568 597 OFFCURVE",
"1588 624 OFFCURVE",
"1609 650 CURVE SMOOTH",
"1649 695 LINE",
"1649 696 OFFCURVE",
"1650 697 OFFCURVE",
"1650 698 CURVE SMOOTH",
"1648 709 OFFCURVE",
"1603 726 OFFCURVE",
"1593 726 CURVE SMOOTH",
"1570 726 OFFCURVE",
"1532 663 OFFCURVE",
"1519 645 CURVE SMOOTH",
"1436 531 OFFCURVE",
"1342 426 OFFCURVE",
"1243 326 CURVE SMOOTH",
"1201 284 OFFCURVE",
"1081 150 OFFCURVE",
"1023 150 CURVE SMOOTH",
"984 150 OFFCURVE",
"982 204 OFFCURVE",
"982 231 CURVE SMOOTH",
"982 285 OFFCURVE",
"992 340 OFFCURVE",
"1003 392 CURVE SMOOTH",
"1019 464 OFFCURVE",
"1035 536 OFFCURVE",
"1054 607 CURVE",
"1097 609 OFFCURVE",
"1111 623 OFFCURVE",
"1143 647 CURVE SMOOTH",
"1147 650 OFFCURVE",
"1151 653 OFFCURVE",
"1151 658 CURVE SMOOTH",
"1151 660 OFFCURVE",
"1150 661 OFFCURVE",
"1148 661 CURVE SMOOTH",
"1144 661 OFFCURVE",
"1135 653 OFFCURVE",
"1116 653 CURVE SMOOTH",
"1100 653 OFFCURVE",
"1084 656 OFFCURVE",
"1068 659 CURVE",
"1068 659 OFFCURVE",
"1068 660 OFFCURVE",
"1067 660 CURVE SMOOTH",
"1066 660 LINE",
"1071 667 OFFCURVE",
"1101 707 OFFCURVE",
"1101 711 CURVE SMOOTH",
"1101 715 OFFCURVE",
"1098 716 OFFCURVE",
"1095 716 CURVE SMOOTH",
"1086 716 OFFCURVE",
"1083 699 OFFCURVE",
"1056 699 CURVE SMOOTH",
"1035 699 OFFCURVE",
"1001 701 OFFCURVE",
"992 677 CURVE",
"871 710 OFFCURVE",
"748 749 OFFCURVE",
"621 749 CURVE SMOOTH",
"432 749 OFFCURVE",
"134 662 OFFCURVE",
"134 427 CURVE SMOOTH",
"134 373 OFFCURVE",
"163 332 OFFCURVE",
"212 311 CURVE SMOOTH",
"225 305 OFFCURVE",
"240 301 OFFCURVE",
"255 301 CURVE SMOOTH",
"258 301 OFFCURVE",
"268 302 OFFCURVE",
"268 306 CURVE SMOOTH",
"268 310 OFFCURVE",
"263 310 OFFCURVE",
"261 310 CURVE SMOOTH",
"194 310 OFFCURVE",
"186 398 OFFCURVE",
"186 447 CURVE SMOOTH",
"186 636 OFFCURVE",
"389 715 OFFCURVE",
"550 715 CURVE SMOOTH",
"694 715 OFFCURVE",
"827 663 OFFCURVE",
"962 622 CURVE",
"840 401 OFFCURVE",
"611 -4 OFFCURVE",
"373 -103 CURVE SMOOTH",
"341 -116 OFFCURVE",
"301 -121 OFFCURVE",
"267 -121 CURVE SMOOTH",
"160 -121 OFFCURVE",
"48 -72 OFFCURVE",
"31 45 CURVE",
"31 54 LINE SMOOTH",
"31 86 OFFCURVE",
"54 102 OFFCURVE",
"54 108 CURVE SMOOTH",
"54 110 OFFCURVE",
"52 111 OFFCURVE",
"51 111 CURVE SMOOTH",
"48 111 OFFCURVE",
"45 109 OFFCURVE",
"43 107 CURVE SMOOTH",
"15 83 OFFCURVE",
"1 32 OFFCURVE",
"1 -4 CURVE SMOOTH",
"1 -113 OFFCURVE",
"112 -158 OFFCURVE",
"205 -158 CURVE SMOOTH"
);
},
{
closed = 1;
nodes = (
"669 191 OFFCURVE",
"680 209 OFFCURVE",
"682 214 CURVE SMOOTH",
"715 283 OFFCURVE",
"753 364 OFFCURVE",
"753 442 CURVE SMOOTH",
"753 469 OFFCURVE",
"749 513 OFFCURVE",
"713 513 CURVE SMOOTH",
"683 513 OFFCURVE",
"660 485 OFFCURVE",
"648 460 CURVE SMOOTH",
"647 458 OFFCURVE",
"646 456 OFFCURVE",
"646 454 CURVE SMOOTH",
"646 453 OFFCURVE",
"647 451 OFFCURVE",
"649 451 CURVE SMOOTH",
"655 451 OFFCURVE",
"656 466 OFFCURVE",
"670 466 CURVE SMOOTH",
"693 466 OFFCURVE",
"693 421 OFFCURVE",
"693 406 CURVE SMOOTH",
"693 344 OFFCURVE",
"681 278 OFFCURVE",
"665 218 CURVE",
"664 211 OFFCURVE",
"661 204 OFFCURVE",
"661 196 CURVE SMOOTH",
"661 195 OFFCURVE",
"661 191 OFFCURVE",
"664 191 CURVE SMOOTH"
);
}
);
width = 1409;
}
);
note = M;
unicode = 004D;
},
{
glyphname = N;
lastChange = "2021-11-27 15:47:13 +0000";
layers = (
{
hints = (
{
horizontal = 1;
place = "{272, 36}";
type = Stem;
},
{
horizontal = 1;
place = "{631, 38}";
type = Stem;
}
);
layerId = "9E0C627C-9F9A-47B5-8A8C-706F30D5AE4A";
paths = (
{
closed = 1;
nodes = (
"217 -130 OFFCURVE",
"239 -129 OFFCURVE",
"259 -125 CURVE SMOOTH",
"504 -79 OFFCURVE",
"713 246 OFFCURVE",
"808 456 CURVE",
"827 412 OFFCURVE",
"844 367 OFFCURVE",
"863 322 CURVE SMOOTH",
"914 196 OFFCURVE",
"985 11 OFFCURVE",
"1067 -94 CURVE SMOOTH",
"1083 -114 OFFCURVE",
"1104 -126 OFFCURVE",
"1130 -126 CURVE SMOOTH",
"1175 -126 OFFCURVE",
"1214 -92 OFFCURVE",
"1229 -51 CURVE SMOOTH",
"1230 -47 OFFCURVE",
"1234 -33 OFFCURVE",
"1234 -29 CURVE SMOOTH",
"1234 -24 OFFCURVE",
"1232 -21 OFFCURVE",
"1227 -21 CURVE SMOOTH",
"1213 -21 OFFCURVE",
"1221 -85 OFFCURVE",
"1176 -85 CURVE SMOOTH",
"1124 -85 OFFCURVE",
"1078 11 OFFCURVE",
"1058 52 CURVE",
"1117 212 OFFCURVE",
"1294 655 OFFCURVE",
"1471 701 CURVE SMOOTH",
"1488 705 OFFCURVE",
"1507 706 OFFCURVE",
"1524 706 CURVE SMOOTH",
"1553 706 OFFCURVE",
"1616 701 OFFCURVE",
"1616 661 CURVE SMOOTH",
"1616 654 OFFCURVE",
"1612 647 OFFCURVE",
"1612 640 CURVE SMOOTH",
"1612 639 OFFCURVE",
"1613 637 OFFCURVE",
"1614 637 CURVE SMOOTH",
"1624 637 OFFCURVE",
"1633 676 OFFCURVE",
"1633 684 CURVE SMOOTH",
"1633 727 OFFCURVE",
"1580 735 OFFCURVE",
"1547 735 CURVE SMOOTH",
"1430 735 OFFCURVE",
"1330 667 OFFCURVE",
"1264 575 CURVE SMOOTH",
"1163 432 OFFCURVE",
"1084 273 OFFCURVE",
"1032 105 CURVE",
"992 192 OFFCURVE",
"956 280 OFFCURVE",
"915 366 CURVE SMOOTH",
"889 421 OFFCURVE",
"867 477 OFFCURVE",
"840 532 CURVE",
"849 553 OFFCURVE",
"880 640 OFFCURVE",
"880 659 CURVE SMOOTH",
"880 665 OFFCURVE",
"877 669 OFFCURVE",
"871 669 CURVE SMOOTH",
"867 669 OFFCURVE",
"860 667 OFFCURVE",
"858 663 CURVE SMOOTH",
"854 655 OFFCURVE",
"852 645 OFFCURVE",
"849 636 CURVE SMOOTH",
"822 569 LINE",
"776 655 OFFCURVE",
"711 738 OFFCURVE",
"604 738 CURVE SMOOTH",
"449 738 OFFCURVE",
"394 634 OFFCURVE",
"394 492 CURVE SMOOTH",
"394 458 OFFCURVE",
"398 425 OFFCURVE",
"408 392 CURVE SMOOTH",
"427 325 OFFCURVE",
"477 245 OFFCURVE",
"556 245 CURVE SMOOTH",
"567 245 OFFCURVE",
"620 254 OFFCURVE",
"620 268 CURVE SMOOTH",
"620 272 OFFCURVE",
"617 275 OFFCURVE",
"614 275 CURVE SMOOTH",
"607 275 OFFCURVE",
"596 266 OFFCURVE",
"580 266 CURVE SMOOTH",
"507 266 OFFCURVE",
"451 382 OFFCURVE",
"434 440 CURVE SMOOTH",
"424 473 OFFCURVE",
"418 506 OFFCURVE",
"418 540 CURVE SMOOTH",
"418 624 OFFCURVE",
"462 712 OFFCURVE",
"557 712 CURVE SMOOTH",
"673 712 OFFCURVE",
"746 589 OFFCURVE",
"790 497 CURVE",
"693 291 OFFCURVE",
"497 -41 OFFCURVE",
"261 -102 CURVE SMOOTH",
"245 -106 OFFCURVE",
"229 -108 OFFCURVE",
"213 -108 CURVE SMOOTH",
"149 -108 OFFCURVE",
"84 -66 OFFCURVE",
"84 4 CURVE SMOOTH",
"84 61 OFFCURVE",
"123 114 OFFCURVE",
"164 150 CURVE SMOOTH",
"188 170 OFFCURVE",
"220 191 OFFCURVE",
"250 201 CURVE SMOOTH",
"256 203 OFFCURVE",
"263 203 OFFCURVE",
"269 205 CURVE SMOOTH",
"276 208 OFFCURVE",
"297 225 OFFCURVE",
"297 233 CURVE SMOOTH",
"297 234 OFFCURVE",
"296 234 OFFCURVE",
"295 234 CURVE SMOOTH",
"266 234 OFFCURVE",
"171 180 OFFCURVE",
"146 163 CURVE SMOOTH",
"90 123 OFFCURVE",
"31 56 OFFCURVE",
"31 -17 CURVE SMOOTH",
"31 -107 OFFCURVE",
"123 -130 OFFCURVE",
"196 -130 CURVE SMOOTH"
);
},
{
closed = 1;
nodes = (
"888 140 OFFCURVE",
"888 147 OFFCURVE",
"888 148 CURVE SMOOTH",
"888 153 OFFCURVE",
"887 157 OFFCURVE",
"886 161 CURVE SMOOTH",
"873 207 OFFCURVE",
"859 266 OFFCURVE",
"819 296 CURVE SMOOTH",
"812 301 OFFCURVE",
"804 305 OFFCURVE",
"796 305 CURVE SMOOTH",
"771 305 OFFCURVE",
"758 274 OFFCURVE",
"758 254 CURVE SMOOTH",
"758 249 OFFCURVE",
"759 231 OFFCURVE",
"764 229 CURVE",
"766 230 OFFCURVE",
"766 233 OFFCURVE",
"766 234 CURVE SMOOTH",
"766 244 OFFCURVE",
"769 255 OFFCURVE",
"781 255 CURVE SMOOTH",
"811 255 OFFCURVE",
"862 177 OFFCURVE",
"875 152 CURVE",
"877 150 OFFCURVE",
"882 140 OFFCURVE",
"885 140 CURVE SMOOTH"
);
}
);
width = 1211;
}
);
note = N;
unicode = 004E;
},
{
glyphname = Eng;
lastChange = "2021-11-27 15:47:14 +0000";
layers = (
{
hints = (
{
horizontal = 1;
place = "{272, 36}";
type = Stem;
},
{
horizontal = 1;
place = "{631, 38}";
type = Stem;
},
{
horizontal = 1;
place = "{-271, 21}";
type = Stem;
},
{
horizontal = 1;
place = "{353, -20}";
target = down;
type = TopGhost;
},
{
horizontal = 1;
place = "{396, 67}";
type = Stem;
},
{
place = "{-385, 33}";
type = Stem;
},
{
place = "{155, 75}";
type = Stem;
}
);
layerId = "9E0C627C-9F9A-47B5-8A8C-706F30D5AE4A";
paths = (
{
closed = 1;
nodes = (
"1430 735 OFFCURVE",
"1330 667 OFFCURVE",
"1264 575 CURVE SMOOTH",
"1163 432 OFFCURVE",
"1084 273 OFFCURVE",
"1032 105 CURVE",
"992 192 OFFCURVE",
"956 280 OFFCURVE",
"915 366 CURVE SMOOTH",
"889 421 OFFCURVE",
"867 477 OFFCURVE",
"840 532 CURVE",
"849 553 OFFCURVE",
"880 640 OFFCURVE",
"880 659 CURVE SMOOTH",
"880 665 OFFCURVE",
"877 669 OFFCURVE",
"871 669 CURVE SMOOTH",
"867 669 OFFCURVE",
"860 667 OFFCURVE",
"858 663 CURVE SMOOTH",
"854 655 OFFCURVE",
"852 645 OFFCURVE",
"849 636 CURVE SMOOTH",
"822 569 LINE",
"776 655 OFFCURVE",
"711 738 OFFCURVE",
"604 738 CURVE SMOOTH",
"449 738 OFFCURVE",
"394 634 OFFCURVE",
"394 492 CURVE SMOOTH",
"394 458 OFFCURVE",
"398 425 OFFCURVE",
"408 392 CURVE SMOOTH",
"427 325 OFFCURVE",
"477 245 OFFCURVE",
"556 245 CURVE SMOOTH",
"567 245 OFFCURVE",
"620 254 OFFCURVE",
"620 268 CURVE SMOOTH",
"620 272 OFFCURVE",
"617 275 OFFCURVE",
"614 275 CURVE SMOOTH",
"607 275 OFFCURVE",
"596 266 OFFCURVE",
"580 266 CURVE SMOOTH",
"507 266 OFFCURVE",
"451 382 OFFCURVE",
"434 440 CURVE SMOOTH",
"424 473 OFFCURVE",
"418 506 OFFCURVE",
"418 540 CURVE SMOOTH",
"418 624 OFFCURVE",
"462 712 OFFCURVE",
"557 712 CURVE SMOOTH",
"673 712 OFFCURVE",
"746 589 OFFCURVE",
"790 497 CURVE",
"693 291 OFFCURVE",
"497 -41 OFFCURVE",
"261 -102 CURVE SMOOTH",
"245 -106 OFFCURVE",
"229 -108 OFFCURVE",
"213 -108 CURVE SMOOTH",
"149 -108 OFFCURVE",
"84 -66 OFFCURVE",
"84 4 CURVE SMOOTH",
"84 61 OFFCURVE",
"123 114 OFFCURVE",
"164 150 CURVE SMOOTH",
"188 170 OFFCURVE",
"220 191 OFFCURVE",
"250 201 CURVE SMOOTH",
"256 203 OFFCURVE",
"263 203 OFFCURVE",
"269 205 CURVE SMOOTH",
"276 208 OFFCURVE",
"297 225 OFFCURVE",
"297 233 CURVE SMOOTH",
"297 234 OFFCURVE",
"296 234 OFFCURVE",
"295 234 CURVE SMOOTH",
"266 234 OFFCURVE",
"171 180 OFFCURVE",
"146 163 CURVE SMOOTH",
"90 123 OFFCURVE",
"31 56 OFFCURVE",
"31 -17 CURVE SMOOTH",
"31 -107 OFFCURVE",
"123 -130 OFFCURVE",
"196 -130 CURVE SMOOTH",
"217 -130 OFFCURVE",
"239 -129 OFFCURVE",
"259 -125 CURVE SMOOTH",
"504 -79 OFFCURVE",
"713 246 OFFCURVE",
"808 456 CURVE",
"827 412 OFFCURVE",
"844 367 OFFCURVE",
"863 322 CURVE SMOOTH",
"900 230 OFFCURVE",
"957 129 OFFCURVE",
"996 29 CURVE",
"948 -90 OFFCURVE",
"814 -286 OFFCURVE",
"747 -295 CURVE",
"740 -297 OFFCURVE",
"733 -297 OFFCURVE",
"725 -297 CURVE SMOOTH",
"661 -297 OFFCURVE",
"633 -241 OFFCURVE",
"629 -185 CURVE SMOOTH",
"629 -182 OFFCURVE",
"629 -174 OFFCURVE",
"625 -174 CURVE SMOOTH",
"609 -174 OFFCURVE",
"600 -238 OFFCURVE",
"600 -251 CURVE SMOOTH",
"604 -303 OFFCURVE",
"647 -318 OFFCURVE",
"692 -318 CURVE SMOOTH",
"825 -318 OFFCURVE",
"911 -228 OFFCURVE",
"976 -121 CURVE SMOOTH",
"999 -82 OFFCURVE",
"1022 -43 OFFCURVE",
"1058 52 CURVE SMOOTH",
"1117 212 OFFCURVE",
"1294 655 OFFCURVE",
"1471 701 CURVE SMOOTH",
"1488 705 OFFCURVE",
"1507 706 OFFCURVE",
"1524 706 CURVE SMOOTH",
"1553 706 OFFCURVE",
"1616 701 OFFCURVE",
"1616 661 CURVE SMOOTH",
"1616 654 OFFCURVE",
"1612 647 OFFCURVE",
"1612 640 CURVE SMOOTH",
"1612 639 OFFCURVE",
"1613 637 OFFCURVE",
"1614 637 CURVE SMOOTH",
"1624 637 OFFCURVE",
"1633 676 OFFCURVE",
"1633 684 CURVE SMOOTH",
"1633 727 OFFCURVE",
"1580 735 OFFCURVE",
"1547 735 CURVE SMOOTH"
);
},
{
closed = 1;
nodes = (
"766 244 OFFCURVE",
"769 255 OFFCURVE",
"781 255 CURVE SMOOTH",
"811 255 OFFCURVE",
"862 177 OFFCURVE",
"875 152 CURVE",
"877 150 OFFCURVE",
"882 140 OFFCURVE",
"885 140 CURVE SMOOTH",
"888 140 OFFCURVE",
"888 147 OFFCURVE",
"888 148 CURVE SMOOTH",
"888 153 OFFCURVE",
"887 157 OFFCURVE",
"886 161 CURVE SMOOTH",
"873 207 OFFCURVE",
"859 266 OFFCURVE",
"819 296 CURVE SMOOTH",
"812 301 OFFCURVE",
"804 305 OFFCURVE",
"796 305 CURVE SMOOTH",
"771 305 OFFCURVE",
"758 274 OFFCURVE",
"758 254 CURVE SMOOTH",
"758 249 OFFCURVE",
"759 231 OFFCURVE",
"764 229 CURVE",
"766 230 OFFCURVE",
"766 233 OFFCURVE",
"766 234 CURVE SMOOTH"
);
}
);
width = 1151;
}
);
unicode = 014A;
},
{
glyphname = O;
lastChange = "2021-11-27 15:47:13 +0000";
layers = (
{
hints = (
{
horizontal = 1;
place = "{-9, 25}";
type = Stem;
}
);
layerId = "9E0C627C-9F9A-47B5-8A8C-706F30D5AE4A";
paths = (
{
closed = 1;
nodes = (
"302 -45 OFFCURVE",
"374 -25 OFFCURVE",
"437 0 CURVE SMOOTH",
"520 32 OFFCURVE",
"610 96 OFFCURVE",
"677 153 CURVE",
"703 155 OFFCURVE",
"730 157 OFFCURVE",
"755 164 CURVE SMOOTH",
"758 165 OFFCURVE",
"761 167 OFFCURVE",
"761 171 CURVE SMOOTH",
"761 177 OFFCURVE",
"757 178 OFFCURVE",
"752 178 CURVE SMOOTH",
"743 178 OFFCURVE",
"710 171 OFFCURVE",
"696 170 CURVE",
"776 242 OFFCURVE",
"880 357 OFFCURVE",
"880 472 CURVE SMOOTH",
"880 611 OFFCURVE",
"713 654 OFFCURVE",
"603 670 CURVE",
"658 688 OFFCURVE",
"715 699 OFFCURVE",
"772 699 CURVE SMOOTH",
"826 699 OFFCURVE",
"912 692 OFFCURVE",
"912 619 CURVE SMOOTH",
"912 589 OFFCURVE",
"892 572 OFFCURVE",
"892 566 CURVE SMOOTH",
"892 562 OFFCURVE",
"895 558 OFFCURVE",
"900 558 CURVE SMOOTH",
"915 558 OFFCURVE",
"927 605 OFFCURVE",
"927 619 CURVE SMOOTH",
"927 671 OFFCURVE",
"886 700 OFFCURVE",
"840 708 CURVE SMOOTH",
"801 715 OFFCURVE",
"760 718 OFFCURVE",
"720 718 CURVE SMOOTH",
"644 718 OFFCURVE",
"567 706 OFFCURVE",
"495 681 CURVE",
"463 681 LINE SMOOTH",
"409 681 OFFCURVE",
"356 676 OFFCURVE",
"303 666 CURVE SMOOTH",
"209 647 OFFCURVE",
"39 589 OFFCURVE",
"39 470 CURVE SMOOTH",
"39 421 OFFCURVE",
"68 378 OFFCURVE",
"101 344 CURVE",
"67 282 OFFCURVE",
"35 213 OFFCURVE",
"35 140 CURVE SMOOTH",
"35 19 OFFCURVE",
"117 -45 OFFCURVE",
"234 -45 CURVE SMOOTH"
);
},
{
closed = 1;
nodes = (
"110 405 OFFCURVE",
"97 433 OFFCURVE",
"97 461 CURVE SMOOTH",
"97 557 OFFCURVE",
"222 613 OFFCURVE",
"299 633 CURVE SMOOTH",
"341 644 OFFCURVE",
"383 650 OFFCURVE",
"425 652 CURVE",
"301 593 OFFCURVE",
"197 497 OFFCURVE",
"124 382 CURVE"
);
},
{
closed = 1;
nodes = (
"474 175 OFFCURVE",
"273 224 OFFCURVE",
"166 329 CURVE",
"252 466 OFFCURVE",
"396 585 OFFCURVE",
"545 648 CURVE",
"636 638 OFFCURVE",
"795 628 OFFCURVE",
"795 504 CURVE SMOOTH",
"795 397 OFFCURVE",
"691 245 OFFCURVE",
"620 168 CURVE"
);
},
{
closed = 1;
nodes = (
"349 274 OFFCURVE",
"352 274 OFFCURVE",
"354 275 CURVE SMOOTH",
"374 282 OFFCURVE",
"391 290 OFFCURVE",
"412 293 CURVE SMOOTH",
"425 295 OFFCURVE",
"488 303 OFFCURVE",
"496 309 CURVE SMOOTH",
"499 311 OFFCURVE",
"504 314 OFFCURVE",
"504 318 CURVE SMOOTH",
"504 323 OFFCURVE",
"477 334 OFFCURVE",
"471 339 CURVE SMOOTH",
"461 349 OFFCURVE",
"458 359 OFFCURVE",
"452 370 CURVE SMOOTH",
"450 374 OFFCURVE",
"449 376 OFFCURVE",
"445 376 CURVE SMOOTH",
"424 376 OFFCURVE",
"341 301 OFFCURVE",
"341 280 CURVE SMOOTH",
"341 276 OFFCURVE",
"343 274 OFFCURVE",
"347 274 CURVE SMOOTH"
);
},
{
closed = 1;
nodes = (
"177 -13 OFFCURVE",
"95 27 OFFCURVE",
"95 128 CURVE SMOOTH",
"95 187 OFFCURVE",
"122 251 OFFCURVE",
"150 302 CURVE",
"272 211 OFFCURVE",
"453 157 OFFCURVE",
"603 151 CURVE",
"513 60 OFFCURVE",
"400 -13 OFFCURVE",
"267 -13 CURVE SMOOTH"
);
}
);
width = 760;
}
);
note = O;
unicode = 004F;
},
{
glyphname = Oslash;
lastChange = "2021-11-27 15:47:14 +0000";
layers = (
{
hints = (
{
horizontal = 1;
place = "{-9, 25}";
type = Stem;
}
);
layerId = "9E0C627C-9F9A-47B5-8A8C-706F30D5AE4A";
paths = (
{
closed = 1;
nodes = (
"302 -45 OFFCURVE",
"374 -25 OFFCURVE",
"437 0 CURVE SMOOTH",
"520 32 OFFCURVE",
"610 96 OFFCURVE",
"677 153 CURVE",
"702 155 OFFCURVE",
"730 157 OFFCURVE",
"755 164 CURVE SMOOTH",
"758 165 OFFCURVE",
"761 167 OFFCURVE",
"761 171 CURVE SMOOTH",
"761 177 OFFCURVE",
"757 178 OFFCURVE",
"752 178 CURVE SMOOTH",
"743 178 OFFCURVE",
"710 171 OFFCURVE",
"696 170 CURVE",
"776 242 OFFCURVE",
"880 357 OFFCURVE",
"880 472 CURVE SMOOTH",
"880 611 OFFCURVE",
"713 654 OFFCURVE",
"603 670 CURVE",
"658 688 OFFCURVE",
"715 699 OFFCURVE",
"772 699 CURVE SMOOTH",
"826 699 OFFCURVE",
"912 692 OFFCURVE",
"912 619 CURVE SMOOTH",
"912 589 OFFCURVE",
"892 572 OFFCURVE",
"892 566 CURVE SMOOTH",
"892 562 OFFCURVE",
"895 558 OFFCURVE",
"899 558 CURVE SMOOTH",
"915 558 OFFCURVE",
"927 605 OFFCURVE",
"927 619 CURVE SMOOTH",
"927 671 OFFCURVE",
"886 700 OFFCURVE",
"840 708 CURVE SMOOTH",
"801 715 OFFCURVE",
"760 718 OFFCURVE",
"720 718 CURVE SMOOTH",
"644 718 OFFCURVE",
"567 706 OFFCURVE",
"495 681 CURVE",
"463 681 LINE SMOOTH",
"409 681 OFFCURVE",
"356 676 OFFCURVE",
"303 666 CURVE SMOOTH",
"209 647 OFFCURVE",
"39 589 OFFCURVE",
"39 470 CURVE SMOOTH",
"39 421 OFFCURVE",
"68 378 OFFCURVE",
"101 344 CURVE",
"67 282 OFFCURVE",
"35 213 OFFCURVE",
"35 140 CURVE SMOOTH",
"35 19 OFFCURVE",
"117 -45 OFFCURVE",
"234 -45 CURVE SMOOTH"
);
},
{
closed = 1;
nodes = (
"110 405 OFFCURVE",
"97 433 OFFCURVE",
"97 461 CURVE SMOOTH",
"97 557 OFFCURVE",
"222 613 OFFCURVE",
"299 633 CURVE SMOOTH",
"341 644 OFFCURVE",
"383 650 OFFCURVE",
"425 652 CURVE",
"301 593 OFFCURVE",
"197 497 OFFCURVE",
"124 382 CURVE"
);
},
{
closed = 1;
nodes = (
"474 175 OFFCURVE",
"273 224 OFFCURVE",
"166 329 CURVE",
"252 466 OFFCURVE",
"396 585 OFFCURVE",
"545 648 CURVE",
"636 638 OFFCURVE",
"795 628 OFFCURVE",
"795 504 CURVE SMOOTH",
"795 397 OFFCURVE",
"691 245 OFFCURVE",
"620 168 CURVE"
);
},
{
closed = 1;
nodes = (
"349 274 OFFCURVE",
"352 274 OFFCURVE",
"354 275 CURVE SMOOTH",
"374 282 OFFCURVE",
"391 290 OFFCURVE",
"412 293 CURVE SMOOTH",
"425 295 OFFCURVE",
"488 303 OFFCURVE",
"496 309 CURVE SMOOTH",
"499 311 OFFCURVE",
"504 314 OFFCURVE",
"504 318 CURVE SMOOTH",
"504 323 OFFCURVE",
"477 334 OFFCURVE",
"471 339 CURVE SMOOTH",
"461 349 OFFCURVE",
"458 359 OFFCURVE",
"452 370 CURVE SMOOTH",
"450 374 OFFCURVE",
"449 376 OFFCURVE",
"445 376 CURVE SMOOTH",
"424 376 OFFCURVE",
"341 301 OFFCURVE",
"341 280 CURVE SMOOTH",
"341 276 OFFCURVE",
"343 274 OFFCURVE",
"347 274 CURVE SMOOTH"
);
},
{
closed = 1;
nodes = (
"177 -13 OFFCURVE",
"95 27 OFFCURVE",
"95 128 CURVE SMOOTH",
"95 187 OFFCURVE",
"122 251 OFFCURVE",
"150 302 CURVE",
"272 211 OFFCURVE",
"453 157 OFFCURVE",
"603 151 CURVE",
"513 60 OFFCURVE",
"400 -13 OFFCURVE",
"267 -13 CURVE SMOOTH"
);
}
);
width = 760;
}
);
note = Oslash;
unicode = 00D8;
},
{
glyphname = OE;
lastChange = "2021-11-27 15:47:14 +0000";
layers = (
{
hints = (
{
horizontal = 1;
place = "{-34, 45}";
type = Stem;
},
{
horizontal = 1;
place = "{308, 60}";
type = Stem;
},
{
place = "{-103, 54}";
type = Stem;
},
{
place = "{35, 60}";
type = Stem;
},
{
place = "{795, 85}";
type = Stem;
},
{
place = "{1074, 48}";
type = Stem;
},
{
place = "{1192, 27}";
type = Stem;
}
);
layerId = "9E0C627C-9F9A-47B5-8A8C-706F30D5AE4A";
paths = (
{
closed = 1;
nodes = (
"1207 -108 OFFCURVE",
"1218 -58 OFFCURVE",
"1218 -41 CURVE SMOOTH",
"1218 44 OFFCURVE",
"1059 46 OFFCURVE",
"991 46 CURVE SMOOTH",
"829 46 OFFCURVE",
"668 11 OFFCURVE",
"506 11 CURVE SMOOTH",
"492 11 OFFCURVE",
"479 12 OFFCURVE",
"466 12 CURVE",
"591 70 OFFCURVE",
"740 192 OFFCURVE",
"818 305 CURVE",
"851 305 LINE SMOOTH",
"905 305 OFFCURVE",
"959 308 OFFCURVE",
"1013 308 CURVE SMOOTH",
"1028 308 OFFCURVE",
"1074 308 OFFCURVE",
"1074 285 CURVE SMOOTH",
"1074 270 OFFCURVE",
"1058 270 OFFCURVE",
"1058 263 CURVE SMOOTH",
"1058 262 OFFCURVE",
"1059 261 OFFCURVE",
"1061 261 CURVE SMOOTH",
"1063 261 OFFCURVE",
"1065 262 OFFCURVE",
"1067 263 CURVE SMOOTH",
"1091 274 OFFCURVE",
"1122 295 OFFCURVE",
"1122 325 CURVE SMOOTH",
"1122 364 OFFCURVE",
"1075 368 OFFCURVE",
"1046 368 CURVE SMOOTH",
"969 368 OFFCURVE",
"903 334 OFFCURVE",
"829 321 CURVE",
"857 365 OFFCURVE",
"880 419 OFFCURVE",
"880 472 CURVE SMOOTH",
"880 533 OFFCURVE",
"848 578 OFFCURVE",
"797 609 CURVE",
"904 589 OFFCURVE",
"1013 569 OFFCURVE",
"1118 538 CURVE SMOOTH",
"1144 530 OFFCURVE",
"1172 524 OFFCURVE",
"1200 524 CURVE SMOOTH",
"1247 524 OFFCURVE",
"1262 539 OFFCURVE",
"1296 564 CURVE SMOOTH",
"1300 567 OFFCURVE",
"1303 570 OFFCURVE",
"1303 575 CURVE SMOOTH",
"1303 577 OFFCURVE",
"1303 578 OFFCURVE",
"1301 578 CURVE SMOOTH",
"1297 578 OFFCURVE",
"1288 570 OFFCURVE",
"1269 570 CURVE SMOOTH",
"1260 570 LINE SMOOTH",
"1239 572 OFFCURVE",
"1216 579 OFFCURVE",
"1195 584 CURVE SMOOTH",
"1170 590 OFFCURVE",
"1145 596 OFFCURVE",
"1120 601 CURVE SMOOTH",
"976 629 OFFCURVE",
"832 654 OFFCURVE",
"688 677 CURVE SMOOTH",
"668 680 OFFCURVE",
"647 682 OFFCURVE",
"627 684 CURVE",
"635 689 OFFCURVE",
"666 707 OFFCURVE",
"666 718 CURVE SMOOTH",
"666 725 OFFCURVE",
"655 725 OFFCURVE",
"651 725 CURVE SMOOTH",
"619 725 OFFCURVE",
"555 703 OFFCURVE",
"525 692 CURVE",
"505 693 OFFCURVE",
"485 693 OFFCURVE",
"465 693 CURVE SMOOTH",
"367 693 OFFCURVE",
"267 685 OFFCURVE",
"171 663 CURVE SMOOTH",
"30 631 OFFCURVE",
"-101 540 OFFCURVE",
"-103 386 CURVE SMOOTH",
"-103 381 LINE SMOOTH",
"-104 327 OFFCURVE",
"-74 286 OFFCURVE",
"-25 265 CURVE SMOOTH",
"-12 259 OFFCURVE",
"3 255 OFFCURVE",
"18 255 CURVE SMOOTH",
"21 255 OFFCURVE",
"31 256 OFFCURVE",
"31 260 CURVE SMOOTH",
"31 264 OFFCURVE",
"26 264 OFFCURVE",
"24 264 CURVE SMOOTH",
"-43 264 OFFCURVE",
"-51 352 OFFCURVE",
"-51 401 CURVE SMOOTH",
"-51 605 OFFCURVE",
"197 667 OFFCURVE",
"361 667 CURVE SMOOTH",
"390 667 OFFCURVE",
"420 666 OFFCURVE",
"450 663 CURVE",
"269 586 OFFCURVE",
"132 435 OFFCURVE",
"58 254 CURVE SMOOTH",
"44 218 OFFCURVE",
"35 179 OFFCURVE",
"35 140 CURVE SMOOTH",
"35 19 OFFCURVE",
"117 -45 OFFCURVE",
"234 -45 CURVE SMOOTH",
"285 -45 OFFCURVE",
"337 -34 OFFCURVE",
"386 -18 CURVE",
"426 -31 OFFCURVE",
"471 -34 OFFCURVE",
"513 -34 CURVE SMOOTH",
"574 -34 OFFCURVE",
"634 -27 OFFCURVE",
"695 -23 CURVE SMOOTH",
"767 -18 OFFCURVE",
"840 -14 OFFCURVE",
"913 -14 CURVE SMOOTH",
"960 -14 OFFCURVE",
"1008 -16 OFFCURVE",
"1055 -20 CURVE SMOOTH",
"1086 -23 OFFCURVE",
"1191 -23 OFFCURVE",
"1191 -71 CURVE SMOOTH",
"1191 -84 OFFCURVE",
"1182 -101 OFFCURVE",
"1182 -105 CURVE SMOOTH",
"1182 -107 OFFCURVE",
"1184 -108 OFFCURVE",
"1185 -108 CURVE SMOOTH"
);
},
{
closed = 1;
nodes = (
"177 -13 OFFCURVE",
"95 27 OFFCURVE",
"95 128 CURVE SMOOTH",
"95 166 OFFCURVE",
"106 204 OFFCURVE",
"120 239 CURVE SMOOTH",
"192 417 OFFCURVE",
"371 574 OFFCURVE",
"545 648 CURVE",
"636 638 OFFCURVE",
"795 628 OFFCURVE",
"795 504 CURVE SMOOTH",
"795 469 OFFCURVE",
"784 433 OFFCURVE",
"771 401 CURVE SMOOTH",
"712 252 OFFCURVE",
"564 78 OFFCURVE",
"414 17 CURVE",
"372 24 OFFCURVE",
"325 35 OFFCURVE",
"309 79 CURVE",
"307 82 OFFCURVE",
"306 87 OFFCURVE",
"302 87 CURVE SMOOTH",
"295 87 OFFCURVE",
"294 80 OFFCURVE",
"294 75 CURVE SMOOTH",
"294 70 OFFCURVE",
"295 67 OFFCURVE",
"297 62 CURVE SMOOTH",
"306 34 OFFCURVE",
"325 12 OFFCURVE",
"350 -3 CURVE",
"323 -9 OFFCURVE",
"295 -13 OFFCURVE",
"267 -13 CURVE SMOOTH"
);
}
);
width = 1251;
}
);
note = OE;
unicode = 0152;
},
{
glyphname = P;
lastChange = "2021-11-27 15:47:13 +0000";
layers = (
{
hints = (
{
horizontal = 1;
place = "{-90, 18}";
type = Stem;
},
{
horizontal = 1;
place = "{184, 16}";
type = Stem;
},
{
horizontal = 1;
place = "{718, 37}";
type = Stem;
},
{
place = "{1, 45}";
type = Stem;
},
{
place = "{333, 60}";
type = Stem;
},
{
place = "{938, 73}";
type = Stem;
},
{
horizontal = 1;
place = "{737, 23}";
type = Stem;
},
{
place = "{972, 18}";
type = Stem;
},
{
place = "{-15, 24}";
type = Stem;
}
);
layerId = "9E0C627C-9F9A-47B5-8A8C-706F30D5AE4A";
paths = (
{
closed = 1;
nodes = (
"156 -90 OFFCURVE",
"222 -55 OFFCURVE",
"280 -4 CURVE SMOOTH",
"380 85 OFFCURVE",
"449 212 OFFCURVE",
"505 332 CURVE SMOOTH",
"546 420 OFFCURVE",
"615 579 OFFCURVE",
"679 648 CURVE",
"784 608 OFFCURVE",
"938 527 OFFCURVE",
"938 396 CURVE SMOOTH",
"938 267 OFFCURVE",
"732 200 OFFCURVE",
"627 200 CURVE SMOOTH",
"605 200 OFFCURVE",
"584 206 OFFCURVE",
"562 206 CURVE SMOOTH",
"559 206 OFFCURVE",
"543 206 OFFCURVE",
"543 198 CURVE SMOOTH",
"543 185 OFFCURVE",
"602 184 OFFCURVE",
"612 184 CURVE SMOOTH",
"736 184 OFFCURVE",
"1011 257 OFFCURVE",
"1011 415 CURVE SMOOTH",
"1011 556 OFFCURVE",
"833 645 OFFCURVE",
"721 687 CURVE",
"761 719 OFFCURVE",
"809 737 OFFCURVE",
"861 737 CURVE SMOOTH",
"896 737 OFFCURVE",
"972 729 OFFCURVE",
"972 681 CURVE SMOOTH",
"972 672 OFFCURVE",
"968 665 OFFCURVE",
"968 657 CURVE SMOOTH",
"968 656 OFFCURVE",
"968 654 OFFCURVE",
"970 654 CURVE SMOOTH",
"980 654 OFFCURVE",
"990 696 OFFCURVE",
"990 705 CURVE SMOOTH",
"990 752 OFFCURVE",
"932 760 OFFCURVE",
"897 760 CURVE SMOOTH",
"825 760 OFFCURVE",
"759 735 OFFCURVE",
"701 694 CURVE",
"604 727 OFFCURVE",
"480 755 OFFCURVE",
"378 755 CURVE SMOOTH",
"188 755 OFFCURVE",
"22 668 OFFCURVE",
"2 464 CURVE SMOOTH",
"1 458 OFFCURVE",
"1 453 OFFCURVE",
"1 447 CURVE SMOOTH",
"1 389 OFFCURVE",
"29 335 OFFCURVE",
"73 297 CURVE SMOOTH",
"85 287 OFFCURVE",
"114 269 OFFCURVE",
"130 269 CURVE SMOOTH",
"132 269 OFFCURVE",
"138 269 OFFCURVE",
"138 273 CURVE SMOOTH",
"138 277 OFFCURVE",
"133 278 OFFCURVE",
"130 279 CURVE SMOOTH",
"119 283 OFFCURVE",
"110 287 OFFCURVE",
"101 293 CURVE SMOOTH",
"50 329 OFFCURVE",
"46 408 OFFCURVE",
"46 464 CURVE SMOOTH",
"46 647 OFFCURVE",
"160 718 OFFCURVE",
"332 718 CURVE SMOOTH",
"434 718 OFFCURVE",
"558 691 OFFCURVE",
"655 657 CURVE",
"631 635 OFFCURVE",
"608 611 OFFCURVE",
"588 586 CURVE SMOOTH",
"459 426 OFFCURVE",
"383 232 OFFCURVE",
"266 64 CURVE SMOOTH",
"227 9 OFFCURVE",
"154 -72 OFFCURVE",
"82 -72 CURVE SMOOTH",
"54 -72 OFFCURVE",
"9 -62 OFFCURVE",
"9 -27 CURVE SMOOTH",
"9 -3 OFFCURVE",
"27 14 OFFCURVE",
"27 21 CURVE SMOOTH",
"27 25 OFFCURVE",
"23 26 OFFCURVE",
"20 26 CURVE SMOOTH",
"-3 26 OFFCURVE",
"-15 -4 OFFCURVE",
"-15 -23 CURVE SMOOTH",
"-15 -72 OFFCURVE",
"37 -90 OFFCURVE",
"78 -90 CURVE SMOOTH"
);
},
{
closed = 1;
nodes = (
"309 191 OFFCURVE",
"320 209 OFFCURVE",
"322 214 CURVE SMOOTH",
"355 283 OFFCURVE",
"393 364 OFFCURVE",
"393 442 CURVE SMOOTH",
"393 469 OFFCURVE",
"389 513 OFFCURVE",
"353 513 CURVE SMOOTH",
"323 513 OFFCURVE",
"300 485 OFFCURVE",
"288 460 CURVE SMOOTH",
"287 458 OFFCURVE",
"286 456 OFFCURVE",
"286 454 CURVE SMOOTH",
"286 453 OFFCURVE",
"287 451 OFFCURVE",
"289 451 CURVE SMOOTH",
"295 451 OFFCURVE",
"296 466 OFFCURVE",
"310 466 CURVE SMOOTH",
"333 466 OFFCURVE",
"333 421 OFFCURVE",
"333 406 CURVE SMOOTH",
"333 344 OFFCURVE",
"321 278 OFFCURVE",
"305 218 CURVE",
"304 211 OFFCURVE",
"301 204 OFFCURVE",
"301 196 CURVE SMOOTH",
"301 195 OFFCURVE",
"301 191 OFFCURVE",
"304 191 CURVE SMOOTH"
);
}
);
width = 884;
}
);
note = P;
unicode = 0050;
},
{
glyphname = Thorn;
lastChange = "2021-11-27 15:47:14 +0000";
layers = (
{
hints = (
{
horizontal = 1;
place = "{-90, 18}";
type = Stem;
},
{
horizontal = 1;
place = "{184, 16}";
type = Stem;
},
{
horizontal = 1;
place = "{718, 37}";
type = Stem;
},
{
place = "{1, 45}";
type = Stem;
},
{
place = "{333, 60}";
type = Stem;
},
{
place = "{938, 73}";
type = Stem;
},
{
horizontal = 1;
place = "{737, 23}";
type = Stem;
},
{
place = "{972, 18}";
type = Stem;
},
{
place = "{-15, 24}";
type = Stem;
}
);
layerId = "9E0C627C-9F9A-47B5-8A8C-706F30D5AE4A";
paths = (
{
closed = 1;
nodes = (
"112 -223 OFFCURVE",
"178 -188 OFFCURVE",
"231 -132 CURVE SMOOTH",
"399 45 OFFCURVE",
"460 270 OFFCURVE",
"584 461 CURVE",
"647 433 OFFCURVE",
"785 393 OFFCURVE",
"785 268 CURVE SMOOTH",
"785 144 OFFCURVE",
"606 80 OFFCURVE",
"515 80 CURVE SMOOTH",
"496 80 OFFCURVE",
"478 86 OFFCURVE",
"458 86 CURVE SMOOTH",
"456 86 OFFCURVE",
"442 86 OFFCURVE",
"442 78 CURVE SMOOTH",
"442 66 OFFCURVE",
"493 65 OFFCURVE",
"502 65 CURVE SMOOTH",
"609 65 OFFCURVE",
"848 135 OFFCURVE",
"848 286 CURVE SMOOTH",
"848 421 OFFCURVE",
"682 476 OFFCURVE",
"609 503 CURVE",
"713 687 OFFCURVE",
"843 740 OFFCURVE",
"895 740 CURVE SMOOTH",
"930 740 OFFCURVE",
"972 729 OFFCURVE",
"972 659 CURVE SMOOTH",
"972 650 OFFCURVE",
"968 643 OFFCURVE",
"968 635 CURVE SMOOTH",
"968 634 OFFCURVE",
"968 632 OFFCURVE",
"970 632 CURVE SMOOTH",
"980 632 OFFCURVE",
"1006 655 OFFCURVE",
"1006 692 CURVE SMOOTH",
"1006 739 OFFCURVE",
"955 760 OFFCURVE",
"897 760 CURVE SMOOTH",
"825 760 OFFCURVE",
"676 714 OFFCURVE",
"554 521 CURVE",
"481 544 OFFCURVE",
"407 556 OFFCURVE",
"338 556 CURVE SMOOTH",
"162 556 OFFCURVE",
"22 478 OFFCURVE",
"22 316 CURVE SMOOTH",
"22 305 OFFCURVE",
"23 294 OFFCURVE",
"24 282 CURVE SMOOTH",
"24 276 OFFCURVE",
"25 271 OFFCURVE",
"26 265 CURVE SMOOTH",
"32 239 OFFCURVE",
"41 228 OFFCURVE",
"47 228 CURVE SMOOTH",
"52 228 OFFCURVE",
"56 235 OFFCURVE",
"56 249 CURVE SMOOTH",
"56 256 OFFCURVE",
"55 264 OFFCURVE",
"53 274 CURVE SMOOTH",
"49 294 OFFCURVE",
"47 312 OFFCURVE",
"47 330 CURVE SMOOTH",
"47 458 OFFCURVE",
"157 513 OFFCURVE",
"304 513 CURVE SMOOTH",
"373 513 OFFCURVE",
"449 501 OFFCURVE",
"527 479 CURVE",
"474 387 OFFCURVE",
"377 190 OFFCURVE",
"218 -67 CURVE SMOOTH",
"183 -124 OFFCURVE",
"110 -205 OFFCURVE",
"38 -205 CURVE SMOOTH",
"10 -205 OFFCURVE",
"-35 -195 OFFCURVE",
"-35 -160 CURVE SMOOTH",
"-35 -136 OFFCURVE",
"-17 -119 OFFCURVE",
"-17 -112 CURVE SMOOTH",
"-17 -108 OFFCURVE",
"-21 -107 OFFCURVE",
"-24 -107 CURVE SMOOTH",
"-47 -107 OFFCURVE",
"-59 -137 OFFCURVE",
"-59 -156 CURVE SMOOTH",
"-59 -205 OFFCURVE",
"-7 -223 OFFCURVE",
"34 -223 CURVE SMOOTH"
);
}
);
width = 884;
}
);
unicode = 00DE;
},
{
glyphname = Q;
lastChange = "2021-11-27 15:47:13 +0000";
layers = (
{
hints = (
{
horizontal = 1;
place = "{-33, 25}";
type = Stem;
}
);
layerId = "9E0C627C-9F9A-47B5-8A8C-706F30D5AE4A";
paths = (
{
closed = 1;
nodes = (
"983 -263 OFFCURVE",
"1074 -241 OFFCURVE",
"1133 -190 CURVE SMOOTH",
"1161 -166 OFFCURVE",
"1182 -133 OFFCURVE",
"1182 -95 CURVE SMOOTH",
"1182 -62 OFFCURVE",
"1161 -21 OFFCURVE",
"1123 -21 CURVE SMOOTH",
"1120 -21 OFFCURVE",
"1109 -24 OFFCURVE",
"1109 -28 CURVE SMOOTH",
"1109 -29 OFFCURVE",
"1110 -30 OFFCURVE",
"1110 -30 CURVE",
"1138 -41 OFFCURVE",
"1147 -65 OFFCURVE",
"1147 -94 CURVE SMOOTH",
"1147 -189 OFFCURVE",
"1052 -230 OFFCURVE",
"970 -230 CURVE SMOOTH",
"799 -230 OFFCURVE",
"587 -99 OFFCURVE",
"456 1 CURVE",
"611 63 OFFCURVE",
"880 291 OFFCURVE",
"880 472 CURVE SMOOTH",
"880 612 OFFCURVE",
"712 654 OFFCURVE",
"601 670 CURVE",
"656 688 OFFCURVE",
"713 699 OFFCURVE",
"771 699 CURVE SMOOTH",
"793 699 OFFCURVE",
"815 697 OFFCURVE",
"837 694 CURVE",
"840 693 OFFCURVE",
"842 693 OFFCURVE",
"845 693 CURVE SMOOTH",
"847 693 OFFCURVE",
"862 694 OFFCURVE",
"862 699 CURVE SMOOTH",
"862 705 OFFCURVE",
"841 708 OFFCURVE",
"840 708 CURVE SMOOTH",
"801 716 OFFCURVE",
"760 718 OFFCURVE",
"721 718 CURVE SMOOTH",
"644 718 OFFCURVE",
"568 706 OFFCURVE",
"496 681 CURVE",
"470 682 OFFCURVE",
"443 683 OFFCURVE",
"417 683 CURVE SMOOTH",
"271 683 OFFCURVE",
"31 653 OFFCURVE",
"31 459 CURVE SMOOTH",
"31 403 OFFCURVE",
"51 347 OFFCURVE",
"77 298 CURVE",
"54 249 OFFCURVE",
"37 202 OFFCURVE",
"37 147 CURVE SMOOTH",
"37 21 OFFCURVE",
"127 -45 OFFCURVE",
"247 -45 CURVE SMOOTH",
"289 -45 OFFCURVE",
"330 -38 OFFCURVE",
"370 -27 CURVE",
"511 -133 OFFCURVE",
"726 -263 OFFCURVE",
"906 -263 CURVE SMOOTH"
);
},
{
closed = 1;
nodes = (
"103 408 OFFCURVE",
"91 446 OFFCURVE",
"91 484 CURVE SMOOTH",
"91 639 OFFCURVE",
"302 656 OFFCURVE",
"415 655 CURVE SMOOTH",
"431 655 LINE",
"302 595 OFFCURVE",
"194 495 OFFCURVE",
"119 374 CURVE"
);
},
{
closed = 1;
nodes = (
"328 102 OFFCURVE",
"222 205 OFFCURVE",
"153 312 CURVE",
"237 458 OFFCURVE",
"389 584 OFFCURVE",
"543 649 CURVE",
"640 638 OFFCURVE",
"804 622 OFFCURVE",
"804 491 CURVE SMOOTH",
"804 457 OFFCURVE",
"794 423 OFFCURVE",
"781 391 CURVE SMOOTH",
"725 248 OFFCURVE",
"567 86 OFFCURVE",
"428 23 CURVE"
);
},
{
closed = 1;
nodes = (
"349 274 OFFCURVE",
"352 274 OFFCURVE",
"354 275 CURVE SMOOTH",
"374 282 OFFCURVE",
"391 290 OFFCURVE",
"412 293 CURVE SMOOTH",
"425 295 OFFCURVE",
"488 303 OFFCURVE",
"496 309 CURVE SMOOTH",
"499 311 OFFCURVE",
"504 314 OFFCURVE",
"504 318 CURVE SMOOTH",
"504 323 OFFCURVE",
"477 334 OFFCURVE",
"471 339 CURVE SMOOTH",
"461 349 OFFCURVE",
"458 359 OFFCURVE",
"452 370 CURVE SMOOTH",
"450 374 OFFCURVE",
"449 376 OFFCURVE",
"445 376 CURVE SMOOTH",
"424 376 OFFCURVE",
"341 301 OFFCURVE",
"341 280 CURVE SMOOTH",
"341 276 OFFCURVE",
"343 274 OFFCURVE",
"347 274 CURVE SMOOTH"
);
},
{
closed = 1;
nodes = (
"171 -14 OFFCURVE",
"94 25 OFFCURVE",
"94 126 CURVE SMOOTH",
"94 163 OFFCURVE",
"103 199 OFFCURVE",
"116 234 CURVE",
"177 144 OFFCURVE",
"257 62 OFFCURVE",
"342 -5 CURVE",
"316 -11 OFFCURVE",
"289 -14 OFFCURVE",
"262 -14 CURVE SMOOTH"
);
}
);
width = 760;
}
);
note = Q;
unicode = 0051;
},
{
glyphname = R;
lastChange = "2021-11-27 15:47:13 +0000";
layers = (
{
hints = (
{
horizontal = 1;
place = "{-193, 28}";
type = Stem;
},
{
horizontal = 1;
place = "{-90, 18}";
type = Stem;
},
{
horizontal = 1;
place = "{240, 15}";
type = Stem;
},
{
horizontal = 1;
place = "{375, 34}";
type = Stem;
},
{
horizontal = 1;
place = "{737, 23}";
type = Stem;
},
{
place = "{5, 40}";
type = Stem;
},
{
place = "{222, 19}";
type = Stem;
},
{
place = "{390, 42}";
type = Stem;
},
{
place = "{845, 80}";
type = Stem;
},
{
place = "{972, 19}";
type = Stem;
},
{
place = "{1128, 45}";
type = Stem;
},
{
horizontal = 1;
place = "{270, 9}";
type = Stem;
},
{
horizontal = 1;
place = "{700, 35}";
type = Stem;
},
{
place = "{-15, 24}";
type = Stem;
},
{
horizontal = 1;
place = "{515, 37}";
type = Stem;
}
);
layerId = "9E0C627C-9F9A-47B5-8A8C-706F30D5AE4A";
paths = (
{
closed = 1;
nodes = (
"1100 -9 OFFCURVE",
"1099 -9 OFFCURVE",
"1097 -9 CURVE SMOOTH",
"1095 -9 OFFCURVE",
"1088 -10 OFFCURVE",
"1088 -13 CURVE SMOOTH",
"1088 -14 OFFCURVE",
"1089 -14 OFFCURVE",
"1090 -15 CURVE SMOOTH",
"1115 -34 OFFCURVE",
"1128 -67 OFFCURVE",
"1128 -98 CURVE SMOOTH",
"1128 -140 OFFCURVE",
"1104 -165 OFFCURVE",
"1062 -165 CURVE SMOOTH",
"904 -165 OFFCURVE",
"628 133 OFFCURVE",
"528 240 CURVE",
"647 231 OFFCURVE",
"925 327 OFFCURVE",
"925 473 CURVE SMOOTH",
"925 575 OFFCURVE",
"798 650 OFFCURVE",
"715 682 CURVE",
"757 717 OFFCURVE",
"806 737 OFFCURVE",
"861 737 CURVE SMOOTH",
"896 737 OFFCURVE",
"972 728 OFFCURVE",
"972 681 CURVE SMOOTH",
"972 672 OFFCURVE",
"968 665 OFFCURVE",
"968 657 CURVE SMOOTH",
"968 656 OFFCURVE",
"968 654 OFFCURVE",
"970 654 CURVE SMOOTH",
"980 654 OFFCURVE",
"991 696 OFFCURVE",
"991 705 CURVE SMOOTH",
"991 752 OFFCURVE",
"933 760 OFFCURVE",
"897 760 CURVE SMOOTH",
"823 760 OFFCURVE",
"755 733 OFFCURVE",
"695 690 CURVE",
"612 719 OFFCURVE",
"518 735 OFFCURVE",
"430 735 CURVE SMOOTH",
"236 735 OFFCURVE",
"31 650 OFFCURVE",
"6 436 CURVE SMOOTH",
"5 430 OFFCURVE",
"5 424 OFFCURVE",
"5 418 CURVE SMOOTH",
"5 368 OFFCURVE",
"29 322 OFFCURVE",
"67 291 CURVE SMOOTH",
"78 283 OFFCURVE",
"102 270 OFFCURVE",
"115 270 CURVE SMOOTH",
"118 270 OFFCURVE",
"125 270 OFFCURVE",
"125 274 CURVE SMOOTH",
"125 277 OFFCURVE",
"120 279 OFFCURVE",
"118 279 CURVE",
"109 282 OFFCURVE",
"101 284 OFFCURVE",
"93 289 CURVE SMOOTH",
"49 316 OFFCURVE",
"45 383 OFFCURVE",
"45 429 CURVE SMOOTH",
"45 626 OFFCURVE",
"222 700 OFFCURVE",
"394 700 CURVE SMOOTH",
"481 700 OFFCURVE",
"569 684 OFFCURVE",
"649 652 CURVE",
"560 568 OFFCURVE",
"490 449 OFFCURVE",
"431 343 CURVE",
"424 350 OFFCURVE",
"415 358 OFFCURVE",
"407 365 CURVE",
"421 404 OFFCURVE",
"433 446 OFFCURVE",
"433 486 CURVE SMOOTH",
"433 491 OFFCURVE",
"432 497 OFFCURVE",
"432 502 CURVE SMOOTH",
"430 521 OFFCURVE",
"424 552 OFFCURVE",
"400 552 CURVE SMOOTH",
"377 552 OFFCURVE",
"361 529 OFFCURVE",
"354 509 CURVE SMOOTH",
"353 507 OFFCURVE",
"353 506 OFFCURVE",
"353 504 CURVE SMOOTH",
"353 503 OFFCURVE",
"353 502 OFFCURVE",
"355 502 CURVE SMOOTH",
"359 503 OFFCURVE",
"359 514 OFFCURVE",
"370 515 CURVE SMOOTH",
"386 516 OFFCURVE",
"389 483 OFFCURVE",
"390 472 CURVE SMOOTH",
"391 461 OFFCURVE",
"391 449 OFFCURVE",
"391 438 CURVE SMOOTH",
"391 418 OFFCURVE",
"390 399 OFFCURVE",
"388 379 CURVE",
"363 396 OFFCURVE",
"336 409 OFFCURVE",
"308 409 CURVE SMOOTH",
"252 409 OFFCURVE",
"222 359 OFFCURVE",
"222 308 CURVE SMOOTH",
"222 298 OFFCURVE",
"228 241 OFFCURVE",
"242 241 CURVE SMOOTH",
"244 241 OFFCURVE",
"245 244 OFFCURVE",
"245 246 CURVE SMOOTH",
"245 255 OFFCURVE",
"241 265 OFFCURVE",
"241 276 CURVE SMOOTH",
"241 297 OFFCURVE",
"249 375 OFFCURVE",
"279 375 CURVE SMOOTH",
"312 375 OFFCURVE",
"376 304 OFFCURVE",
"397 281 CURVE",
"342 181 OFFCURVE",
"213 -72 OFFCURVE",
"82 -72 CURVE SMOOTH",
"54 -72 OFFCURVE",
"9 -62 OFFCURVE",
"9 -27 CURVE SMOOTH",
"9 -4 OFFCURVE",
"27 14 OFFCURVE",
"27 21 CURVE SMOOTH",
"27 25 OFFCURVE",
"23 26 OFFCURVE",
"20 26 CURVE SMOOTH",
"-3 26 OFFCURVE",
"-15 -4 OFFCURVE",
"-15 -23 CURVE SMOOTH",
"-15 -72 OFFCURVE",
"37 -90 OFFCURVE",
"78 -90 CURVE SMOOTH",
"250 -90 OFFCURVE",
"376 87 OFFCURVE",
"451 223 CURVE",
"580 81 OFFCURVE",
"818 -193 OFFCURVE",
"1027 -193 CURVE SMOOTH",
"1078 -193 OFFCURVE",
"1173 -170 OFFCURVE",
"1173 -105 CURVE SMOOTH",
"1173 -64 OFFCURVE",
"1137 -26 OFFCURVE",
"1102 -10 CURVE SMOOTH"
);
},
{
closed = 1;
nodes = (
"534 389 OFFCURVE",
"601 558 OFFCURVE",
"673 641 CURVE",
"744 609 OFFCURVE",
"845 542 OFFCURVE",
"845 455 CURVE SMOOTH",
"845 340 OFFCURVE",
"649 255 OFFCURVE",
"552 255 CURVE SMOOTH",
"542 255 OFFCURVE",
"525 257 OFFCURVE",
"516 252 CURVE",
"484 287 LINE"
);
}
);
width = 744;
}
);
note = R;
unicode = 0052;
},
{
glyphname = S;
lastChange = "2021-11-27 15:47:13 +0000";
layers = (
{
hints = (
{
horizontal = 1;
place = "{-55, 26}";
type = Stem;
},
{
horizontal = 1;
place = "{227, 25}";
type = Stem;
},
{
horizontal = 1;
place = "{328, 40}";
type = Stem;
},
{
horizontal = 1;
place = "{562, 40}";
type = Stem;
},
{
horizontal = 1;
place = "{689, 15}";
type = Stem;
},
{
place = "{121, 22}";
type = Stem;
},
{
place = "{454, 58}";
type = Stem;
},
{
place = "{841, 81}";
type = Stem;
},
{
place = "{929, 35}";
type = Stem;
},
{
horizontal = 1;
place = "{377, 18}";
type = Stem;
},
{
horizontal = 1;
place = "{668, 47}";
type = Stem;
}
);
layerId = "9E0C627C-9F9A-47B5-8A8C-706F30D5AE4A";
paths = (
{
closed = 1;
nodes = (
"614 -55 OFFCURVE",
"922 70 OFFCURVE",
"922 243 CURVE SMOOTH",
"922 403 OFFCURVE",
"667 402 OFFCURVE",
"567 473 CURVE SMOOTH",
"539 493 OFFCURVE",
"512 523 OFFCURVE",
"512 559 CURVE SMOOTH",
"512 596 OFFCURVE",
"539 626 OFFCURVE",
"568 646 CURVE",
"661 627 OFFCURVE",
"752 600 OFFCURVE",
"844 576 CURVE SMOOTH",
"868 570 OFFCURVE",
"893 562 OFFCURVE",
"918 562 CURVE SMOOTH",
"948 562 OFFCURVE",
"964 582 OFFCURVE",
"964 604 CURVE SMOOTH",
"964 612 OFFCURVE",
"962 620 OFFCURVE",
"957 628 CURVE SMOOTH",
"922 684 OFFCURVE",
"823 704 OFFCURVE",
"733 704 CURVE SMOOTH",
"680 704 OFFCURVE",
"631 697 OFFCURVE",
"600 686 CURVE",
"533 704 OFFCURVE",
"465 715 OFFCURVE",
"396 715 CURVE SMOOTH",
"290 715 OFFCURVE",
"121 689 OFFCURVE",
"121 551 CURVE SMOOTH",
"121 444 OFFCURVE",
"235 377 OFFCURVE",
"331 377 CURVE SMOOTH",
"342 377 OFFCURVE",
"402 380 OFFCURVE",
"402 393 CURVE SMOOTH",
"402 395 OFFCURVE",
"401 396 OFFCURVE",
"399 396 CURVE SMOOTH",
"395 396 OFFCURVE",
"390 395 OFFCURVE",
"385 395 CURVE SMOOTH",
"337 395 OFFCURVE",
"249 425 OFFCURVE",
"210 453 CURVE SMOOTH",
"175 479 OFFCURVE",
"143 524 OFFCURVE",
"143 569 CURVE SMOOTH",
"143 615 OFFCURVE",
"176 639 OFFCURVE",
"217 651 CURVE SMOOTH",
"264 664 OFFCURVE",
"315 668 OFFCURVE",
"364 668 CURVE SMOOTH",
"421 668 OFFCURVE",
"477 662 OFFCURVE",
"532 652 CURVE",
"491 624 OFFCURVE",
"454 580 OFFCURVE",
"454 528 CURVE SMOOTH",
"454 431 OFFCURVE",
"572 399 OFFCURVE",
"645 373 CURVE SMOOTH",
"776 326 OFFCURVE",
"841 289 OFFCURVE",
"841 224 CURVE SMOOTH",
"841 79 OFFCURVE",
"592 -29 OFFCURVE",
"409 -29 CURVE SMOOTH",
"314 -29 OFFCURVE",
"237 0 OFFCURVE",
"224 68 CURVE SMOOTH",
"223 74 OFFCURVE",
"222 80 OFFCURVE",
"222 86 CURVE SMOOTH",
"222 142 OFFCURVE",
"274 199 OFFCURVE",
"426 220 CURVE SMOOTH",
"449 223 OFFCURVE",
"486 227 OFFCURVE",
"525 227 CURVE SMOOTH",
"588 227 OFFCURVE",
"656 218 OFFCURVE",
"680 187 CURVE",
"681 185 OFFCURVE",
"683 183 OFFCURVE",
"686 183 CURVE SMOOTH",
"690 183 OFFCURVE",
"694 187 OFFCURVE",
"694 191 CURVE SMOOTH",
"694 192 OFFCURVE",
"693 194 OFFCURVE",
"692 195 CURVE",
"664 240 OFFCURVE",
"521 252 OFFCURVE",
"473 252 CURVE SMOOTH",
"253 252 OFFCURVE",
"159 162 OFFCURVE",
"159 80 CURVE SMOOTH",
"159 72 OFFCURVE",
"160 65 OFFCURVE",
"161 58 CURVE SMOOTH",
"177 -21 OFFCURVE",
"272 -55 OFFCURVE",
"389 -55 CURVE SMOOTH"
);
},
{
closed = 1;
nodes = (
"892 602 OFFCURVE",
"875 604 OFFCURVE",
"852 609 CURVE SMOOTH",
"780 626 OFFCURVE",
"687 660 OFFCURVE",
"635 676 CURVE",
"667 685 OFFCURVE",
"698 689 OFFCURVE",
"730 689 CURVE SMOOTH",
"767 689 OFFCURVE",
"804 684 OFFCURVE",
"842 674 CURVE SMOOTH",
"886 662 OFFCURVE",
"930 631 OFFCURVE",
"930 614 CURVE SMOOTH",
"930 607 OFFCURVE",
"922 602 OFFCURVE",
"904 602 CURVE SMOOTH"
);
},
{
closed = 1;
nodes = (
"514 278 OFFCURVE",
"515 278 OFFCURVE",
"515 279 CURVE SMOOTH",
"515 285 OFFCURVE",
"502 285 OFFCURVE",
"502 300 CURVE SMOOTH",
"502 327 OFFCURVE",
"582 328 OFFCURVE",
"600 328 CURVE SMOOTH",
"617 328 OFFCURVE",
"634 325 OFFCURVE",
"650 325 CURVE SMOOTH",
"652 325 OFFCURVE",
"658 325 OFFCURVE",
"658 328 CURVE SMOOTH",
"658 332 OFFCURVE",
"645 338 OFFCURVE",
"641 340 CURVE",
"606 352 OFFCURVE",
"565 368 OFFCURVE",
"527 368 CURVE SMOOTH",
"505 368 OFFCURVE",
"466 361 OFFCURVE",
"466 332 CURVE SMOOTH",
"466 308 OFFCURVE",
"488 286 OFFCURVE",
"510 279 CURVE",
"511 278 OFFCURVE",
"512 278 OFFCURVE",
"513 278 CURVE SMOOTH"
);
}
);
width = 900;
}
);
note = S;
unicode = 0053;
},
{
glyphname = Germandbls;
lastChange = "2021-11-27 15:47:14 +0000";
layers = (
{
hints = (
{
horizontal = 1;
place = "{-49, 20}";
type = Stem;
},
{
horizontal = 1;
place = "{365, -20}";
target = down;
type = TopGhost;
},
{
horizontal = 1;
place = "{663, 18}";
type = Stem;
},
{
place = "{330, 24}";
type = Stem;
},
{
place = "{526, 79}";
type = Stem;
},
{
place = "{686, 60}";
type = Stem;
}
);
layerId = "9E0C627C-9F9A-47B5-8A8C-706F30D5AE4A";
paths = (
{
closed = 1;
nodes = (
"-72 -146 OFFCURVE",
"-69 -146 OFFCURVE",
"-66 -144 CURVE SMOOTH",
"-36 -126 OFFCURVE",
"-12 -115 OFFCURVE",
"33 -105 CURVE SMOOTH",
"46 -102 OFFCURVE",
"58 -64 OFFCURVE",
"86 -13 CURVE SMOOTH",
"140 87 OFFCURVE",
"279 327 OFFCURVE",
"458 605 CURVE SMOOTH",
"478 637 OFFCURVE",
"519 650 OFFCURVE",
"590 650 CURVE SMOOTH",
"634 650 OFFCURVE",
"672 620 OFFCURVE",
"672 575 CURVE SMOOTH",
"672 448 OFFCURVE",
"484 374 OFFCURVE",
"355 330 CURVE SMOOTH",
"350 328 OFFCURVE",
"347 321 OFFCURVE",
"347 313 CURVE SMOOTH",
"347 297 OFFCURVE",
"356 275 OFFCURVE",
"369 273 CURVE SMOOTH",
"427 262 OFFCURVE",
"525 254 OFFCURVE",
"525 195 CURVE SMOOTH",
"525 110 OFFCURVE",
"387 -29 OFFCURVE",
"258 -29 CURVE SMOOTH",
"205 -29 OFFCURVE",
"193 7 OFFCURVE",
"183 7 CURVE SMOOTH",
"177 7 OFFCURVE",
"175 1 OFFCURVE",
"175 -3 CURVE SMOOTH",
"175 -7 OFFCURVE",
"177 -11 OFFCURVE",
"179 -14 CURVE SMOOTH",
"201 -40 OFFCURVE",
"231 -49 OFFCURVE",
"264 -49 CURVE SMOOTH",
"450 -49 OFFCURVE",
"605 89 OFFCURVE",
"605 189 CURVE SMOOTH",
"605 293 OFFCURVE",
"472 280 OFFCURVE",
"428 291 CURVE SMOOTH",
"410 296 OFFCURVE",
"391 300 OFFCURVE",
"372 304 CURVE",
"396 315 OFFCURVE",
"420 324 OFFCURVE",
"462 340 CURVE SMOOTH",
"567 381 OFFCURVE",
"746 453 OFFCURVE",
"746 576 CURVE SMOOTH",
"746 667 OFFCURVE",
"668 681 OFFCURVE",
"606 681 CURVE SMOOTH",
"531 681 OFFCURVE",
"428 677 OFFCURVE",
"387 612 CURVE SMOOTH",
"235 370 OFFCURVE",
"139 182 OFFCURVE",
"4 -38 CURVE SMOOTH",
"-16 -70 OFFCURVE",
"-37 -98 OFFCURVE",
"-67 -121 CURVE SMOOTH",
"-72 -125 OFFCURVE",
"-82 -134 OFFCURVE",
"-82 -141 CURVE SMOOTH",
"-82 -145 OFFCURVE",
"-79 -146 OFFCURVE",
"-76 -146 CURVE SMOOTH"
);
},
{
closed = 1;
nodes = (
"134 235 OFFCURVE",
"145 253 OFFCURVE",
"147 258 CURVE SMOOTH",
"180 327 OFFCURVE",
"219 408 OFFCURVE",
"219 486 CURVE SMOOTH",
"219 513 OFFCURVE",
"214 557 OFFCURVE",
"178 557 CURVE SMOOTH",
"148 557 OFFCURVE",
"125 529 OFFCURVE",
"114 504 CURVE SMOOTH",
"113 502 OFFCURVE",
"112 500 OFFCURVE",
"112 498 CURVE SMOOTH",
"112 497 OFFCURVE",
"112 495 OFFCURVE",
"114 495 CURVE SMOOTH",
"121 495 OFFCURVE",
"121 510 OFFCURVE",
"136 510 CURVE SMOOTH",
"158 510 OFFCURVE",
"158 465 OFFCURVE",
"158 450 CURVE SMOOTH",
"158 388 OFFCURVE",
"146 322 OFFCURVE",
"131 262 CURVE SMOOTH",
"129 255 OFFCURVE",
"127 248 OFFCURVE",
"127 240 CURVE SMOOTH",
"127 239 OFFCURVE",
"127 235 OFFCURVE",
"129 235 CURVE SMOOTH"
);
}
);
width = 691;
}
);
unicode = 1E9E;
},
{
glyphname = Schwa;
lastChange = "2021-11-27 15:47:14 +0000";
layers = (
{
hints = (
{
horizontal = 1;
place = "{787, -30}";
type = Stem;
},
{
horizontal = 1;
place = "{409, -14}";
type = Stem;
},
{
horizontal = 1;
place = "{199, 21}";
target = up;
type = BottomGhost;
},
{
horizontal = 1;
place = "{92, -24}";
type = Stem;
},
{
place = "{693, -26}";
type = Stem;
},
{
place = "{-113, -56}";
type = Stem;
},
{
horizontal = 1;
place = "{75, -50}";
type = Stem;
},
{
place = "{662, -65}";
type = Stem;
},
{
horizontal = 1;
place = "{384, 21}";
target = up;
type = BottomGhost;
}
);
layerId = "9E0C627C-9F9A-47B5-8A8C-706F30D5AE4A";
paths = (
{
closed = 1;
nodes = (
"573 -46 OFFCURVE",
"846 256 OFFCURVE",
"846 512 CURVE SMOOTH",
"846 671 OFFCURVE",
"729 726 OFFCURVE",
"605 726 CURVE SMOOTH",
"487 726 OFFCURVE",
"313 681 OFFCURVE",
"226 553 CURVE SMOOTH",
"212 532 OFFCURVE",
"194 490 OFFCURVE",
"194 463 CURVE SMOOTH",
"194 458 OFFCURVE",
"196 449 OFFCURVE",
"201 449 CURVE SMOOTH",
"205 449 OFFCURVE",
"205 452 OFFCURVE",
"206 455 CURVE SMOOTH",
"211 476 OFFCURVE",
"245 524 OFFCURVE",
"258 541 CURVE SMOOTH",
"332 636 OFFCURVE",
"420 694 OFFCURVE",
"532 694 CURVE SMOOTH",
"670 694 OFFCURVE",
"776 633 OFFCURVE",
"770 477 CURVE SMOOTH",
"768 414 OFFCURVE",
"738 350 OFFCURVE",
"729 337 CURVE",
"652 383 OFFCURVE",
"558 405 OFFCURVE",
"466 405 CURVE SMOOTH",
"274 405 OFFCURVE",
"91 308 OFFCURVE",
"91 120 CURVE SMOOTH",
"91 25 OFFCURVE",
"177 -46 OFFCURVE",
"299 -46 CURVE SMOOTH"
);
},
{
closed = 1;
nodes = (
"212 -21 OFFCURVE",
"175 63 OFFCURVE",
"175 140 CURVE SMOOTH",
"175 278 OFFCURVE",
"327 364 OFFCURVE",
"495 364 CURVE SMOOTH",
"569 364 OFFCURVE",
"646 348 OFFCURVE",
"715 312 CURVE",
"647 168 OFFCURVE",
"513 -21 OFFCURVE",
"357 -21 CURVE SMOOTH"
);
},
{
closed = 1;
nodes = (
"349 137 OFFCURVE",
"352 137 OFFCURVE",
"354 138 CURVE SMOOTH",
"374 145 OFFCURVE",
"391 153 OFFCURVE",
"412 156 CURVE SMOOTH",
"425 158 OFFCURVE",
"488 166 OFFCURVE",
"496 172 CURVE SMOOTH",
"499 174 OFFCURVE",
"504 177 OFFCURVE",
"504 181 CURVE SMOOTH",
"504 186 OFFCURVE",
"477 197 OFFCURVE",
"471 202 CURVE SMOOTH",
"461 212 OFFCURVE",
"458 222 OFFCURVE",
"452 233 CURVE SMOOTH",
"450 237 OFFCURVE",
"449 239 OFFCURVE",
"445 239 CURVE SMOOTH",
"424 239 OFFCURVE",
"341 164 OFFCURVE",
"341 143 CURVE SMOOTH",
"341 139 OFFCURVE",
"343 137 OFFCURVE",
"347 137 CURVE SMOOTH"
);
}
);
width = 826;
}
);
unicode = 018F;
},
{
glyphname = T;
lastChange = "2021-11-27 15:47:13 +0000";
layers = (
{
hints = (
{
horizontal = 1;
place = "{-51, 31}";
type = Stem;
},
{
horizontal = 1;
place = "{271, 9}";
type = Stem;
},
{
horizontal = 1;
place = "{466, 47}";
type = Stem;
},
{
horizontal = 1;
place = "{577, 46}";
type = Stem;
},
{
horizontal = 1;
place = "{685, 34}";
type = Stem;
},
{
place = "{9, 27}";
type = Stem;
},
{
place = "{101, 61}";
type = Stem;
},
{
place = "{573, 60}";
type = Stem;
}
);
layerId = "9E0C627C-9F9A-47B5-8A8C-706F30D5AE4A";
paths = (
{
closed = 1;
nodes = (
"465 -51 OFFCURVE",
"673 200 OFFCURVE",
"812 404 CURVE SMOOTH",
"861 476 OFFCURVE",
"905 552 OFFCURVE",
"953 624 CURVE",
"1021 606 OFFCURVE",
"1106 577 OFFCURVE",
"1174 577 CURVE SMOOTH",
"1229 577 OFFCURVE",
"1245 591 OFFCURVE",
"1288 617 CURVE SMOOTH",
"1291 619 OFFCURVE",
"1296 623 OFFCURVE",
"1296 628 CURVE SMOOTH",
"1296 630 OFFCURVE",
"1295 631 OFFCURVE",
"1293 631 CURVE SMOOTH",
"1287 631 OFFCURVE",
"1276 623 OFFCURVE",
"1256 623 CURVE SMOOTH",
"1204 623 OFFCURVE",
"1131 641 OFFCURVE",
"1080 654 CURVE SMOOTH",
"949 687 OFFCURVE",
"810 719 OFFCURVE",
"674 719 CURVE SMOOTH",
"499 719 OFFCURVE",
"197 663 OFFCURVE",
"119 483 CURVE SMOOTH",
"107 456 OFFCURVE",
"101 431 OFFCURVE",
"101 402 CURVE SMOOTH",
"101 397 LINE SMOOTH",
"99 324 OFFCURVE",
"173 271 OFFCURVE",
"243 271 CURVE SMOOTH",
"246 271 OFFCURVE",
"259 272 OFFCURVE",
"259 276 CURVE SMOOTH",
"259 280 OFFCURVE",
"252 280 OFFCURVE",
"250 280 CURVE SMOOTH",
"176 280 OFFCURVE",
"162 359 OFFCURVE",
"162 417 CURVE SMOOTH",
"162 620 OFFCURVE",
"429 685 OFFCURVE",
"590 685 CURVE SMOOTH",
"690 685 OFFCURVE",
"790 667 OFFCURVE",
"887 642 CURVE",
"885 641 OFFCURVE",
"884 639 OFFCURVE",
"883 637 CURVE SMOOTH",
"776 446 OFFCURVE",
"547 83 OFFCURVE",
"347 0 CURVE SMOOTH",
"314 -14 OFFCURVE",
"272 -20 OFFCURVE",
"236 -20 CURVE SMOOTH",
"143 -20 OFFCURVE",
"52 18 OFFCURVE",
"36 119 CURVE",
"36 127 LINE SMOOTH",
"36 157 OFFCURVE",
"57 170 OFFCURVE",
"57 177 CURVE SMOOTH",
"57 178 OFFCURVE",
"56 179 OFFCURVE",
"55 179 CURVE SMOOTH",
"52 179 OFFCURVE",
"49 177 OFFCURVE",
"48 176 CURVE SMOOTH",
"22 153 OFFCURVE",
"9 109 OFFCURVE",
"9 75 CURVE SMOOTH",
"9 -22 OFFCURVE",
"115 -51 OFFCURVE",
"195 -51 CURVE SMOOTH"
);
},
{
closed = 1;
nodes = (
"549 191 OFFCURVE",
"560 209 OFFCURVE",
"562 214 CURVE SMOOTH",
"595 283 OFFCURVE",
"633 364 OFFCURVE",
"633 442 CURVE SMOOTH",
"633 469 OFFCURVE",
"629 513 OFFCURVE",
"593 513 CURVE SMOOTH",
"563 513 OFFCURVE",
"540 485 OFFCURVE",
"528 460 CURVE SMOOTH",
"527 458 OFFCURVE",
"526 456 OFFCURVE",
"526 454 CURVE SMOOTH",
"526 453 OFFCURVE",
"527 451 OFFCURVE",
"529 451 CURVE SMOOTH",
"535 451 OFFCURVE",
"536 466 OFFCURVE",
"550 466 CURVE SMOOTH",
"573 466 OFFCURVE",
"573 421 OFFCURVE",
"573 406 CURVE SMOOTH",
"573 344 OFFCURVE",
"561 278 OFFCURVE",
"545 218 CURVE",
"544 211 OFFCURVE",
"541 204 OFFCURVE",
"541 196 CURVE SMOOTH",
"541 195 OFFCURVE",
"541 191 OFFCURVE",
"544 191 CURVE SMOOTH"
);
}
);
width = 826;
}
);
note = T;
unicode = 0054;
},
{
glyphname = U;
lastChange = "2021-11-27 15:47:13 +0000";
layers = (
{
hints = (
{
horizontal = 1;
place = "{-39, 24}";
type = Stem;
}
);
layerId = "9E0C627C-9F9A-47B5-8A8C-706F30D5AE4A";
paths = (
{
closed = 1;
nodes = (
"345 -26 OFFCURVE",
"382 -16 OFFCURVE",
"414 0 CURVE SMOOTH",
"607 96 OFFCURVE",
"741 310 OFFCURVE",
"862 482 CURVE",
"867 482 OFFCURVE",
"872 484 OFFCURVE",
"877 484 CURVE SMOOTH",
"880 484 OFFCURVE",
"883 483 OFFCURVE",
"883 479 CURVE SMOOTH",
"883 472 OFFCURVE",
"875 460 OFFCURVE",
"871 454 CURVE SMOOTH",
"793 330 OFFCURVE",
"676 176 OFFCURVE",
"633 36 CURVE SMOOTH",
"631 30 OFFCURVE",
"624 3 OFFCURVE",
"624 -3 CURVE SMOOTH",
"624 -15 OFFCURVE",
"674 -20 OFFCURVE",
"682 -20 CURVE SMOOTH",
"701 -20 OFFCURVE",
"716 -18 OFFCURVE",
"726 0 CURVE SMOOTH",
"731 10 OFFCURVE",
"735 19 OFFCURVE",
"742 28 CURVE SMOOTH",
"784 86 OFFCURVE",
"906 172 OFFCURVE",
"973 202 CURVE",
"972 206 OFFCURVE",
"970 210 OFFCURVE",
"966 210 CURVE SMOOTH",
"965 210 OFFCURVE",
"949 204 OFFCURVE",
"948 204 CURVE",
"896 183 OFFCURVE",
"850 152 OFFCURVE",
"804 120 CURVE SMOOTH",
"795 113 OFFCURVE",
"777 101 OFFCURVE",
"765 101 CURVE SMOOTH",
"757 101 OFFCURVE",
"755 107 OFFCURVE",
"755 114 CURVE SMOOTH",
"755 130 OFFCURVE",
"764 152 OFFCURVE",
"770 166 CURVE SMOOTH",
"830 307 OFFCURVE",
"900 445 OFFCURVE",
"989 570 CURVE SMOOTH",
"1008 597 OFFCURVE",
"1028 624 OFFCURVE",
"1050 650 CURVE SMOOTH",
"1062 665 OFFCURVE",
"1076 680 OFFCURVE",
"1089 695 CURVE SMOOTH",
"1090 696 OFFCURVE",
"1090 697 OFFCURVE",
"1090 698 CURVE SMOOTH",
"1088 709 OFFCURVE",
"1044 726 OFFCURVE",
"1034 726 CURVE SMOOTH",
"1011 726 OFFCURVE",
"973 663 OFFCURVE",
"959 645 CURVE SMOOTH",
"937 614 OFFCURVE",
"915 582 OFFCURVE",
"892 552 CURVE SMOOTH",
"798 429 OFFCURVE",
"508 27 OFFCURVE",
"343 27 CURVE SMOOTH",
"304 27 OFFCURVE",
"290 47 OFFCURVE",
"290 84 CURVE SMOOTH",
"290 135 OFFCURVE",
"317 209 OFFCURVE",
"337 256 CURVE SMOOTH",
"383 362 OFFCURVE",
"477 520 OFFCURVE",
"567 594 CURVE SMOOTH",
"569 596 OFFCURVE",
"573 599 OFFCURVE",
"573 602 CURVE SMOOTH",
"573 606 OFFCURVE",
"567 606 OFFCURVE",
"564 606 CURVE SMOOTH",
"559 606 OFFCURVE",
"553 604 OFFCURVE",
"548 602 CURVE SMOOTH",
"467 559 OFFCURVE",
"349 400 OFFCURVE",
"301 322 CURVE SMOOTH",
"277 283 OFFCURVE",
"254 242 OFFCURVE",
"237 199 CURVE SMOOTH",
"221 161 OFFCURVE",
"208 117 OFFCURVE",
"208 76 CURVE SMOOTH",
"208 8 OFFCURVE",
"242 -26 OFFCURVE",
"309 -26 CURVE SMOOTH"
);
},
{
closed = 1;
nodes = (
"99 277 OFFCURVE",
"101 279 OFFCURVE",
"101 282 CURVE SMOOTH",
"101 289 OFFCURVE",
"58 318 OFFCURVE",
"58 385 CURVE SMOOTH",
"58 472 OFFCURVE",
"120 572 OFFCURVE",
"189 623 CURVE SMOOTH",
"240 660 OFFCURVE",
"298 675 OFFCURVE",
"360 675 CURVE SMOOTH",
"454 675 OFFCURVE",
"593 638 OFFCURVE",
"683 608 CURVE SMOOTH",
"700 602 OFFCURVE",
"718 598 OFFCURVE",
"737 598 CURVE SMOOTH",
"767 598 OFFCURVE",
"793 611 OFFCURVE",
"819 627 CURVE SMOOTH",
"823 629 OFFCURVE",
"827 633 OFFCURVE",
"827 638 CURVE SMOOTH",
"827 639 OFFCURVE",
"826 640 OFFCURVE",
"824 640 CURVE SMOOTH",
"818 640 OFFCURVE",
"810 634 OFFCURVE",
"798 634 CURVE SMOOTH",
"736 634 OFFCURVE",
"630 682 OFFCURVE",
"560 694 CURVE SMOOTH",
"520 700 OFFCURVE",
"480 703 OFFCURVE",
"440 703 CURVE SMOOTH",
"267 703 OFFCURVE",
"85 644 OFFCURVE",
"25 466 CURVE SMOOTH",
"18 445 OFFCURVE",
"14 422 OFFCURVE",
"14 401 CURVE SMOOTH",
"14 345 OFFCURVE",
"40 300 OFFCURVE",
"92 278 CURVE",
"96 277 LINE SMOOTH"
);
},
{
closed = 1;
nodes = (
"215 229 OFFCURVE",
"222 240 OFFCURVE",
"224 244 CURVE SMOOTH",
"243 281 OFFCURVE",
"267 327 OFFCURVE",
"267 369 CURVE SMOOTH",
"267 391 OFFCURVE",
"261 419 OFFCURVE",
"233 419 CURVE SMOOTH",
"210 419 OFFCURVE",
"189 402 OFFCURVE",
"179 382 CURVE",
"178 378 LINE SMOOTH",
"178 377 OFFCURVE",
"179 376 OFFCURVE",
"180 376 CURVE SMOOTH",
"185 376 OFFCURVE",
"186 387 OFFCURVE",
"199 387 CURVE SMOOTH",
"220 387 OFFCURVE",
"221 346 OFFCURVE",
"221 331 CURVE SMOOTH",
"221 302 OFFCURVE",
"217 273 OFFCURVE",
"210 245 CURVE SMOOTH",
"209 241 OFFCURVE",
"208 237 OFFCURVE",
"208 233 CURVE SMOOTH",
"208 232 OFFCURVE",
"209 229 OFFCURVE",
"211 229 CURVE SMOOTH"
);
}
);
width = 980;
}
);
note = U;
unicode = 0055;
},
{
glyphname = V;
lastChange = "2021-11-27 15:47:13 +0000";
layers = (
{
hints = (
{
horizontal = 1;
place = "{48, 24}";
type = Stem;
}
);
layerId = "9E0C627C-9F9A-47B5-8A8C-706F30D5AE4A";
paths = (
{
closed = 1;
nodes = (
"444 -43 OFFCURVE",
"447 -40 OFFCURVE",
"449 -33 CURVE",
"466 8 OFFCURVE",
"513 36 OFFCURVE",
"549 59 CURVE SMOOTH",
"742 181 OFFCURVE",
"952 254 OFFCURVE",
"1104 434 CURVE SMOOTH",
"1148 485 OFFCURVE",
"1173 552 OFFCURVE",
"1173 619 CURVE SMOOTH",
"1173 665 OFFCURVE",
"1161 715 OFFCURVE",
"1131 750 CURVE",
"1129 751 OFFCURVE",
"1127 752 OFFCURVE",
"1125 752 CURVE SMOOTH",
"1121 752 OFFCURVE",
"1117 749 OFFCURVE",
"1117 745 CURVE SMOOTH",
"1117 743 OFFCURVE",
"1118 741 OFFCURVE",
"1119 740 CURVE SMOOTH",
"1135 718 OFFCURVE",
"1140 698 OFFCURVE",
"1140 671 CURVE SMOOTH",
"1140 591 OFFCURVE",
"1092 499 OFFCURVE",
"1041 439 CURVE SMOOTH",
"896 267 OFFCURVE",
"728 201 OFFCURVE",
"543 85 CURVE SMOOTH",
"530 77 OFFCURVE",
"490 49 OFFCURVE",
"475 49 CURVE SMOOTH",
"471 49 OFFCURVE",
"469 51 OFFCURVE",
"469 55 CURVE SMOOTH",
"469 57 LINE",
"469 60 LINE SMOOTH",
"473 102 OFFCURVE",
"486 142 OFFCURVE",
"500 182 CURVE SMOOTH",
"540 299 OFFCURVE",
"638 495 OFFCURVE",
"727 583 CURVE",
"728 585 OFFCURVE",
"729 587 OFFCURVE",
"729 589 CURVE SMOOTH",
"729 592 OFFCURVE",
"727 595 OFFCURVE",
"723 595 CURVE SMOOTH",
"722 595 OFFCURVE",
"721 595 OFFCURVE",
"720 594 CURVE SMOOTH",
"539 437 OFFCURVE",
"424 253 OFFCURVE",
"384 14 CURVE",
"384 9 LINE SMOOTH",
"384 -15 OFFCURVE",
"412 -43 OFFCURVE",
"436 -43 CURVE SMOOTH"
);
},
{
closed = 1;
nodes = (
"154 244 OFFCURVE",
"165 245 OFFCURVE",
"165 249 CURVE SMOOTH",
"165 253 OFFCURVE",
"159 253 OFFCURVE",
"157 253 CURVE SMOOTH",
"91 253 OFFCURVE",
"83 341 OFFCURVE",
"83 390 CURVE SMOOTH",
"83 579 OFFCURVE",
"285 658 OFFCURVE",
"446 658 CURVE SMOOTH",
"591 658 OFFCURVE",
"724 605 OFFCURVE",
"861 564 CURVE SMOOTH",
"888 556 OFFCURVE",
"915 550 OFFCURVE",
"943 550 CURVE SMOOTH",
"990 550 OFFCURVE",
"1005 565 OFFCURVE",
"1039 590 CURVE SMOOTH",
"1043 593 OFFCURVE",
"1047 596 OFFCURVE",
"1047 601 CURVE SMOOTH",
"1047 603 OFFCURVE",
"1046 604 OFFCURVE",
"1044 604 CURVE SMOOTH",
"1040 604 OFFCURVE",
"1031 596 OFFCURVE",
"1012 596 CURVE SMOOTH",
"968 596 OFFCURVE",
"905 615 OFFCURVE",
"863 627 CURVE SMOOTH",
"752 660 OFFCURVE",
"634 692 OFFCURVE",
"518 692 CURVE SMOOTH",
"328 692 OFFCURVE",
"30 605 OFFCURVE",
"30 370 CURVE SMOOTH",
"30 316 OFFCURVE",
"59 276 OFFCURVE",
"108 254 CURVE SMOOTH",
"121 248 OFFCURVE",
"137 244 OFFCURVE",
"151 244 CURVE SMOOTH"
);
},
{
closed = 1;
nodes = (
"394 191 OFFCURVE",
"404 209 OFFCURVE",
"407 214 CURVE SMOOTH",
"440 283 OFFCURVE",
"478 364 OFFCURVE",
"478 442 CURVE SMOOTH",
"478 469 OFFCURVE",
"474 513 OFFCURVE",
"437 513 CURVE SMOOTH",
"407 513 OFFCURVE",
"385 485 OFFCURVE",
"373 460 CURVE SMOOTH",
"372 458 OFFCURVE",
"371 456 OFFCURVE",
"371 454 CURVE SMOOTH",
"371 453 OFFCURVE",
"372 451 OFFCURVE",
"373 451 CURVE SMOOTH",
"380 451 OFFCURVE",
"380 466 OFFCURVE",
"395 466 CURVE SMOOTH",
"416 466 OFFCURVE",
"417 428 OFFCURVE",
"417 410 CURVE SMOOTH",
"417 347 OFFCURVE",
"406 279 OFFCURVE",
"390 218 CURVE SMOOTH",
"388 211 OFFCURVE",
"386 204 OFFCURVE",
"386 196 CURVE SMOOTH",
"386 195 OFFCURVE",
"386 191 OFFCURVE",
"388 191 CURVE SMOOTH"
);
}
);
width = 894;
}
);
note = V;
unicode = 0056;
},
{
glyphname = W;
lastChange = "2021-11-27 15:47:14 +0000";
layers = (
{
hints = (
{
horizontal = 1;
place = "{604, 47}";
type = Stem;
},
{
place = "{583, 41}";
type = Stem;
}
);
layerId = "9E0C627C-9F9A-47B5-8A8C-706F30D5AE4A";
paths = (
{
closed = 1;
nodes = (
"445 -43 OFFCURVE",
"446 -40 OFFCURVE",
"449 -33 CURVE",
"512 82 OFFCURVE",
"600 218 OFFCURVE",
"698 306 CURVE SMOOTH",
"742 346 OFFCURVE",
"843 442 OFFCURVE",
"903 442 CURVE SMOOTH",
"958 442 OFFCURVE",
"962 367 OFFCURVE",
"962 329 CURVE SMOOTH",
"962 296 OFFCURVE",
"958 264 OFFCURVE",
"954 233 CURVE SMOOTH",
"946 167 OFFCURVE",
"938 101 OFFCURVE",
"924 37 CURVE",
"924 35 OFFCURVE",
"923 33 OFFCURVE",
"923 31 CURVE SMOOTH",
"923 8 OFFCURVE",
"953 -11 OFFCURVE",
"974 -11 CURVE SMOOTH",
"983 -11 OFFCURVE",
"989 -8 OFFCURVE",
"995 0 CURVE SMOOTH",
"1004 15 OFFCURVE",
"1013 32 OFFCURVE",
"1021 48 CURVE SMOOTH",
"1041 82 OFFCURVE",
"1060 116 OFFCURVE",
"1079 150 CURVE SMOOTH",
"1138 255 OFFCURVE",
"1199 359 OFFCURVE",
"1264 459 CURVE SMOOTH",
"1302 516 OFFCURVE",
"1342 577 OFFCURVE",
"1391 624 CURVE SMOOTH",
"1449 679 OFFCURVE",
"1510 731 OFFCURVE",
"1594 731 CURVE SMOOTH",
"1625 731 OFFCURVE",
"1697 724 OFFCURVE",
"1697 680 CURVE SMOOTH",
"1697 669 OFFCURVE",
"1690 660 OFFCURVE",
"1690 651 CURVE SMOOTH",
"1690 649 OFFCURVE",
"1690 648 OFFCURVE",
"1691 648 CURVE SMOOTH",
"1703 648 OFFCURVE",
"1719 695 OFFCURVE",
"1719 706 CURVE SMOOTH",
"1719 748 OFFCURVE",
"1663 755 OFFCURVE",
"1632 755 CURVE SMOOTH",
"1325 755 OFFCURVE",
"1141 345 OFFCURVE",
"999 125 CURVE",
"1013 204 OFFCURVE",
"1029 290 OFFCURVE",
"1029 371 CURVE SMOOTH",
"1029 420 OFFCURVE",
"1023 503 OFFCURVE",
"956 503 CURVE SMOOTH",
"881 503 OFFCURVE",
"757 392 OFFCURVE",
"702 344 CURVE SMOOTH",
"624 274 OFFCURVE",
"525 161 OFFCURVE",
"471 73 CURVE",
"497 219 OFFCURVE",
"620 477 OFFCURVE",
"727 583 CURVE",
"728 585 OFFCURVE",
"729 587 OFFCURVE",
"729 589 CURVE SMOOTH",
"729 592 OFFCURVE",
"727 595 OFFCURVE",
"723 595 CURVE SMOOTH",
"722 595 OFFCURVE",
"721 595 OFFCURVE",
"720 594 CURVE SMOOTH",
"539 437 OFFCURVE",
"424 253 OFFCURVE",
"384 14 CURVE",
"384 9 LINE SMOOTH",
"384 -15 OFFCURVE",
"412 -43 OFFCURVE",
"436 -43 CURVE SMOOTH"
);
},
{
closed = 1;
nodes = (
"154 244 OFFCURVE",
"164 245 OFFCURVE",
"164 249 CURVE SMOOTH",
"164 253 OFFCURVE",
"159 253 OFFCURVE",
"157 253 CURVE SMOOTH",
"91 253 OFFCURVE",
"82 341 OFFCURVE",
"82 390 CURVE SMOOTH",
"82 579 OFFCURVE",
"285 658 OFFCURVE",
"446 658 CURVE SMOOTH",
"591 658 OFFCURVE",
"724 605 OFFCURVE",
"861 564 CURVE SMOOTH",
"888 556 OFFCURVE",
"915 550 OFFCURVE",
"943 550 CURVE SMOOTH",
"990 550 OFFCURVE",
"1005 565 OFFCURVE",
"1039 590 CURVE SMOOTH",
"1043 593 OFFCURVE",
"1047 596 OFFCURVE",
"1047 601 CURVE SMOOTH",
"1047 603 OFFCURVE",
"1046 604 OFFCURVE",
"1044 604 CURVE SMOOTH",
"1040 604 OFFCURVE",
"1031 596 OFFCURVE",
"1012 596 CURVE SMOOTH",
"968 596 OFFCURVE",
"905 615 OFFCURVE",
"863 627 CURVE SMOOTH",
"752 660 OFFCURVE",
"634 692 OFFCURVE",
"518 692 CURVE SMOOTH",
"328 692 OFFCURVE",
"30 605 OFFCURVE",
"30 370 CURVE SMOOTH",
"30 316 OFFCURVE",
"59 276 OFFCURVE",
"108 254 CURVE SMOOTH",
"121 248 OFFCURVE",
"137 244 OFFCURVE",
"151 244 CURVE SMOOTH"
);
},
{
closed = 1;
nodes = (
"389 191 OFFCURVE",
"399 209 OFFCURVE",
"402 214 CURVE SMOOTH",
"435 283 OFFCURVE",
"473 364 OFFCURVE",
"473 442 CURVE SMOOTH",
"473 469 OFFCURVE",
"469 513 OFFCURVE",
"432 513 CURVE SMOOTH",
"402 513 OFFCURVE",
"380 485 OFFCURVE",
"368 460 CURVE SMOOTH",
"367 458 OFFCURVE",
"366 456 OFFCURVE",
"366 454 CURVE SMOOTH",
"366 453 OFFCURVE",
"367 451 OFFCURVE",
"368 451 CURVE SMOOTH",
"375 451 OFFCURVE",
"375 466 OFFCURVE",
"390 466 CURVE SMOOTH",
"411 466 OFFCURVE",
"412 428 OFFCURVE",
"412 410 CURVE SMOOTH",
"412 347 OFFCURVE",
"401 279 OFFCURVE",
"385 218 CURVE SMOOTH",
"383 211 OFFCURVE",
"381 204 OFFCURVE",
"381 196 CURVE SMOOTH",
"381 195 OFFCURVE",
"381 191 OFFCURVE",
"383 191 CURVE SMOOTH"
);
}
);
width = 1187;
}
);
note = W;
unicode = 0057;
},
{
glyphname = X;
lastChange = "2021-11-27 15:47:14 +0000";
layers = (
{
hints = (
{
horizontal = 1;
place = "{575, -20}";
target = down;
type = TopGhost;
}
);
layerId = "9E0C627C-9F9A-47B5-8A8C-706F30D5AE4A";
paths = (
{
closed = 1;
nodes = (
"857 -270 OFFCURVE",
"894 -221 OFFCURVE",
"894 -160 CURVE SMOOTH",
"894 -143 OFFCURVE",
"884 -87 OFFCURVE",
"861 -87 CURVE SMOOTH",
"859 -87 OFFCURVE",
"857 -88 OFFCURVE",
"857 -90 CURVE SMOOTH",
"857 -92 LINE",
"866 -107 OFFCURVE",
"869 -121 OFFCURVE",
"869 -138 CURVE SMOOTH",
"869 -187 OFFCURVE",
"840 -248 OFFCURVE",
"784 -248 CURVE SMOOTH",
"707 -248 OFFCURVE",
"631 -137 OFFCURVE",
"597 -81 CURVE SMOOTH",
"537 15 OFFCURVE",
"490 140 OFFCURVE",
"451 245 CURVE",
"527 302 OFFCURVE",
"602 362 OFFCURVE",
"666 433 CURVE SMOOTH",
"714 487 OFFCURVE",
"740 554 OFFCURVE",
"740 626 CURVE SMOOTH",
"740 673 OFFCURVE",
"727 731 OFFCURVE",
"697 768 CURVE SMOOTH",
"695 770 OFFCURVE",
"693 772 OFFCURVE",
"690 772 CURVE SMOOTH",
"686 772 OFFCURVE",
"683 768 OFFCURVE",
"683 764 CURVE SMOOTH",
"683 762 OFFCURVE",
"683 760 OFFCURVE",
"685 758 CURVE",
"701 735 OFFCURVE",
"706 713 OFFCURVE",
"706 685 CURVE SMOOTH",
"706 522 OFFCURVE",
"549 384 OFFCURVE",
"435 287 CURVE",
"401 379 OFFCURVE",
"369 471 OFFCURVE",
"335 562 CURVE SMOOTH",
"311 628 OFFCURVE",
"272 719 OFFCURVE",
"189 719 CURVE SMOOTH",
"96 719 OFFCURVE",
"43 622 OFFCURVE",
"43 539 CURVE SMOOTH",
"43 535 OFFCURVE",
"44 521 OFFCURVE",
"51 521 CURVE SMOOTH",
"56 521 OFFCURVE",
"57 531 OFFCURVE",
"58 535 CURVE SMOOTH",
"60 546 OFFCURVE",
"63 555 OFFCURVE",
"67 565 CURVE SMOOTH",
"78 594 OFFCURVE",
"128 682 OFFCURVE",
"163 682 CURVE SMOOTH",
"219 682 OFFCURVE",
"265 558 OFFCURVE",
"280 516 CURVE SMOOTH",
"314 425 OFFCURVE",
"344 332 OFFCURVE",
"379 241 CURVE",
"277 159 OFFCURVE",
"171 81 OFFCURVE",
"73 -7 CURVE SMOOTH",
"48 -30 OFFCURVE",
"22 -64 OFFCURVE",
"22 -100 CURVE SMOOTH",
"22 -116 OFFCURVE",
"28 -138 OFFCURVE",
"47 -138 CURVE SMOOTH",
"64 -138 OFFCURVE",
"66 -126 OFFCURVE",
"68 -113 CURVE SMOOTH",
"77 -68 OFFCURVE",
"108 -32 OFFCURVE",
"139 0 CURVE SMOOTH",
"216 77 OFFCURVE",
"306 141 OFFCURVE",
"394 204 CURVE",
"435 98 OFFCURVE",
"483 -16 OFFCURVE",
"550 -108 CURVE SMOOTH",
"604 -181 OFFCURVE",
"695 -270 OFFCURVE",
"793 -270 CURVE SMOOTH"
);
},
{
closed = 1;
nodes = (
"332 281 OFFCURVE",
"328 294 OFFCURVE",
"327 298 CURVE SMOOTH",
"312 336 OFFCURVE",
"294 385 OFFCURVE",
"263 413 CURVE SMOOTH",
"252 422 OFFCURVE",
"238 431 OFFCURVE",
"225 431 CURVE SMOOTH",
"217 431 OFFCURVE",
"210 429 OFFCURVE",
"203 421 CURVE SMOOTH",
"194 411 OFFCURVE",
"190 397 OFFCURVE",
"190 383 CURVE SMOOTH",
"190 374 OFFCURVE",
"191 364 OFFCURVE",
"195 356 CURVE",
"195 355 OFFCURVE",
"196 354 OFFCURVE",
"196 353 CURVE",
"197 352 OFFCURVE",
"198 353 OFFCURVE",
"199 353 CURVE",
"202 357 OFFCURVE",
"195 365 OFFCURVE",
"204 375 CURVE SMOOTH",
"207 378 OFFCURVE",
"211 379 OFFCURVE",
"215 379 CURVE SMOOTH",
"230 379 OFFCURVE",
"251 361 OFFCURVE",
"259 353 CURVE SMOOTH",
"281 334 OFFCURVE",
"300 312 OFFCURVE",
"317 288 CURVE SMOOTH",
"319 285 OFFCURVE",
"321 281 OFFCURVE",
"324 279 CURVE SMOOTH",
"325 278 OFFCURVE",
"327 276 OFFCURVE",
"329 278 CURVE SMOOTH"
);
}
);
width = 629;
}
);
note = X;
unicode = 0058;
},
{
glyphname = Y;
lastChange = "2021-11-27 15:47:14 +0000";
layers = (
{
hints = (
{
horizontal = 1;
place = "{315, 40}";
type = Stem;
}
);
layerId = "9E0C627C-9F9A-47B5-8A8C-706F30D5AE4A";
paths = (
{
closed = 1;
nodes = (
"140 291 OFFCURVE",
"150 292 OFFCURVE",
"150 296 CURVE SMOOTH",
"150 300 OFFCURVE",
"145 300 OFFCURVE",
"143 300 CURVE SMOOTH",
"77 300 OFFCURVE",
"68 388 OFFCURVE",
"68 437 CURVE SMOOTH",
"68 626 OFFCURVE",
"271 705 OFFCURVE",
"432 705 CURVE SMOOTH",
"577 705 OFFCURVE",
"710 652 OFFCURVE",
"847 611 CURVE SMOOTH",
"874 603 OFFCURVE",
"901 597 OFFCURVE",
"929 597 CURVE SMOOTH",
"976 597 OFFCURVE",
"991 612 OFFCURVE",
"1025 637 CURVE SMOOTH",
"1029 640 OFFCURVE",
"1033 643 OFFCURVE",
"1033 648 CURVE SMOOTH",
"1033 650 OFFCURVE",
"1032 651 OFFCURVE",
"1030 651 CURVE SMOOTH",
"1026 651 OFFCURVE",
"1017 643 OFFCURVE",
"998 643 CURVE SMOOTH",
"954 643 OFFCURVE",
"891 662 OFFCURVE",
"849 674 CURVE SMOOTH",
"738 707 OFFCURVE",
"620 739 OFFCURVE",
"504 739 CURVE SMOOTH",
"314 739 OFFCURVE",
"16 652 OFFCURVE",
"16 417 CURVE SMOOTH",
"16 363 OFFCURVE",
"45 323 OFFCURVE",
"94 301 CURVE SMOOTH",
"107 295 OFFCURVE",
"123 291 OFFCURVE",
"137 291 CURVE SMOOTH"
);
},
{
closed = 1;
nodes = (
"548 -290 OFFCURVE",
"687 -210 OFFCURVE",
"799 -98 CURVE SMOOTH",
"1009 112 OFFCURVE",
"1128 388 OFFCURVE",
"1235 660 CURVE SMOOTH",
"1236 662 OFFCURVE",
"1237 665 OFFCURVE",
"1237 667 CURVE SMOOTH",
"1237 679 OFFCURVE",
"1222 682 OFFCURVE",
"1213 682 CURVE SMOOTH",
"1204 682 OFFCURVE",
"1195 680 OFFCURVE",
"1187 677 CURVE",
"1184 678 LINE",
"1181 678 OFFCURVE",
"1179 675 OFFCURVE",
"1178 673 CURVE",
"1153 663 OFFCURVE",
"1142 647 OFFCURVE",
"1136 622 CURVE",
"996 447 OFFCURVE",
"870 256 OFFCURVE",
"697 110 CURVE SMOOTH",
"656 76 OFFCURVE",
"587 27 OFFCURVE",
"532 27 CURVE SMOOTH",
"494 27 OFFCURVE",
"479 46 OFFCURVE",
"479 84 CURVE SMOOTH",
"479 135 OFFCURVE",
"506 209 OFFCURVE",
"526 256 CURVE SMOOTH",
"572 362 OFFCURVE",
"667 520 OFFCURVE",
"756 594 CURVE SMOOTH",
"758 596 OFFCURVE",
"762 599 OFFCURVE",
"762 602 CURVE SMOOTH",
"762 606 OFFCURVE",
"756 606 OFFCURVE",
"753 606 CURVE SMOOTH",
"748 606 OFFCURVE",
"742 604 OFFCURVE",
"737 602 CURVE SMOOTH",
"710 588 OFFCURVE",
"679 559 OFFCURVE",
"658 537 CURVE SMOOTH",
"572 452 OFFCURVE",
"471 311 OFFCURVE",
"426 199 CURVE SMOOTH",
"410 161 OFFCURVE",
"397 117 OFFCURVE",
"397 76 CURVE SMOOTH",
"397 16 OFFCURVE",
"425 -25 OFFCURVE",
"488 -25 CURVE SMOOTH",
"522 -25 OFFCURVE",
"560 -13 OFFCURVE",
"591 0 CURVE SMOOTH",
"820 97 OFFCURVE",
"978 386 OFFCURVE",
"1121 580 CURVE",
"1039 346 OFFCURVE",
"930 130 OFFCURVE",
"766 -58 CURVE SMOOTH",
"707 -125 OFFCURVE",
"623 -207 OFFCURVE",
"538 -239 CURVE SMOOTH",
"503 -253 OFFCURVE",
"465 -259 OFFCURVE",
"427 -259 CURVE SMOOTH",
"334 -259 OFFCURVE",
"244 -222 OFFCURVE",
"227 -120 CURVE",
"227 -112 LINE SMOOTH",
"227 -82 OFFCURVE",
"248 -69 OFFCURVE",
"248 -62 CURVE SMOOTH",
"248 -61 OFFCURVE",
"247 -60 OFFCURVE",
"246 -60 CURVE SMOOTH",
"243 -60 OFFCURVE",
"240 -62 OFFCURVE",
"239 -64 CURVE",
"213 -87 OFFCURVE",
"200 -129 OFFCURVE",
"200 -164 CURVE SMOOTH",
"200 -261 OFFCURVE",
"306 -290 OFFCURVE",
"386 -290 CURVE SMOOTH"
);
},
{
closed = 1;
nodes = (
"387 191 OFFCURVE",
"397 209 OFFCURVE",
"400 214 CURVE SMOOTH",
"433 283 OFFCURVE",
"471 364 OFFCURVE",
"471 442 CURVE SMOOTH",
"471 469 OFFCURVE",
"467 513 OFFCURVE",
"430 513 CURVE SMOOTH",
"400 513 OFFCURVE",
"378 485 OFFCURVE",
"366 460 CURVE SMOOTH",
"365 458 OFFCURVE",
"364 456 OFFCURVE",
"364 454 CURVE SMOOTH",
"364 453 OFFCURVE",
"365 451 OFFCURVE",
"366 451 CURVE SMOOTH",
"373 451 OFFCURVE",
"373 466 OFFCURVE",
"388 466 CURVE SMOOTH",
"409 466 OFFCURVE",
"410 428 OFFCURVE",
"410 410 CURVE SMOOTH",
"410 347 OFFCURVE",
"399 279 OFFCURVE",
"383 218 CURVE SMOOTH",
"381 211 OFFCURVE",
"379 204 OFFCURVE",
"379 196 CURVE SMOOTH",
"379 195 OFFCURVE",
"379 191 OFFCURVE",
"381 191 CURVE SMOOTH"
);
}
);
width = 1056;
}
);
note = Y;
unicode = 0059;
},
{
glyphname = Z;
lastChange = "2021-11-27 15:47:14 +0000";
layers = (
{
hints = (
{
horizontal = 1;
place = "{547, -20}";
target = down;
type = TopGhost;
}
);
layerId = "9E0C627C-9F9A-47B5-8A8C-706F30D5AE4A";
paths = (
{
closed = 1;
nodes = (
"1195 691 OFFCURVE",
"1188 687 OFFCURVE",
"1179 687 CURVE SMOOTH",
"1177 687 LINE",
"1170 687 LINE SMOOTH",
"1014 692 OFFCURVE",
"862 740 OFFCURVE",
"706 754 CURVE SMOOTH",
"697 755 OFFCURVE",
"688 755 OFFCURVE",
"679 755 CURVE SMOOTH",
"537 755 OFFCURVE",
"251 659 OFFCURVE",
"251 485 CURVE SMOOTH",
"251 430 OFFCURVE",
"280 381 OFFCURVE",
"339 381 CURVE SMOOTH",
"343 381 OFFCURVE",
"365 381 OFFCURVE",
"365 386 CURVE SMOOTH",
"365 389 OFFCURVE",
"359 389 OFFCURVE",
"358 389 CURVE SMOOTH",
"312 389 OFFCURVE",
"301 427 OFFCURVE",
"301 466 CURVE SMOOTH",
"301 477 OFFCURVE",
"301 488 OFFCURVE",
"303 499 CURVE SMOOTH",
"327 659 OFFCURVE",
"449 706 OFFCURVE",
"595 706 CURVE SMOOTH",
"714 706 OFFCURVE",
"863 676 OFFCURVE",
"979 649 CURVE",
"887 549 OFFCURVE",
"787 455 OFFCURVE",
"688 360 CURVE",
"619 360 LINE",
"641 397 OFFCURVE",
"660 436 OFFCURVE",
"668 477 CURVE SMOOTH",
"670 486 OFFCURVE",
"672 498 OFFCURVE",
"672 510 CURVE SMOOTH",
"672 533 OFFCURVE",
"664 556 OFFCURVE",
"633 556 CURVE SMOOTH",
"607 556 OFFCURVE",
"583 535 OFFCURVE",
"569 515 CURVE",
"567 514 OFFCURVE",
"566 512 OFFCURVE",
"565 509 CURVE SMOOTH",
"565 508 OFFCURVE",
"566 507 OFFCURVE",
"567 506 CURVE",
"573 505 OFFCURVE",
"576 517 OFFCURVE",
"587 517 CURVE SMOOTH",
"591 517 LINE SMOOTH",
"603 515 OFFCURVE",
"606 502 OFFCURVE",
"606 488 CURVE SMOOTH",
"606 474 OFFCURVE",
"603 460 OFFCURVE",
"602 453 CURVE SMOOTH",
"596 422 OFFCURVE",
"587 391 OFFCURVE",
"576 360 CURVE",
"456 360 LINE SMOOTH",
"440 360 OFFCURVE",
"402 309 OFFCURVE",
"402 294 CURVE SMOOTH",
"402 293 OFFCURVE",
"402 291 OFFCURVE",
"404 291 CURVE SMOOTH",
"406 291 LINE",
"425 295 OFFCURVE",
"443 300 OFFCURVE",
"462 304 CURVE SMOOTH",
"494 311 OFFCURVE",
"527 315 OFFCURVE",
"559 319 CURVE",
"553 304 OFFCURVE",
"546 289 OFFCURVE",
"539 274 CURVE SMOOTH",
"535 267 OFFCURVE",
"531 258 OFFCURVE",
"531 250 CURVE SMOOTH",
"531 249 OFFCURVE",
"531 248 OFFCURVE",
"532 248 CURVE SMOOTH",
"538 247 OFFCURVE",
"552 263 OFFCURVE",
"555 267 CURVE SMOOTH",
"568 285 OFFCURVE",
"582 304 OFFCURVE",
"595 323 CURVE",
"615 325 OFFCURVE",
"636 326 OFFCURVE",
"656 328 CURVE",
"566 243 OFFCURVE",
"477 157 OFFCURVE",
"385 74 CURVE",
"323 87 OFFCURVE",
"236 107 OFFCURVE",
"175 107 CURVE SMOOTH",
"117 107 OFFCURVE",
"49 92 OFFCURVE",
"15 41 CURVE",
"15 40 OFFCURVE",
"14 39 OFFCURVE",
"14 38 CURVE SMOOTH",
"14 33 OFFCURVE",
"21 31 OFFCURVE",
"24 31 CURVE SMOOTH",
"28 31 OFFCURVE",
"30 32 OFFCURVE",
"32 34 CURVE SMOOTH",
"58 65 OFFCURVE",
"96 69 OFFCURVE",
"135 69 CURVE SMOOTH",
"204 69 OFFCURVE",
"278 56 OFFCURVE",
"345 39 CURVE",
"292 -4 OFFCURVE",
"174 -83 OFFCURVE",
"105 -83 CURVE SMOOTH",
"86 -83 OFFCURVE",
"54 -78 OFFCURVE",
"54 -54 CURVE SMOOTH",
"54 -26 OFFCURVE",
"89 9 OFFCURVE",
"89 12 CURVE SMOOTH",
"89 15 OFFCURVE",
"85 15 OFFCURVE",
"83 15 CURVE SMOOTH",
"55 15 OFFCURVE",
"23 -29 OFFCURVE",
"23 -56 CURVE SMOOTH",
"23 -95 OFFCURVE",
"61 -110 OFFCURVE",
"94 -110 CURVE SMOOTH",
"206 -110 OFFCURVE",
"302 -39 OFFCURVE",
"386 28 CURVE",
"553 -20 OFFCURVE",
"714 -88 OFFCURVE",
"885 -123 CURVE SMOOTH",
"916 -129 OFFCURVE",
"948 -131 OFFCURVE",
"979 -131 CURVE SMOOTH",
"1029 -131 OFFCURVE",
"1148 -124 OFFCURVE",
"1148 -53 CURVE SMOOTH",
"1148 -36 OFFCURVE",
"1141 9 OFFCURVE",
"1119 9 CURVE SMOOTH",
"1118 9 OFFCURVE",
"1116 8 OFFCURVE",
"1116 7 CURVE SMOOTH",
"1116 -2 OFFCURVE",
"1122 -12 OFFCURVE",
"1122 -22 CURVE SMOOTH",
"1122 -58 OFFCURVE",
"1082 -61 OFFCURVE",
"1055 -61 CURVE SMOOTH",
"1022 -61 OFFCURVE",
"990 -57 OFFCURVE",
"958 -52 CURVE SMOOTH",
"780 -25 OFFCURVE",
"607 26 OFFCURVE",
"431 64 CURVE",
"534 149 OFFCURVE",
"633 240 OFFCURVE",
"730 333 CURVE",
"766 335 OFFCURVE",
"801 337 OFFCURVE",
"837 338 CURVE SMOOTH",
"854 339 OFFCURVE",
"873 338 OFFCURVE",
"890 340 CURVE SMOOTH",
"896 341 OFFCURVE",
"905 342 OFFCURVE",
"905 350 CURVE SMOOTH",
"905 358 OFFCURVE",
"895 360 OFFCURVE",
"889 360 CURVE SMOOTH",
"757 360 LINE",
"850 450 OFFCURVE",
"941 543 OFFCURVE",
"1029 637 CURVE",
"1055 630 OFFCURVE",
"1081 621 OFFCURVE",
"1108 621 CURVE SMOOTH",
"1137 621 OFFCURVE",
"1156 631 OFFCURVE",
"1173 653 CURVE SMOOTH",
"1179 662 OFFCURVE",
"1184 670 OFFCURVE",
"1193 677 CURVE SMOOTH",
"1197 680 OFFCURVE",
"1202 683 OFFCURVE",
"1202 689 CURVE SMOOTH",
"1202 690 OFFCURVE",
"1201 691 OFFCURVE",
"1200 691 CURVE SMOOTH"
);
}
);
width = 889;
}
);
note = Z;
unicode = 005A;
},
{
glyphname = a;
lastChange = "2021-11-27 15:47:14 +0000";
layers = (
{
hints = (
{
horizontal = 1;
place = "{371, -20}";
target = down;
type = TopGhost;
}
);
layerId = "9E0C627C-9F9A-47B5-8A8C-706F30D5AE4A";
paths = (
{
closed = 1;
nodes = (
"40 -11 OFFCURVE",
"63 -1 OFFCURVE",
"83 11 CURVE SMOOTH",
"139 45 OFFCURVE",
"192 86 OFFCURVE",
"243 126 CURVE SMOOTH",
"289 162 OFFCURVE",
"338 197 OFFCURVE",
"381 237 CURVE",
"358 208 OFFCURVE",
"234 31 OFFCURVE",
"234 8 CURVE SMOOTH",
"234 -3 OFFCURVE",
"283 -7 OFFCURVE",
"291 -7 CURVE SMOOTH",
"308 -7 OFFCURVE",
"326 -5 OFFCURVE",
"334 11 CURVE SMOOTH",
"339 20 OFFCURVE",
"342 28 OFFCURVE",
"348 36 CURVE SMOOTH",
"387 89 OFFCURVE",
"497 168 OFFCURVE",
"558 195 CURVE",
"557 198 OFFCURVE",
"556 202 OFFCURVE",
"552 202 CURVE SMOOTH",
"551 202 OFFCURVE",
"535 196 OFFCURVE",
"534 195 CURVE",
"477 173 OFFCURVE",
"409 126 OFFCURVE",
"363 86 CURVE",
"361 85 OFFCURVE",
"357 81 OFFCURVE",
"354 81 CURVE SMOOTH",
"351 81 OFFCURVE",
"351 85 OFFCURVE",
"351 87 CURVE SMOOTH",
"351 97 OFFCURVE",
"357 109 OFFCURVE",
"361 118 CURVE SMOOTH",
"396 193 OFFCURVE",
"435 267 OFFCURVE",
"491 329 CURVE SMOOTH",
"502 342 OFFCURVE",
"521 352 OFFCURVE",
"537 356 CURVE",
"533 366 OFFCURVE",
"392 371 OFFCURVE",
"375 371 CURVE SMOOTH",
"354 371 OFFCURVE",
"298 371 OFFCURVE",
"281 359 CURVE SMOOTH",
"177 289 OFFCURVE",
"90 172 OFFCURVE",
"32 61 CURVE SMOOTH",
"21 40 OFFCURVE",
"6 15 OFFCURVE",
"0 -8 CURVE",
"5 -10 OFFCURVE",
"11 -11 OFFCURVE",
"16 -11 CURVE SMOOTH"
);
},
{
closed = 1;
nodes = (
"107 64 OFFCURVE",
"105 67 OFFCURVE",
"105 70 CURVE SMOOTH",
"105 79 OFFCURVE",
"113 94 OFFCURVE",
"117 101 CURVE SMOOTH",
"151 171 OFFCURVE",
"235 288 OFFCURVE",
"297 333 CURVE SMOOTH",
"304 338 OFFCURVE",
"318 338 OFFCURVE",
"326 338 CURVE SMOOTH",
"346 338 OFFCURVE",
"407 338 OFFCURVE",
"407 310 CURVE SMOOTH",
"407 293 OFFCURVE",
"388 274 OFFCURVE",
"377 263 CURVE SMOOTH",
"312 201 OFFCURVE",
"216 124 OFFCURVE",
"139 77 CURVE SMOOTH",
"132 73 OFFCURVE",
"119 64 OFFCURVE",
"111 64 CURVE SMOOTH"
);
}
);
width = 431;
}
);
note = a;
unicode = 0061;
},
{
glyphname = ae;
lastChange = "2021-11-27 15:47:14 +0000";
layers = (
{
hints = (
{
horizontal = 1;
place = "{-11, 20}";
type = Stem;
},
{
horizontal = 1;
place = "{365, 13}";
type = Stem;
}
);
layerId = "9E0C627C-9F9A-47B5-8A8C-706F30D5AE4A";
paths = (
{
closed = 1;
nodes = (
"40 -11 OFFCURVE",
"64 -1 OFFCURVE",
"83 11 CURVE SMOOTH",
"143 48 OFFCURVE",
"199 92 OFFCURVE",
"255 135 CURVE SMOOTH",
"297 168 OFFCURVE",
"342 201 OFFCURVE",
"381 237 CURVE",
"358 208 OFFCURVE",
"234 31 OFFCURVE",
"234 8 CURVE SMOOTH",
"234 -3 OFFCURVE",
"285 -8 OFFCURVE",
"294 -8 CURVE SMOOTH",
"326 -8 OFFCURVE",
"357 -1 OFFCURVE",
"387 3 CURVE SMOOTH",
"450 12 OFFCURVE",
"543 67 OFFCURVE",
"586 111 CURVE SMOOTH",
"590 116 OFFCURVE",
"593 121 OFFCURVE",
"593 127 CURVE SMOOTH",
"593 130 OFFCURVE",
"592 134 OFFCURVE",
"589 134 CURVE SMOOTH",
"587 134 OFFCURVE",
"585 132 OFFCURVE",
"584 131 CURVE SMOOTH",
"538 94 OFFCURVE",
"447 32 OFFCURVE",
"387 32 CURVE SMOOTH",
"365 32 OFFCURVE",
"349 42 OFFCURVE",
"349 66 CURVE SMOOTH",
"349 102 OFFCURVE",
"385 155 OFFCURVE",
"405 186 CURVE",
"410 178 OFFCURVE",
"420 166 OFFCURVE",
"431 166 CURVE",
"456 175 LINE SMOOTH",
"475 181 OFFCURVE",
"493 187 OFFCURVE",
"512 192 CURVE SMOOTH",
"555 203 OFFCURVE",
"594 204 OFFCURVE",
"637 210 CURVE SMOOTH",
"638 210 OFFCURVE",
"640 210 OFFCURVE",
"641 212 CURVE",
"635 228 OFFCURVE",
"571 228 OFFCURVE",
"558 228 CURVE",
"602 248 OFFCURVE",
"673 323 OFFCURVE",
"693 367 CURVE SMOOTH",
"696 375 OFFCURVE",
"703 387 OFFCURVE",
"703 396 CURVE SMOOTH",
"703 404 OFFCURVE",
"696 407 OFFCURVE",
"688 407 CURVE SMOOTH",
"669 407 OFFCURVE",
"632 396 OFFCURVE",
"625 376 CURVE",
"617 378 OFFCURVE",
"608 378 OFFCURVE",
"599 378 CURVE SMOOTH",
"574 378 OFFCURVE",
"542 374 OFFCURVE",
"520 361 CURVE",
"473 369 OFFCURVE",
"423 371 OFFCURVE",
"375 371 CURVE SMOOTH",
"355 371 OFFCURVE",
"298 371 OFFCURVE",
"281 359 CURVE SMOOTH",
"175 286 OFFCURVE",
"92 175 OFFCURVE",
"32 61 CURVE SMOOTH",
"21 40 OFFCURVE",
"6 15 OFFCURVE",
"0 -8 CURVE",
"5 -10 OFFCURVE",
"11 -11 OFFCURVE",
"16 -11 CURVE SMOOTH"
);
},
{
closed = 1;
nodes = (
"456 260 OFFCURVE",
"537 366 OFFCURVE",
"602 366 CURVE SMOOTH",
"605 366 OFFCURVE",
"622 364 OFFCURVE",
"622 362 CURVE",
"621 360 LINE",
"615 316 OFFCURVE",
"585 279 OFFCURVE",
"552 248 CURVE SMOOTH",
"546 243 OFFCURVE",
"538 235 OFFCURVE",
"534 228 CURVE",
"496 226 OFFCURVE",
"458 220 OFFCURVE",
"421 210 CURVE"
);
},
{
closed = 1;
nodes = (
"107 64 OFFCURVE",
"105 67 OFFCURVE",
"105 70 CURVE SMOOTH",
"105 79 OFFCURVE",
"113 94 OFFCURVE",
"117 101 CURVE SMOOTH",
"151 171 OFFCURVE",
"235 288 OFFCURVE",
"297 333 CURVE SMOOTH",
"304 338 OFFCURVE",
"318 338 OFFCURVE",
"326 338 CURVE SMOOTH",
"346 338 OFFCURVE",
"407 338 OFFCURVE",
"407 310 CURVE SMOOTH",
"407 293 OFFCURVE",
"388 274 OFFCURVE",
"377 263 CURVE SMOOTH",
"312 201 OFFCURVE",
"216 124 OFFCURVE",
"139 77 CURVE SMOOTH",
"132 73 OFFCURVE",
"119 64 OFFCURVE",
"111 64 CURVE SMOOTH"
);
}
);
width = 594;
}
);
note = ae;
unicode = 00E6;
},
{
glyphname = b;
lastChange = "2021-11-27 15:47:14 +0000";
layers = (
{
hints = (
{
horizontal = 1;
place = "{-13, 22}";
type = Stem;
},
{
horizontal = 1;
place = "{366, -20}";
target = down;
type = TopGhost;
},
{
horizontal = 1;
place = "{530, 34}";
type = Stem;
},
{
place = "{0, 475}";
type = Stem;
}
);
layerId = "9E0C627C-9F9A-47B5-8A8C-706F30D5AE4A";
paths = (
{
closed = 1;
nodes = (
"192 -13 OFFCURVE",
"223 -10 OFFCURVE",
"244 5 CURVE SMOOTH",
"328 64 OFFCURVE",
"426 191 OFFCURVE",
"462 288 CURVE SMOOTH",
"468 304 OFFCURVE",
"475 325 OFFCURVE",
"475 343 CURVE SMOOTH",
"475 356 OFFCURVE",
"470 366 OFFCURVE",
"456 366 CURVE SMOOTH",
"431 366 OFFCURVE",
"389 338 OFFCURVE",
"369 324 CURVE SMOOTH",
"327 295 OFFCURVE",
"185 188 OFFCURVE",
"158 149 CURVE",
"163 174 OFFCURVE",
"190 225 OFFCURVE",
"202 248 CURVE SMOOTH",
"238 317 OFFCURVE",
"361 530 OFFCURVE",
"448 530 CURVE SMOOTH",
"450 530 OFFCURVE",
"454 530 OFFCURVE",
"454 533 CURVE SMOOTH",
"454 535 OFFCURVE",
"452 537 OFFCURVE",
"450 538 CURVE",
"432 553 OFFCURVE",
"412 564 OFFCURVE",
"387 564 CURVE SMOOTH",
"335 564 OFFCURVE",
"294 516 OFFCURVE",
"274 473 CURVE SMOOTH",
"161 233 LINE SMOOTH",
"138 184 OFFCURVE",
"98 113 OFFCURVE",
"62 73 CURVE SMOOTH",
"43 50 OFFCURVE",
"20 29 OFFCURVE",
"0 7 CURVE",
"8 8 OFFCURVE",
"15 8 OFFCURVE",
"23 8 CURVE SMOOTH",
"42 8 OFFCURVE",
"60 5 OFFCURVE",
"79 0 CURVE SMOOTH",
"108 -8 OFFCURVE",
"137 -13 OFFCURVE",
"167 -13 CURVE SMOOTH"
);
},
{
closed = 1;
nodes = (
"125 9 OFFCURVE",
"114 16 OFFCURVE",
"114 32 CURVE SMOOTH",
"114 51 OFFCURVE",
"127 74 OFFCURVE",
"137 90 CURVE SMOOTH",
"163 134 OFFCURVE",
"329 286 OFFCURVE",
"380 286 CURVE SMOOTH",
"388 286 OFFCURVE",
"392 281 OFFCURVE",
"392 273 CURVE SMOOTH",
"392 261 OFFCURVE",
"386 247 OFFCURVE",
"381 237 CURVE SMOOTH",
"353 174 OFFCURVE",
"278 92 OFFCURVE",
"225 48 CURVE SMOOTH",
"204 30 OFFCURVE",
"168 9 OFFCURVE",
"140 9 CURVE SMOOTH"
);
}
);
width = 389;
}
);
note = b;
unicode = 0062;
},
{
glyphname = c;
lastChange = "2021-11-27 15:47:14 +0000";
layers = (
{
hints = (
{
horizontal = 1;
place = "{382, -20}";
target = down;
type = TopGhost;
}
);
layerId = "9E0C627C-9F9A-47B5-8A8C-706F30D5AE4A";
paths = (
{
closed = 1;
nodes = (
"78 -8 OFFCURVE",
"109 -2 OFFCURVE",
"140 3 CURVE SMOOTH",
"229 16 OFFCURVE",
"339 98 OFFCURVE",
"389 170 CURVE SMOOTH",
"391 173 OFFCURVE",
"393 177 OFFCURVE",
"393 181 CURVE SMOOTH",
"393 183 OFFCURVE",
"392 185 OFFCURVE",
"390 185 CURVE SMOOTH",
"386 185 OFFCURVE",
"383 181 OFFCURVE",
"381 179 CURVE SMOOTH",
"328 125 OFFCURVE",
"218 32 OFFCURVE",
"140 32 CURVE SMOOTH",
"117 32 OFFCURVE",
"102 42 OFFCURVE",
"102 66 CURVE SMOOTH",
"102 125 OFFCURVE",
"215 273 OFFCURVE",
"259 312 CURVE SMOOTH",
"275 326 OFFCURVE",
"300 341 OFFCURVE",
"321 341 CURVE SMOOTH",
"345 341 OFFCURVE",
"353 322 OFFCURVE",
"353 301 CURVE SMOOTH",
"353 292 OFFCURVE",
"351 283 OFFCURVE",
"351 274 CURVE SMOOTH",
"351 271 OFFCURVE",
"351 263 OFFCURVE",
"357 263 CURVE SMOOTH",
"363 263 OFFCURVE",
"365 272 OFFCURVE",
"366 276 CURVE SMOOTH",
"373 301 OFFCURVE",
"383 338 OFFCURVE",
"400 358 CURVE",
"398 368 OFFCURVE",
"337 372 OFFCURVE",
"329 372 CURVE SMOOTH",
"310 372 OFFCURVE",
"285 370 OFFCURVE",
"269 359 CURVE SMOOTH",
"161 287 OFFCURVE",
"59 150 OFFCURVE",
"5 32 CURVE SMOOTH",
"3 27 OFFCURVE",
"0 21 OFFCURVE",
"0 15 CURVE SMOOTH",
"0 -7 OFFCURVE",
"31 -8 OFFCURVE",
"47 -8 CURVE SMOOTH"
);
}
);
width = 319;
}
);
note = c;
unicode = 0063;
},
{
glyphname = d;
lastChange = "2021-11-27 15:47:14 +0000";
layers = (
{
hints = (
{
horizontal = 1;
place = "{-17, 21}";
target = up;
type = BottomGhost;
},
{
horizontal = 1;
place = "{338, 33}";
type = Stem;
},
{
horizontal = 1;
place = "{530, 33}";
type = Stem;
},
{
place = "{4, 685}";
type = Stem;
},
{
horizontal = 1;
place = "{368, -20}";
target = down;
type = TopGhost;
}
);
layerId = "9E0C627C-9F9A-47B5-8A8C-706F30D5AE4A";
paths = (
{
closed = 1;
nodes = (
"218 -43 OFFCURVE",
"220 -42 OFFCURVE",
"221 -41 CURVE SMOOTH",
"292 23 OFFCURVE",
"374 78 OFFCURVE",
"454 129 CURVE SMOOTH",
"490 152 OFFCURVE",
"527 177 OFFCURVE",
"566 195 CURVE",
"566 198 OFFCURVE",
"564 202 OFFCURVE",
"560 202 CURVE SMOOTH",
"559 202 OFFCURVE",
"543 196 OFFCURVE",
"541 195 CURVE SMOOTH",
"479 171 OFFCURVE",
"421 132 OFFCURVE",
"367 94 CURVE",
"365 92 OFFCURVE",
"363 91 OFFCURVE",
"361 91 CURVE SMOOTH",
"355 91 OFFCURVE",
"354 97 OFFCURVE",
"354 101 CURVE SMOOTH",
"354 107 OFFCURVE",
"356 113 OFFCURVE",
"359 119 CURVE SMOOTH",
"406 223 OFFCURVE",
"469 322 OFFCURVE",
"536 414 CURVE SMOOTH",
"572 463 OFFCURVE",
"611 530 OFFCURVE",
"681 530 CURVE SMOOTH",
"682 530 OFFCURVE",
"689 529 OFFCURVE",
"689 531 CURVE SMOOTH",
"689 533 OFFCURVE",
"684 537 OFFCURVE",
"683 538 CURVE SMOOTH",
"665 553 OFFCURVE",
"644 563 OFFCURVE",
"620 563 CURVE SMOOTH",
"609 563 OFFCURVE",
"598 560 OFFCURVE",
"588 555 CURVE SMOOTH",
"554 538 OFFCURVE",
"531 492 OFFCURVE",
"512 461 CURVE SMOOTH",
"493 430 OFFCURVE",
"474 399 OFFCURVE",
"456 368 CURVE",
"429 370 OFFCURVE",
"402 371 OFFCURVE",
"375 371 CURVE SMOOTH",
"354 371 OFFCURVE",
"298 371 OFFCURVE",
"281 359 CURVE SMOOTH",
"175 289 OFFCURVE",
"77 160 OFFCURVE",
"21 47 CURVE SMOOTH",
"14 34 OFFCURVE",
"4 13 OFFCURVE",
"4 -2 CURVE SMOOTH",
"4 -12 OFFCURVE",
"8 -17 OFFCURVE",
"18 -17 CURVE SMOOTH",
"71 -17 OFFCURVE",
"315 182 OFFCURVE",
"368 226 CURVE",
"326 157 OFFCURVE",
"285 88 OFFCURVE",
"244 19 CURVE SMOOTH",
"235 3 OFFCURVE",
"225 -12 OFFCURVE",
"214 -26 CURVE SMOOTH",
"211 -29 OFFCURVE",
"210 -31 OFFCURVE",
"210 -34 CURVE SMOOTH",
"210 -38 OFFCURVE",
"212 -43 OFFCURVE",
"217 -43 CURVE SMOOTH"
);
},
{
closed = 1;
nodes = (
"107 64 OFFCURVE",
"105 67 OFFCURVE",
"105 70 CURVE SMOOTH",
"105 79 OFFCURVE",
"113 93 OFFCURVE",
"116 101 CURVE",
"149 168 OFFCURVE",
"237 291 OFFCURVE",
"297 333 CURVE SMOOTH",
"304 338 OFFCURVE",
"317 338 OFFCURVE",
"325 338 CURVE SMOOTH",
"344 338 OFFCURVE",
"415 336 OFFCURVE",
"415 311 CURVE SMOOTH",
"415 294 OFFCURVE",
"386 271 OFFCURVE",
"375 260 CURVE SMOOTH",
"302 193 OFFCURVE",
"224 129 OFFCURVE",
"139 77 CURVE SMOOTH",
"132 73 OFFCURVE",
"118 64 OFFCURVE",
"110 64 CURVE SMOOTH"
);
}
);
width = 415;
}
);
note = d;
unicode = 0064;
},
{
glyphname = eth;
lastChange = "2021-11-27 15:47:14 +0000";
layers = (
{
hints = (
{
horizontal = 1;
place = "{-336, 42}";
type = Stem;
},
{
horizontal = 1;
place = "{-19, 26}";
type = Stem;
},
{
horizontal = 1;
place = "{449, 14}";
type = Stem;
},
{
place = "{-216, 29}";
type = Stem;
},
{
place = "{-5, 66}";
type = Stem;
},
{
place = "{495, 38}";
type = Stem;
},
{
horizontal = 1;
place = "{496.957, 49.331}";
type = Stem;
}
);
layerId = "9E0C627C-9F9A-47B5-8A8C-706F30D5AE4A";
paths = (
{
closed = 1;
nodes = (
"235 -11 OFFCURVE",
"356 167 OFFCURVE",
"406 245 CURVE SMOOTH",
"442 303 OFFCURVE",
"483 420 OFFCURVE",
"483 530 CURVE SMOOTH",
"483 557 OFFCURVE",
"480 582 OFFCURVE",
"475 607 CURVE",
"494 618 OFFCURVE",
"513 628 OFFCURVE",
"531 639 CURVE SMOOTH",
"540 646 OFFCURVE",
"550 658 OFFCURVE",
"550 670 CURVE SMOOTH",
"550 673 OFFCURVE",
"549 676 OFFCURVE",
"548 679 CURVE SMOOTH",
"547 682 OFFCURVE",
"545 684 OFFCURVE",
"542 683 CURVE SMOOTH",
"489 659 LINE SMOOTH",
"481 655 OFFCURVE",
"472 651 OFFCURVE",
"463 648 CURVE",
"454 672 OFFCURVE",
"441 695 OFFCURVE",
"423 714 CURVE SMOOTH",
"402 736 OFFCURVE",
"375 745 OFFCURVE",
"348 745 CURVE SMOOTH",
"284 745 OFFCURVE",
"218 696 OFFCURVE",
"225 659 CURVE SMOOTH",
"226 654 OFFCURVE",
"229 652 OFFCURVE",
"232 652 CURVE SMOOTH",
"235 652 OFFCURVE",
"239 656 OFFCURVE",
"240 662 CURVE SMOOTH",
"242 685 OFFCURVE",
"269 704 OFFCURVE",
"300 704 CURVE SMOOTH",
"317 704 OFFCURVE",
"335 698 OFFCURVE",
"351 685 CURVE SMOOTH",
"371 668 OFFCURVE",
"386 644 OFFCURVE",
"397 618 CURVE",
"374 607 LINE SMOOTH",
"356 599 OFFCURVE",
"337 591 OFFCURVE",
"320 582 CURVE SMOOTH",
"310 576 OFFCURVE",
"306 561 OFFCURVE",
"306 547 CURVE SMOOTH",
"306 539 OFFCURVE",
"307 532 OFFCURVE",
"309 527 CURVE SMOOTH",
"310 525 OFFCURVE",
"311 522 OFFCURVE",
"315 521 CURVE",
"348 537 OFFCURVE",
"380 554 OFFCURVE",
"412 572 CURVE",
"419 542 OFFCURVE",
"423 510 OFFCURVE",
"423 479 CURVE SMOOTH",
"423 438 OFFCURVE",
"417 399 OFFCURVE",
"406 367 CURVE",
"391 371 OFFCURVE",
"374 373 OFFCURVE",
"358 373 CURVE SMOOTH",
"231 373 OFFCURVE",
"80 261 OFFCURVE",
"35 113 CURVE SMOOTH",
"30 97 OFFCURVE",
"28 82 OFFCURVE",
"28 68 CURVE SMOOTH",
"28 22 OFFCURVE",
"55 -11 OFFCURVE",
"97 -11 CURVE SMOOTH"
);
},
{
closed = 1;
nodes = (
"168 32 OFFCURVE",
"141 18 OFFCURVE",
"122 18 CURVE SMOOTH",
"95 18 OFFCURVE",
"83 45 OFFCURVE",
"83 77 CURVE SMOOTH",
"83 92 OFFCURVE",
"86 110 OFFCURVE",
"92 126 CURVE SMOOTH",
"134 244 OFFCURVE",
"241 345 OFFCURVE",
"357 345 CURVE SMOOTH",
"370 345 OFFCURVE",
"383 344 OFFCURVE",
"396 341 CURVE",
"361 243 OFFCURVE",
"293 154 OFFCURVE",
"203 67 CURVE SMOOTH"
);
}
);
width = 481;
}
);
unicode = 00F0;
},
{
glyphname = e;
lastChange = "2021-11-27 15:47:14 +0000";
layers = (
{
hints = (
{
horizontal = 1;
place = "{373, -20}";
target = down;
type = TopGhost;
}
);
layerId = "9E0C627C-9F9A-47B5-8A8C-706F30D5AE4A";
paths = (
{
closed = 1;
nodes = (
"78 -8 OFFCURVE",
"108 -1 OFFCURVE",
"139 3 CURVE SMOOTH",
"202 12 OFFCURVE",
"295 67 OFFCURVE",
"338 111 CURVE SMOOTH",
"342 116 OFFCURVE",
"345 121 OFFCURVE",
"345 127 CURVE SMOOTH",
"345 130 OFFCURVE",
"344 134 OFFCURVE",
"341 134 CURVE SMOOTH",
"339 134 OFFCURVE",
"337 132 OFFCURVE",
"336 131 CURVE SMOOTH",
"290 94 OFFCURVE",
"199 32 OFFCURVE",
"139 32 CURVE SMOOTH",
"117 32 OFFCURVE",
"101 42 OFFCURVE",
"101 66 CURVE SMOOTH",
"101 102 OFFCURVE",
"137 155 OFFCURVE",
"157 186 CURVE",
"163 178 OFFCURVE",
"172 166 OFFCURVE",
"183 166 CURVE",
"208 175 LINE SMOOTH",
"227 181 OFFCURVE",
"245 187 OFFCURVE",
"264 192 CURVE SMOOTH",
"307 203 OFFCURVE",
"346 204 OFFCURVE",
"389 210 CURVE SMOOTH",
"390 210 OFFCURVE",
"392 210 OFFCURVE",
"393 212 CURVE",
"387 228 OFFCURVE",
"323 228 OFFCURVE",
"310 228 CURVE",
"354 248 OFFCURVE",
"425 323 OFFCURVE",
"445 367 CURVE SMOOTH",
"448 375 OFFCURVE",
"455 387 OFFCURVE",
"455 396 CURVE SMOOTH",
"455 404 OFFCURVE",
"448 407 OFFCURVE",
"440 407 CURVE SMOOTH",
"421 407 OFFCURVE",
"384 397 OFFCURVE",
"377 376 CURVE",
"369 378 OFFCURVE",
"360 378 OFFCURVE",
"351 378 CURVE SMOOTH",
"326 378 OFFCURVE",
"290 374 OFFCURVE",
"268 359 CURVE SMOOTH",
"160 285 OFFCURVE",
"59 152 OFFCURVE",
"5 32 CURVE",
"2 27 OFFCURVE",
"0 21 OFFCURVE",
"0 15 CURVE SMOOTH",
"0 -7 OFFCURVE",
"31 -8 OFFCURVE",
"46 -8 CURVE SMOOTH"
);
},
{
closed = 1;
nodes = (
"208 260 OFFCURVE",
"289 366 OFFCURVE",
"354 366 CURVE SMOOTH",
"357 366 OFFCURVE",
"374 364 OFFCURVE",
"374 362 CURVE",
"373 360 LINE",
"367 316 OFFCURVE",
"337 279 OFFCURVE",
"304 248 CURVE SMOOTH",
"298 243 OFFCURVE",
"290 235 OFFCURVE",
"286 228 CURVE",
"248 226 OFFCURVE",
"210 220 OFFCURVE",
"173 210 CURVE"
);
}
);
width = 344;
}
);
note = e;
unicode = 0065;
},
{
glyphname = schwa;
lastChange = "2021-11-27 15:47:14 +0000";
layers = (
{
hints = (
{
horizontal = 1;
place = "{-19, 21}";
target = up;
type = BottomGhost;
}
);
layerId = "9E0C627C-9F9A-47B5-8A8C-706F30D5AE4A";
paths = (
{
closed = 1;
nodes = (
"380 371 OFFCURVE",
"349 365 OFFCURVE",
"318 360 CURVE SMOOTH",
"229 347 OFFCURVE",
"129 265 OFFCURVE",
"103 226 CURVE SMOOTH",
"101 223 OFFCURVE",
"99 219 OFFCURVE",
"99 215 CURVE SMOOTH",
"99 213 OFFCURVE",
"100 211 OFFCURVE",
"102 211 CURVE SMOOTH",
"106 211 OFFCURVE",
"109 215 OFFCURVE",
"111 217 CURVE SMOOTH",
"140 238 OFFCURVE",
"240 331 OFFCURVE",
"318 331 CURVE SMOOTH",
"341 331 OFFCURVE",
"356 321 OFFCURVE",
"356 297 CURVE SMOOTH",
"356 280 OFFCURVE",
"347 256 OFFCURVE",
"332 229 CURVE",
"329 229 LINE SMOOTH",
"253 229 OFFCURVE",
"47 173 OFFCURVE",
"47 55 CURVE SMOOTH",
"47 46 OFFCURVE",
"48 36 OFFCURVE",
"51 26 CURVE",
"66 -5 OFFCURVE",
"102 -9 OFFCURVE",
"129 -9 CURVE SMOOTH",
"148 -9 OFFCURVE",
"173 -7 OFFCURVE",
"189 4 CURVE SMOOTH",
"297 76 OFFCURVE",
"399 213 OFFCURVE",
"453 331 CURVE SMOOTH",
"455 336 OFFCURVE",
"458 342 OFFCURVE",
"458 348 CURVE SMOOTH",
"458 370 OFFCURVE",
"427 371 OFFCURVE",
"411 371 CURVE SMOOTH"
);
},
{
closed = 1;
nodes = (
"183 37 OFFCURVE",
"152 12 OFFCURVE",
"131 12 CURVE SMOOTH",
"111 12 OFFCURVE",
"104 31 OFFCURVE",
"104 50 CURVE SMOOTH",
"104 128 OFFCURVE",
"257 202 OFFCURVE",
"324 214 CURVE",
"287 150 OFFCURVE",
"228 77 OFFCURVE",
"199 51 CURVE SMOOTH"
);
}
);
width = 339;
}
);
unicode = 0259;
},
{
glyphname = f;
lastChange = "2021-11-27 15:47:14 +0000";
layers = (
{
hints = (
{
horizontal = 1;
place = "{-289, 21}";
type = Stem;
},
{
horizontal = 1;
place = "{325, 23}";
type = Stem;
},
{
horizontal = 1;
place = "{670, 14}";
type = Stem;
},
{
place = "{-391, 33}";
type = Stem;
},
{
place = "{595, 33}";
type = Stem;
},
{
horizontal = 1;
place = "{300, 51}";
type = Stem;
}
);
layerId = "9E0C627C-9F9A-47B5-8A8C-706F30D5AE4A";
paths = (
{
closed = 1;
nodes = (
"-258 -289 OFFCURVE",
"-200 -276 OFFCURVE",
"-158 -253 CURVE SMOOTH",
"-86 -213 OFFCURVE",
"-28 -160 OFFCURVE",
"18 -92 CURVE SMOOTH",
"73 -8 OFFCURVE",
"114 82 OFFCURVE",
"155 173 CURVE SMOOTH",
"173 211 OFFCURVE",
"196 266 OFFCURVE",
"216 301 CURVE SMOOTH",
"224 316 OFFCURVE",
"257 320 OFFCURVE",
"273 321 CURVE SMOOTH",
"293 322 OFFCURVE",
"314 325 OFFCURVE",
"335 325 CURVE SMOOTH",
"341 325 OFFCURVE",
"355 339 OFFCURVE",
"355 346 CURVE SMOOTH",
"355 348 OFFCURVE",
"353 348 OFFCURVE",
"352 348 CURVE SMOOTH",
"239 348 LINE",
"272 404 OFFCURVE",
"309 456 OFFCURVE",
"345 510 CURVE SMOOTH",
"379 560 OFFCURVE",
"473 670 OFFCURVE",
"538 670 CURVE SMOOTH",
"594 670 OFFCURVE",
"595 584 OFFCURVE",
"595 549 CURVE SMOOTH",
"595 545 OFFCURVE",
"595 540 OFFCURVE",
"598 540 CURVE SMOOTH",
"614 540 OFFCURVE",
"628 603 OFFCURVE",
"628 617 CURVE SMOOTH",
"628 672 OFFCURVE",
"583 684 OFFCURVE",
"537 684 CURVE SMOOTH",
"381 684 OFFCURVE",
"338 599 OFFCURVE",
"264 479 CURVE SMOOTH",
"238 438 OFFCURVE",
"215 394 OFFCURVE",
"194 351 CURVE",
"180 351 OFFCURVE",
"121 354 OFFCURVE",
"121 330 CURVE SMOOTH",
"121 327 OFFCURVE",
"122 325 OFFCURVE",
"124 324 CURVE SMOOTH",
"134 321 OFFCURVE",
"166 314 OFFCURVE",
"166 300 CURVE",
"150 262 LINE SMOOTH",
"94 135 OFFCURVE",
"27 4 OFFCURVE",
"-57 -106 CURVE SMOOTH",
"-95 -154 OFFCURVE",
"-186 -256 OFFCURVE",
"-248 -266 CURVE SMOOTH",
"-255 -267 OFFCURVE",
"-262 -268 OFFCURVE",
"-270 -268 CURVE SMOOTH",
"-334 -268 OFFCURVE",
"-358 -212 OFFCURVE",
"-358 -155 CURVE SMOOTH",
"-358 -152 OFFCURVE",
"-358 -145 OFFCURVE",
"-362 -145 CURVE SMOOTH",
"-378 -145 OFFCURVE",
"-391 -208 OFFCURVE",
"-391 -222 CURVE SMOOTH",
"-391 -273 OFFCURVE",
"-350 -289 OFFCURVE",
"-305 -289 CURVE SMOOTH"
);
}
);
width = 229;
}
);
note = f;
unicode = 0066;
},
{
glyphname = g;
lastChange = "2021-11-27 15:47:14 +0000";
layers = (
{
hints = (
{
horizontal = 1;
place = "{389, -20}";
target = down;
type = TopGhost;
}
);
layerId = "9E0C627C-9F9A-47B5-8A8C-706F30D5AE4A";
paths = (
{
closed = 1;
nodes = (
"77 -271 OFFCURVE",
"272 -34 OFFCURVE",
"331 100 CURVE SMOOTH",
"385 226 LINE SMOOTH",
"394 247 OFFCURVE",
"403 270 OFFCURVE",
"415 290 CURVE SMOOTH",
"432 319 OFFCURVE",
"451 331 OFFCURVE",
"483 337 CURVE SMOOTH",
"485 337 OFFCURVE",
"499 338 OFFCURVE",
"499 343 CURVE SMOOTH",
"499 345 OFFCURVE",
"497 346 OFFCURVE",
"496 346 CURVE SMOOTH",
"448 356 OFFCURVE",
"396 362 OFFCURVE",
"347 368 CURVE SMOOTH",
"326 370 OFFCURVE",
"304 372 OFFCURVE",
"282 372 CURVE SMOOTH",
"269 372 OFFCURVE",
"246 372 OFFCURVE",
"234 366 CURVE SMOOTH",
"170 336 OFFCURVE",
"84 163 OFFCURVE",
"42 99 CURVE SMOOTH",
"29 80 OFFCURVE",
"-12 12 OFFCURVE",
"-12 -9 CURVE SMOOTH",
"-12 -13 OFFCURVE",
"-7 -15 OFFCURVE",
"-3 -15 CURVE SMOOTH",
"42 -15 OFFCURVE",
"243 147 OFFCURVE",
"285 181 CURVE SMOOTH",
"308 199 OFFCURVE",
"333 217 OFFCURVE",
"353 238 CURVE",
"307 154 LINE SMOOTH",
"256 61 OFFCURVE",
"75 -228 OFFCURVE",
"-32 -247 CURVE",
"-39 -249 OFFCURVE",
"-46 -249 OFFCURVE",
"-53 -249 CURVE SMOOTH",
"-120 -249 OFFCURVE",
"-134 -191 OFFCURVE",
"-134 -135 CURVE SMOOTH",
"-134 -131 OFFCURVE",
"-134 -127 OFFCURVE",
"-137 -127 CURVE SMOOTH",
"-153 -127 OFFCURVE",
"-167 -190 OFFCURVE",
"-167 -204 CURVE SMOOTH",
"-167 -255 OFFCURVE",
"-127 -271 OFFCURVE",
"-82 -271 CURVE SMOOTH"
);
},
{
closed = 1;
nodes = (
"98 85 OFFCURVE",
"95 90 OFFCURVE",
"95 98 CURVE SMOOTH",
"95 148 OFFCURVE",
"226 303 OFFCURVE",
"268 333 CURVE SMOOTH",
"275 338 OFFCURVE",
"289 338 OFFCURVE",
"297 338 CURVE SMOOTH",
"317 338 OFFCURVE",
"378 338 OFFCURVE",
"378 310 CURVE SMOOTH",
"378 293 OFFCURVE",
"359 274 OFFCURVE",
"348 263 CURVE SMOOTH",
"313 229 OFFCURVE",
"146 85 OFFCURVE",
"107 85 CURVE SMOOTH"
);
}
);
width = 398;
}
);
note = g;
unicode = 0067;
},
{
glyphname = h;
lastChange = "2021-11-27 15:47:14 +0000";
layers = (
{
hints = (
{
horizontal = 1;
place = "{604, -20}";
target = down;
type = TopGhost;
}
);
layerId = "9E0C627C-9F9A-47B5-8A8C-706F30D5AE4A";
paths = (
{
closed = 1;
nodes = (
"444 743 OFFCURVE",
"322 614 OFFCURVE",
"243 488 CURVE SMOOTH",
"213 441 OFFCURVE",
"188 391 OFFCURVE",
"163 341 CURVE SMOOTH",
"128 269 OFFCURVE",
"94 196 OFFCURVE",
"63 122 CURVE SMOOTH",
"46 82 OFFCURVE",
"26 43 OFFCURVE",
"0 9 CURVE SMOOTH",
"-6 1 OFFCURVE",
"-13 -5 OFFCURVE",
"-19 -13 CURVE",
"-19 -14 OFFCURVE",
"-20 -14 OFFCURVE",
"-20 -15 CURVE SMOOTH",
"-20 -16 OFFCURVE",
"-17 -16 OFFCURVE",
"-16 -16 CURVE SMOOTH",
"-6 -16 OFFCURVE",
"4 -11 OFFCURVE",
"13 -7 CURVE SMOOTH",
"24 -2 OFFCURVE",
"36 -1 OFFCURVE",
"46 4 CURVE SMOOTH",
"58 10 OFFCURVE",
"60 20 OFFCURVE",
"65 32 CURVE SMOOTH",
"105 124 OFFCURVE",
"201 223 OFFCURVE",
"287 272 CURVE SMOOTH",
"301 280 OFFCURVE",
"332 297 OFFCURVE",
"348 297 CURVE SMOOTH",
"352 297 OFFCURVE",
"356 296 OFFCURVE",
"356 290 CURVE SMOOTH",
"356 273 OFFCURVE",
"195 2 OFFCURVE",
"173 -26 CURVE SMOOTH",
"171 -29 OFFCURVE",
"169 -31 OFFCURVE",
"169 -34 CURVE SMOOTH",
"169 -38 OFFCURVE",
"171 -43 OFFCURVE",
"176 -43 CURVE SMOOTH",
"177 -43 OFFCURVE",
"179 -42 OFFCURVE",
"180 -41 CURVE SMOOTH",
"251 23 OFFCURVE",
"333 78 OFFCURVE",
"413 129 CURVE SMOOTH",
"449 152 OFFCURVE",
"486 177 OFFCURVE",
"525 195 CURVE",
"525 198 OFFCURVE",
"523 202 OFFCURVE",
"519 202 CURVE SMOOTH",
"518 202 OFFCURVE",
"503 196 OFFCURVE",
"501 196 CURVE",
"449 175 OFFCURVE",
"402 145 OFFCURVE",
"355 114 CURVE SMOOTH",
"348 110 OFFCURVE",
"334 100 OFFCURVE",
"325 100 CURVE SMOOTH",
"319 100 OFFCURVE",
"317 104 OFFCURVE",
"317 109 CURVE SMOOTH",
"317 124 OFFCURVE",
"330 149 OFFCURVE",
"336 163 CURVE SMOOTH",
"357 209 OFFCURVE",
"402 297 OFFCURVE",
"445 325 CURVE SMOOTH",
"449 328 OFFCURVE",
"463 335 OFFCURVE",
"463 342 CURVE SMOOTH",
"463 354 OFFCURVE",
"418 359 OFFCURVE",
"408 359 CURVE SMOOTH",
"302 359 OFFCURVE",
"164 207 OFFCURVE",
"101 130 CURVE",
"130 188 LINE SMOOTH",
"187 300 OFFCURVE",
"258 403 OFFCURVE",
"323 510 CURVE SMOOTH",
"374 595 OFFCURVE",
"465 721 OFFCURVE",
"578 721 CURVE SMOOTH",
"645 721 OFFCURVE",
"659 663 OFFCURVE",
"659 607 CURVE SMOOTH",
"659 603 OFFCURVE",
"659 599 OFFCURVE",
"662 599 CURVE SMOOTH",
"678 599 OFFCURVE",
"691 663 OFFCURVE",
"691 676 CURVE SMOOTH",
"691 729 OFFCURVE",
"649 743 OFFCURVE",
"604 743 CURVE SMOOTH"
);
},
{
closed = 1;
nodes = (
"131 189 OFFCURVE",
"135 196 OFFCURVE",
"138 203 CURVE",
"127 183 LINE"
);
},
{
closed = 1;
nodes = (
"127 181 OFFCURVE",
"126 180 OFFCURVE",
"125 178 CURVE SMOOTH",
"127 183 LINE"
);
}
);
width = 379;
}
);
note = h;
unicode = 0068;
},
{
glyphname = i;
lastChange = "2021-11-27 15:47:14 +0000";
layers = (
{
hints = (
{
horizontal = 1;
place = "{-7, 21}";
target = up;
type = BottomGhost;
},
{
horizontal = 1;
place = "{353, -20}";
target = down;
type = TopGhost;
},
{
horizontal = 1;
place = "{396, 67}";
type = Stem;
},
{
place = "{10, 331}";
type = Stem;
}
);
layerId = "9E0C627C-9F9A-47B5-8A8C-706F30D5AE4A";
paths = (
{
closed = 1;
nodes = (
"244 396 OFFCURVE",
"280 418 OFFCURVE",
"292 425 CURVE SMOOTH",
"306 433 OFFCURVE",
"319 436 OFFCURVE",
"334 441 CURVE SMOOTH",
"336 442 OFFCURVE",
"341 444 OFFCURVE",
"341 447 CURVE SMOOTH",
"341 461 OFFCURVE",
"275 463 OFFCURVE",
"263 463 CURVE SMOOTH",
"257 463 OFFCURVE",
"232 463 OFFCURVE",
"232 454 CURVE SMOOTH",
"232 447 OFFCURVE",
"236 440 OFFCURVE",
"236 432 CURVE SMOOTH",
"236 417 OFFCURVE",
"226 406 OFFCURVE",
"226 400 CURVE SMOOTH",
"226 397 OFFCURVE",
"229 396 OFFCURVE",
"232 396 CURVE SMOOTH"
);
},
{
closed = 1;
nodes = (
"77 -7 OFFCURVE",
"94 -5 OFFCURVE",
"101 11 CURVE SMOOTH",
"131 78 OFFCURVE",
"259 165 OFFCURVE",
"325 195 CURVE",
"325 198 OFFCURVE",
"323 202 OFFCURVE",
"319 202 CURVE SMOOTH",
"317 202 OFFCURVE",
"300 195 OFFCURVE",
"298 194 CURVE SMOOTH",
"241 171 OFFCURVE",
"176 126 OFFCURVE",
"130 86 CURVE",
"128 85 OFFCURVE",
"124 81 OFFCURVE",
"121 81 CURVE SMOOTH",
"119 81 OFFCURVE",
"118 85 OFFCURVE",
"118 87 CURVE SMOOTH",
"118 96 OFFCURVE",
"124 109 OFFCURVE",
"128 118 CURVE SMOOTH",
"150 162 OFFCURVE",
"172 206 OFFCURVE",
"199 248 CURVE SMOOTH",
"209 264 OFFCURVE",
"254 331 OFFCURVE",
"254 349 CURVE SMOOTH",
"254 351 OFFCURVE",
"254 353 OFFCURVE",
"251 353 CURVE SMOOTH",
"239 353 OFFCURVE",
"171 325 OFFCURVE",
"171 320 CURVE SMOOTH",
"171 317 OFFCURVE",
"181 316 OFFCURVE",
"181 302 CURVE SMOOTH",
"181 291 OFFCURVE",
"175 281 OFFCURVE",
"169 272 CURVE SMOOTH",
"122 195 OFFCURVE",
"45 117 OFFCURVE",
"16 31 CURVE SMOOTH",
"15 27 OFFCURVE",
"10 12 OFFCURVE",
"10 8 CURVE SMOOTH",
"10 -3 OFFCURVE",
"54 -7 OFFCURVE",
"62 -7 CURVE SMOOTH"
);
}
);
width = 224;
}
);
note = i;
unicode = 0069;
},
{
color = 11;
glyphname = idotless;
lastChange = "2021-11-27 15:47:14 +0000";
layers = (
{
hints = (
{
horizontal = 1;
place = "{-7, 20}";
type = Stem;
},
{
horizontal = 1;
place = "{353, -20}";
target = down;
type = TopGhost;
}
);
layerId = "9E0C627C-9F9A-47B5-8A8C-706F30D5AE4A";
paths = (
{
closed = 1;
nodes = (
"77 -7 OFFCURVE",
"94 -5 OFFCURVE",
"101 11 CURVE SMOOTH",
"131 78 OFFCURVE",
"259 165 OFFCURVE",
"325 195 CURVE",
"325 198 OFFCURVE",
"323 202 OFFCURVE",
"319 202 CURVE SMOOTH",
"317 202 OFFCURVE",
"300 195 OFFCURVE",
"298 194 CURVE SMOOTH",
"241 171 OFFCURVE",
"176 126 OFFCURVE",
"130 86 CURVE",
"128 85 OFFCURVE",
"124 81 OFFCURVE",
"121 81 CURVE SMOOTH",
"119 81 OFFCURVE",
"118 85 OFFCURVE",
"118 87 CURVE SMOOTH",
"118 96 OFFCURVE",
"124 109 OFFCURVE",
"128 118 CURVE SMOOTH",
"150 162 OFFCURVE",
"172 206 OFFCURVE",
"199 248 CURVE SMOOTH",
"209 264 OFFCURVE",
"254 331 OFFCURVE",
"254 349 CURVE SMOOTH",
"254 351 OFFCURVE",
"254 353 OFFCURVE",
"251 353 CURVE SMOOTH",
"239 353 OFFCURVE",
"171 325 OFFCURVE",
"171 320 CURVE SMOOTH",
"171 317 OFFCURVE",
"181 316 OFFCURVE",
"181 302 CURVE SMOOTH",
"181 291 OFFCURVE",
"175 281 OFFCURVE",
"169 272 CURVE SMOOTH",
"122 195 OFFCURVE",
"45 117 OFFCURVE",
"16 31 CURVE SMOOTH",
"15 27 OFFCURVE",
"10 12 OFFCURVE",
"10 8 CURVE SMOOTH",
"10 -3 OFFCURVE",
"54 -7 OFFCURVE",
"62 -7 CURVE SMOOTH"
);
}
);
width = 224;
}
);
note = dotlessi;
unicode = 0131;
},
{
glyphname = j;
lastChange = "2021-11-27 15:47:14 +0000";
layers = (
{
hints = (
{
horizontal = 1;
place = "{-271, 21}";
type = Stem;
},
{
horizontal = 1;
place = "{353, -20}";
target = down;
type = TopGhost;
},
{
horizontal = 1;
place = "{396, 67}";
type = Stem;
},
{
place = "{-385, 33}";
type = Stem;
},
{
place = "{155, 75}";
type = Stem;
}
);
layerId = "9E0C627C-9F9A-47B5-8A8C-706F30D5AE4A";
paths = (
{
closed = 1;
nodes = (
"219 396 OFFCURVE",
"255 418 OFFCURVE",
"266 425 CURVE SMOOTH",
"280 433 OFFCURVE",
"293 436 OFFCURVE",
"308 441 CURVE SMOOTH",
"311 442 OFFCURVE",
"315 444 OFFCURVE",
"315 447 CURVE SMOOTH",
"315 461 OFFCURVE",
"249 463 OFFCURVE",
"237 463 CURVE SMOOTH",
"232 463 OFFCURVE",
"207 463 OFFCURVE",
"207 454 CURVE SMOOTH",
"207 447 OFFCURVE",
"211 440 OFFCURVE",
"211 432 CURVE SMOOTH",
"211 417 OFFCURVE",
"200 406 OFFCURVE",
"200 400 CURVE SMOOTH",
"200 397 OFFCURVE",
"204 396 OFFCURVE",
"206 396 CURVE SMOOTH"
);
},
{
closed = 1;
nodes = (
"-166 -271 OFFCURVE",
"-48 -181 OFFCURVE",
"24 -74 CURVE SMOOTH",
"49 -36 OFFCURVE",
"70 5 OFFCURVE",
"91 45 CURVE SMOOTH",
"126 113 OFFCURVE",
"158 183 OFFCURVE",
"190 252 CURVE SMOOTH",
"199 273 OFFCURVE",
"230 325 OFFCURVE",
"230 345 CURVE SMOOTH",
"230 349 OFFCURVE",
"229 353 OFFCURVE",
"225 353 CURVE SMOOTH",
"213 353 OFFCURVE",
"146 325 OFFCURVE",
"146 321 CURVE SMOOTH",
"146 316 OFFCURVE",
"155 315 OFFCURVE",
"155 296 CURVE SMOOTH",
"155 284 OFFCURVE",
"152 273 OFFCURVE",
"148 262 CURVE SMOOTH",
"132 218 OFFCURVE",
"104 168 OFFCURVE",
"81 127 CURVE SMOOTH",
"42 53 OFFCURVE",
"0 -22 OFFCURVE",
"-51 -88 CURVE SMOOTH",
"-88 -136 OFFCURVE",
"-180 -239 OFFCURVE",
"-242 -248 CURVE",
"-249 -250 OFFCURVE",
"-256 -250 OFFCURVE",
"-264 -250 CURVE SMOOTH",
"-328 -250 OFFCURVE",
"-352 -194 OFFCURVE",
"-352 -138 CURVE SMOOTH",
"-352 -135 OFFCURVE",
"-352 -127 OFFCURVE",
"-356 -127 CURVE SMOOTH",
"-372 -127 OFFCURVE",
"-385 -191 OFFCURVE",
"-385 -204 CURVE SMOOTH",
"-385 -256 OFFCURVE",
"-344 -271 OFFCURVE",
"-299 -271 CURVE SMOOTH"
);
}
);
width = 177;
}
);
note = j;
unicode = 006A;
},
{
color = 11;
glyphname = jdotless;
lastChange = "2021-11-27 15:47:14 +0000";
layers = (
{
hints = (
{
horizontal = 1;
place = "{-271, 21}";
type = Stem;
},
{
horizontal = 1;
place = "{353, -20}";
target = down;
type = TopGhost;
},
{
horizontal = 1;
place = "{396, 67}";
type = Stem;
},
{
place = "{-385, 33}";
type = Stem;
},
{
place = "{155, 75}";
type = Stem;
}
);
layerId = "9E0C627C-9F9A-47B5-8A8C-706F30D5AE4A";
paths = (
{
closed = 1;
nodes = (
"-166 -271 OFFCURVE",
"-48 -181 OFFCURVE",
"24 -74 CURVE SMOOTH",
"49 -36 OFFCURVE",
"70 5 OFFCURVE",
"91 45 CURVE SMOOTH",
"126 113 OFFCURVE",
"158 183 OFFCURVE",
"190 252 CURVE SMOOTH",
"199 273 OFFCURVE",
"230 325 OFFCURVE",
"230 345 CURVE SMOOTH",
"230 349 OFFCURVE",
"229 353 OFFCURVE",
"225 353 CURVE SMOOTH",
"213 353 OFFCURVE",
"146 325 OFFCURVE",
"146 321 CURVE SMOOTH",
"146 316 OFFCURVE",
"155 315 OFFCURVE",
"155 296 CURVE SMOOTH",
"155 284 OFFCURVE",
"152 273 OFFCURVE",
"148 262 CURVE SMOOTH",
"132 218 OFFCURVE",
"104 168 OFFCURVE",
"81 127 CURVE SMOOTH",
"42 53 OFFCURVE",
"0 -22 OFFCURVE",
"-51 -88 CURVE SMOOTH",
"-88 -136 OFFCURVE",
"-180 -239 OFFCURVE",
"-242 -248 CURVE",
"-249 -250 OFFCURVE",
"-256 -250 OFFCURVE",
"-264 -250 CURVE SMOOTH",
"-328 -250 OFFCURVE",
"-352 -194 OFFCURVE",
"-352 -138 CURVE SMOOTH",
"-352 -135 OFFCURVE",
"-352 -127 OFFCURVE",
"-356 -127 CURVE SMOOTH",
"-372 -127 OFFCURVE",
"-385 -191 OFFCURVE",
"-385 -204 CURVE SMOOTH",
"-385 -256 OFFCURVE",
"-344 -271 OFFCURVE",
"-299 -271 CURVE SMOOTH"
);
}
);
width = 177;
}
);
unicode = 0237;
},
{
glyphname = k;
lastChange = "2021-11-27 15:47:14 +0000";
layers = (
{
hints = (
{
place = "{395, 54}";
type = Stem;
}
);
layerId = "9E0C627C-9F9A-47B5-8A8C-706F30D5AE4A";
paths = (
{
closed = 1;
nodes = (
"380 -23 OFFCURVE",
"435 14 OFFCURVE",
"450 31 CURVE SMOOTH",
"457 39 OFFCURVE",
"467 64 OFFCURVE",
"467 75 CURVE",
"467 75 OFFCURVE",
"467 77 OFFCURVE",
"466 77 CURVE SMOOTH",
"465 77 OFFCURVE",
"464 76 OFFCURVE",
"464 75 CURVE",
"439 44 OFFCURVE",
"407 9 OFFCURVE",
"363 9 CURVE SMOOTH",
"304 9 OFFCURVE",
"232 105 OFFCURVE",
"201 149 CURVE",
"308 159 OFFCURVE",
"489 204 OFFCURVE",
"489 340 CURVE SMOOTH",
"489 353 OFFCURVE",
"489 387 OFFCURVE",
"470 387 CURVE SMOOTH",
"456 387 OFFCURVE",
"433 372 OFFCURVE",
"422 364 CURVE SMOOTH",
"337 308 OFFCURVE",
"260 241 OFFCURVE",
"187 171 CURVE",
"180 183 LINE",
"238 294 OFFCURVE",
"304 402 OFFCURVE",
"367 510 CURVE SMOOTH",
"418 597 OFFCURVE",
"508 721 OFFCURVE",
"622 721 CURVE SMOOTH",
"689 721 OFFCURVE",
"703 663 OFFCURVE",
"703 607 CURVE SMOOTH",
"703 603 OFFCURVE",
"703 599 OFFCURVE",
"706 599 CURVE SMOOTH",
"722 599 OFFCURVE",
"736 663 OFFCURVE",
"736 676 CURVE SMOOTH",
"736 729 OFFCURVE",
"694 743 OFFCURVE",
"649 743 CURVE SMOOTH",
"391 743 OFFCURVE",
"247 431 OFFCURVE",
"154 230 CURVE",
"147 244 OFFCURVE",
"139 259 OFFCURVE",
"139 275 CURVE SMOOTH",
"139 282 OFFCURVE",
"141 289 OFFCURVE",
"141 295 CURVE SMOOTH",
"141 299 OFFCURVE",
"138 301 OFFCURVE",
"134 301 CURVE SMOOTH",
"131 301 OFFCURVE",
"129 299 OFFCURVE",
"127 296 CURVE SMOOTH",
"120 284 OFFCURVE",
"97 250 OFFCURVE",
"97 238 CURVE SMOOTH",
"97 227 OFFCURVE",
"122 180 OFFCURVE",
"128 170 CURVE",
"107 122 LINE SMOOTH",
"91 84 OFFCURVE",
"72 46 OFFCURVE",
"47 13 CURVE SMOOTH",
"40 4 OFFCURVE",
"32 -4 OFFCURVE",
"25 -13 CURVE SMOOTH",
"24 -15 LINE",
"24 -16 OFFCURVE",
"27 -16 OFFCURVE",
"28 -16 CURVE SMOOTH",
"38 -16 OFFCURVE",
"48 -11 OFFCURVE",
"57 -7 CURVE SMOOTH",
"68 -2 OFFCURVE",
"80 -1 OFFCURVE",
"90 4 CURVE SMOOTH",
"102 10 OFFCURVE",
"104 21 OFFCURVE",
"109 32 CURVE SMOOTH",
"123 63 OFFCURVE",
"144 92 OFFCURVE",
"163 119 CURVE",
"206 65 OFFCURVE",
"281 -23 OFFCURVE",
"357 -23 CURVE SMOOTH"
);
},
{
closed = 1;
nodes = (
"230 170 OFFCURVE",
"223 171 OFFCURVE",
"216 172 CURVE",
"244 198 OFFCURVE",
"398 332 OFFCURVE",
"422 332 CURVE SMOOTH",
"424 332 OFFCURVE",
"425 331 OFFCURVE",
"425 329 CURVE SMOOTH",
"425 277 OFFCURVE",
"385 213 OFFCURVE",
"337 193 CURVE SMOOTH",
"306 181 OFFCURVE",
"271 170 OFFCURVE",
"237 170 CURVE SMOOTH"
);
}
);
width = 419;
}
);
note = k;
unicode = 006B;
},
{
glyphname = kgreenlandic;
lastChange = "2021-11-27 15:47:14 +0000";
layers = (
{
hints = (
{
place = "{395, 54}";
type = Stem;
}
);
layerId = "9E0C627C-9F9A-47B5-8A8C-706F30D5AE4A";
paths = (
{
closed = 1;
nodes = (
"380 -23 OFFCURVE",
"435 14 OFFCURVE",
"450 31 CURVE SMOOTH",
"457 39 OFFCURVE",
"467 64 OFFCURVE",
"467 75 CURVE",
"467 75 OFFCURVE",
"467 77 OFFCURVE",
"466 77 CURVE SMOOTH",
"465 77 OFFCURVE",
"464 76 OFFCURVE",
"464 75 CURVE",
"439 44 OFFCURVE",
"407 9 OFFCURVE",
"363 9 CURVE SMOOTH",
"314 9 OFFCURVE",
"260 64 OFFCURVE",
"183 179 CURVE",
"251 239 OFFCURVE",
"371 325 OFFCURVE",
"432 325 CURVE SMOOTH",
"439 325 OFFCURVE",
"445 324 OFFCURVE",
"450 322 CURVE SMOOTH",
"466 315 OFFCURVE",
"472 332 OFFCURVE",
"472 350 CURVE SMOOTH",
"472 368 OFFCURVE",
"466 387 OFFCURVE",
"457 386 CURVE SMOOTH",
"373 377 OFFCURVE",
"271 292 OFFCURVE",
"200 221 CURVE",
"259 333 OFFCURVE",
"341 489 OFFCURVE",
"356 516 CURVE SMOOTH",
"362 526 OFFCURVE",
"289 490 OFFCURVE",
"278 473 CURVE SMOOTH",
"250 428 OFFCURVE",
"192 312 OFFCURVE",
"154 230 CURVE",
"147 244 OFFCURVE",
"139 259 OFFCURVE",
"139 275 CURVE SMOOTH",
"139 282 OFFCURVE",
"141 289 OFFCURVE",
"141 295 CURVE SMOOTH",
"141 299 OFFCURVE",
"138 301 OFFCURVE",
"134 301 CURVE SMOOTH",
"131 301 OFFCURVE",
"129 299 OFFCURVE",
"127 296 CURVE SMOOTH",
"120 284 OFFCURVE",
"97 250 OFFCURVE",
"97 238 CURVE SMOOTH",
"97 227 OFFCURVE",
"122 180 OFFCURVE",
"128 170 CURVE",
"107 122 LINE SMOOTH",
"91 84 OFFCURVE",
"72 46 OFFCURVE",
"47 13 CURVE SMOOTH",
"40 4 OFFCURVE",
"30 -3 OFFCURVE",
"25 -13 CURVE SMOOTH",
"24 -15 LINE",
"24 -16 OFFCURVE",
"27 -16 OFFCURVE",
"28 -16 CURVE SMOOTH",
"38 -16 OFFCURVE",
"48 -11 OFFCURVE",
"57 -7 CURVE SMOOTH",
"68 -2 OFFCURVE",
"80 -1 OFFCURVE",
"90 4 CURVE SMOOTH",
"102 10 OFFCURVE",
"104 21 OFFCURVE",
"109 32 CURVE SMOOTH",
"123 63 OFFCURVE",
"144 92 OFFCURVE",
"163 119 CURVE",
"206 65 OFFCURVE",
"281 -23 OFFCURVE",
"357 -23 CURVE SMOOTH"
);
}
);
width = 419;
}
);
unicode = 0138;
},
{
glyphname = l;
lastChange = "2021-11-27 15:47:14 +0000";
layers = (
{
hints = (
{
horizontal = 1;
place = "{614, -20}";
target = down;
type = TopGhost;
}
);
layerId = "9E0C627C-9F9A-47B5-8A8C-706F30D5AE4A";
paths = (
{
closed = 1;
nodes = (
"71 -7 OFFCURVE",
"88 -5 OFFCURVE",
"95 11 CURVE SMOOTH",
"99 20 OFFCURVE",
"103 28 OFFCURVE",
"109 36 CURVE SMOOTH",
"148 89 OFFCURVE",
"258 168 OFFCURVE",
"319 195 CURVE",
"319 198 OFFCURVE",
"317 202 OFFCURVE",
"313 202 CURVE SMOOTH",
"312 202 OFFCURVE",
"300 197 OFFCURVE",
"299 197 CURVE",
"244 176 OFFCURVE",
"196 141 OFFCURVE",
"148 106 CURVE SMOOTH",
"142 102 OFFCURVE",
"131 93 OFFCURVE",
"123 93 CURVE SMOOTH",
"118 93 OFFCURVE",
"116 98 OFFCURVE",
"116 102 CURVE SMOOTH",
"116 114 OFFCURVE",
"125 132 OFFCURVE",
"130 142 CURVE SMOOTH",
"191 263 OFFCURVE",
"281 366 OFFCURVE",
"353 480 CURVE SMOOTH",
"365 499 OFFCURVE",
"379 525 OFFCURVE",
"379 548 CURVE SMOOTH",
"379 553 OFFCURVE",
"377 568 OFFCURVE",
"369 568 CURVE SMOOTH",
"358 568 OFFCURVE",
"291 540 OFFCURVE",
"291 536 CURVE SMOOTH",
"291 531 OFFCURVE",
"299 531 OFFCURVE",
"299 518 CURVE SMOOTH",
"299 516 OFFCURVE",
"299 514 OFFCURVE",
"298 512 CURVE",
"287 457 OFFCURVE",
"197 320 OFFCURVE",
"162 267 CURVE SMOOTH",
"130 218 OFFCURVE",
"2 56 OFFCURVE",
"2 8 CURVE SMOOTH",
"2 -3 OFFCURVE",
"48 -7 OFFCURVE",
"55 -7 CURVE SMOOTH"
);
}
);
width = 229;
}
);
note = l;
unicode = 006C;
},
{
glyphname = m;
lastChange = "2021-11-27 15:47:14 +0000";
layers = (
{
hints = (
{
horizontal = 1;
place = "{360, -20}";
target = down;
type = TopGhost;
},
{
place = "{372, 142}";
type = Stem;
}
);
layerId = "9E0C627C-9F9A-47B5-8A8C-706F30D5AE4A";
paths = (
{
closed = 1;
nodes = (
"389 -43 OFFCURVE",
"391 -42 OFFCURVE",
"392 -41 CURVE SMOOTH",
"463 23 OFFCURVE",
"545 78 OFFCURVE",
"625 129 CURVE SMOOTH",
"661 152 OFFCURVE",
"698 177 OFFCURVE",
"737 195 CURVE",
"737 198 OFFCURVE",
"735 202 OFFCURVE",
"731 202 CURVE SMOOTH",
"730 202 OFFCURVE",
"718 197 OFFCURVE",
"716 197 CURVE",
"663 177 OFFCURVE",
"614 146 OFFCURVE",
"567 114 CURVE SMOOTH",
"560 110 OFFCURVE",
"546 100 OFFCURVE",
"537 100 CURVE SMOOTH",
"531 100 OFFCURVE",
"529 104 OFFCURVE",
"529 109 CURVE SMOOTH",
"529 124 OFFCURVE",
"542 149 OFFCURVE",
"548 163 CURVE SMOOTH",
"569 208 OFFCURVE",
"615 298 OFFCURVE",
"657 325 CURVE SMOOTH",
"662 328 OFFCURVE",
"675 335 OFFCURVE",
"675 342 CURVE SMOOTH",
"675 354 OFFCURVE",
"630 359 OFFCURVE",
"620 359 CURVE SMOOTH",
"529 359 OFFCURVE",
"395 231 OFFCURVE",
"336 163 CURVE",
"347 203 OFFCURVE",
"380 271 OFFCURVE",
"404 305 CURVE SMOOTH",
"410 313 OFFCURVE",
"418 325 OFFCURVE",
"418 335 CURVE SMOOTH",
"418 350 OFFCURVE",
"402 352 OFFCURVE",
"391 352 CURVE SMOOTH",
"293 352 OFFCURVE",
"159 201 OFFCURVE",
"101 130 CURVE",
"137 201 OFFCURVE",
"175 268 OFFCURVE",
"220 333 CURVE",
"223 336 OFFCURVE",
"226 341 OFFCURVE",
"226 345 CURVE SMOOTH",
"226 349 OFFCURVE",
"223 349 OFFCURVE",
"220 349 CURVE SMOOTH",
"209 349 OFFCURVE",
"186 341 OFFCURVE",
"176 337 CURVE SMOOTH",
"148 326 OFFCURVE",
"126 304 OFFCURVE",
"109 280 CURVE SMOOTH",
"105 275 OFFCURVE",
"95 262 OFFCURVE",
"95 255 CURVE SMOOTH",
"95 247 OFFCURVE",
"108 257 OFFCURVE",
"108 243 CURVE SMOOTH",
"108 219 OFFCURVE",
"70 147 OFFCURVE",
"57 123 CURVE SMOOTH",
"39 88 OFFCURVE",
"18 54 OFFCURVE",
"-7 24 CURVE SMOOTH",
"-17 12 OFFCURVE",
"-29 1 OFFCURVE",
"-39 -10 CURVE",
"-39 -11 OFFCURVE",
"-40 -11 OFFCURVE",
"-40 -12 CURVE SMOOTH",
"-40 -14 OFFCURVE",
"-37 -13 OFFCURVE",
"-36 -13 CURVE SMOOTH",
"-26 -13 OFFCURVE",
"-15 -9 OFFCURVE",
"-6 -5 CURVE SMOOTH",
"5 0 OFFCURVE",
"17 1 OFFCURVE",
"28 6 CURVE SMOOTH",
"41 11 OFFCURVE",
"44 22 OFFCURVE",
"50 33 CURVE SMOOTH",
"85 95 OFFCURVE",
"139 150 OFFCURVE",
"190 199 CURVE SMOOTH",
"214 222 OFFCURVE",
"284 281 OFFCURVE",
"315 281 CURVE SMOOTH",
"323 281 OFFCURVE",
"325 276 OFFCURVE",
"325 269 CURVE SMOOTH",
"325 245 OFFCURVE",
"291 167 OFFCURVE",
"279 140 CURVE SMOOTH",
"263 101 OFFCURVE",
"244 61 OFFCURVE",
"219 27 CURVE SMOOTH",
"213 19 OFFCURVE",
"207 12 OFFCURVE",
"201 5 CURVE",
"200 3 LINE",
"200 2 OFFCURVE",
"203 2 OFFCURVE",
"204 2 CURVE SMOOTH",
"213 2 OFFCURVE",
"224 7 OFFCURVE",
"233 11 CURVE SMOOTH",
"244 16 OFFCURVE",
"256 17 OFFCURVE",
"266 22 CURVE SMOOTH",
"278 28 OFFCURVE",
"280 39 OFFCURVE",
"285 50 CURVE SMOOTH",
"322 133 OFFCURVE",
"420 227 OFFCURVE",
"499 272 CURVE SMOOTH",
"513 280 OFFCURVE",
"544 297 OFFCURVE",
"560 297 CURVE SMOOTH",
"564 297 OFFCURVE",
"568 296 OFFCURVE",
"568 290 CURVE SMOOTH",
"568 274 OFFCURVE",
"409 3 OFFCURVE",
"385 -26 CURVE SMOOTH",
"383 -28 OFFCURVE",
"381 -31 OFFCURVE",
"381 -34 CURVE SMOOTH",
"381 -38 OFFCURVE",
"383 -43 OFFCURVE",
"388 -43 CURVE SMOOTH"
);
}
);
width = 639;
}
);
note = m;
unicode = 006D;
},
{
glyphname = n;
lastChange = "2021-11-27 15:47:14 +0000";
layers = (
{
hints = (
{
horizontal = 1;
place = "{371, -20}";
target = down;
type = TopGhost;
}
);
layerId = "9E0C627C-9F9A-47B5-8A8C-706F30D5AE4A";
paths = (
{
closed = 1;
nodes = (
"177 -43 OFFCURVE",
"179 -42 OFFCURVE",
"180 -41 CURVE SMOOTH",
"251 23 OFFCURVE",
"333 78 OFFCURVE",
"413 129 CURVE SMOOTH",
"449 152 OFFCURVE",
"486 177 OFFCURVE",
"525 195 CURVE",
"525 198 OFFCURVE",
"523 202 OFFCURVE",
"519 202 CURVE SMOOTH",
"518 202 OFFCURVE",
"506 197 OFFCURVE",
"504 197 CURVE",
"451 177 OFFCURVE",
"402 146 OFFCURVE",
"355 114 CURVE SMOOTH",
"348 110 OFFCURVE",
"334 100 OFFCURVE",
"325 100 CURVE SMOOTH",
"319 100 OFFCURVE",
"317 104 OFFCURVE",
"317 109 CURVE SMOOTH",
"317 124 OFFCURVE",
"330 149 OFFCURVE",
"336 163 CURVE SMOOTH",
"357 208 OFFCURVE",
"403 298 OFFCURVE",
"445 325 CURVE SMOOTH",
"450 328 OFFCURVE",
"463 335 OFFCURVE",
"463 342 CURVE SMOOTH",
"463 354 OFFCURVE",
"418 359 OFFCURVE",
"408 359 CURVE SMOOTH",
"302 359 OFFCURVE",
"166 209 OFFCURVE",
"101 130 CURVE",
"137 201 OFFCURVE",
"175 268 OFFCURVE",
"220 333 CURVE",
"223 336 OFFCURVE",
"226 341 OFFCURVE",
"226 345 CURVE SMOOTH",
"226 349 OFFCURVE",
"223 349 OFFCURVE",
"220 349 CURVE SMOOTH",
"209 349 OFFCURVE",
"186 341 OFFCURVE",
"176 337 CURVE SMOOTH",
"148 326 OFFCURVE",
"126 304 OFFCURVE",
"109 280 CURVE SMOOTH",
"105 275 OFFCURVE",
"95 262 OFFCURVE",
"95 255 CURVE SMOOTH",
"95 247 OFFCURVE",
"108 257 OFFCURVE",
"108 243 CURVE SMOOTH",
"108 219 OFFCURVE",
"70 147 OFFCURVE",
"57 123 CURVE SMOOTH",
"39 88 OFFCURVE",
"18 54 OFFCURVE",
"-7 24 CURVE SMOOTH",
"-17 12 OFFCURVE",
"-29 1 OFFCURVE",
"-39 -10 CURVE",
"-39 -11 OFFCURVE",
"-40 -11 OFFCURVE",
"-40 -12 CURVE SMOOTH",
"-40 -14 OFFCURVE",
"-37 -13 OFFCURVE",
"-36 -13 CURVE SMOOTH",
"-26 -13 OFFCURVE",
"-15 -9 OFFCURVE",
"-6 -5 CURVE SMOOTH",
"5 0 OFFCURVE",
"17 1 OFFCURVE",
"28 6 CURVE SMOOTH",
"41 11 OFFCURVE",
"44 22 OFFCURVE",
"50 33 CURVE SMOOTH",
"95 115 OFFCURVE",
"205 225 OFFCURVE",
"287 272 CURVE SMOOTH",
"301 280 OFFCURVE",
"332 297 OFFCURVE",
"348 297 CURVE SMOOTH",
"352 297 OFFCURVE",
"356 296 OFFCURVE",
"356 290 CURVE SMOOTH",
"356 274 OFFCURVE",
"197 3 OFFCURVE",
"173 -26 CURVE SMOOTH",
"171 -28 OFFCURVE",
"169 -31 OFFCURVE",
"169 -34 CURVE SMOOTH",
"169 -38 OFFCURVE",
"171 -43 OFFCURVE",
"176 -43 CURVE SMOOTH"
);
}
);
width = 379;
}
);
note = n;
unicode = 006E;
},
{
glyphname = eng;
lastChange = "2021-11-27 15:47:14 +0000";
layers = (
{
hints = (
{
horizontal = 1;
place = "{371, -20}";
target = down;
type = TopGhost;
}
);
layerId = "9E0C627C-9F9A-47B5-8A8C-706F30D5AE4A";
paths = (
{
closed = 1;
nodes = (
"28 -278 OFFCURVE",
"143 -188 OFFCURVE",
"211 -81 CURVE SMOOTH",
"255 -11 OFFCURVE",
"309 104 OFFCURVE",
"336 163 CURVE SMOOTH",
"357 208 OFFCURVE",
"403 298 OFFCURVE",
"445 325 CURVE SMOOTH",
"450 328 OFFCURVE",
"463 335 OFFCURVE",
"463 342 CURVE SMOOTH",
"463 354 OFFCURVE",
"418 359 OFFCURVE",
"408 359 CURVE SMOOTH",
"302 359 OFFCURVE",
"166 209 OFFCURVE",
"101 130 CURVE",
"137 201 OFFCURVE",
"175 268 OFFCURVE",
"220 333 CURVE",
"223 336 OFFCURVE",
"226 341 OFFCURVE",
"226 345 CURVE SMOOTH",
"226 349 OFFCURVE",
"223 349 OFFCURVE",
"220 349 CURVE SMOOTH",
"209 349 OFFCURVE",
"186 341 OFFCURVE",
"176 337 CURVE SMOOTH",
"148 326 OFFCURVE",
"126 304 OFFCURVE",
"109 280 CURVE SMOOTH",
"105 275 OFFCURVE",
"95 262 OFFCURVE",
"95 255 CURVE SMOOTH",
"95 247 OFFCURVE",
"108 257 OFFCURVE",
"108 243 CURVE SMOOTH",
"108 219 OFFCURVE",
"70 147 OFFCURVE",
"57 123 CURVE SMOOTH",
"39 88 OFFCURVE",
"18 54 OFFCURVE",
"-7 24 CURVE SMOOTH",
"-17 12 OFFCURVE",
"-29 1 OFFCURVE",
"-39 -10 CURVE",
"-39 -11 OFFCURVE",
"-40 -11 OFFCURVE",
"-40 -12 CURVE SMOOTH",
"-40 -14 OFFCURVE",
"-37 -13 OFFCURVE",
"-36 -13 CURVE SMOOTH",
"-26 -13 OFFCURVE",
"-15 -9 OFFCURVE",
"-6 -5 CURVE SMOOTH",
"5 0 OFFCURVE",
"17 1 OFFCURVE",
"28 6 CURVE SMOOTH",
"41 11 OFFCURVE",
"44 22 OFFCURVE",
"50 33 CURVE SMOOTH",
"95 115 OFFCURVE",
"205 225 OFFCURVE",
"287 272 CURVE SMOOTH",
"301 280 OFFCURVE",
"332 297 OFFCURVE",
"348 297 CURVE SMOOTH",
"352 297 OFFCURVE",
"356 296 OFFCURVE",
"356 290 CURVE SMOOTH",
"356 277 OFFCURVE",
"181 -35 OFFCURVE",
"136 -95 CURVE SMOOTH",
"101 -143 OFFCURVE",
"13 -246 OFFCURVE",
"-49 -255 CURVE",
"-56 -257 OFFCURVE",
"-63 -257 OFFCURVE",
"-71 -257 CURVE SMOOTH",
"-135 -257 OFFCURVE",
"-161 -201 OFFCURVE",
"-163 -145 CURVE SMOOTH",
"-163 -142 OFFCURVE",
"-163 -134 OFFCURVE",
"-167 -134 CURVE SMOOTH",
"-183 -134 OFFCURVE",
"-194 -198 OFFCURVE",
"-194 -211 CURVE SMOOTH",
"-192 -263 OFFCURVE",
"-150 -278 OFFCURVE",
"-105 -278 CURVE SMOOTH"
);
}
);
width = 359;
}
);
unicode = 014B;
},
{
glyphname = o;
lastChange = "2021-11-27 15:47:14 +0000";
layers = (
{
hints = (
{
horizontal = 1;
place = "{-9, 20}";
type = Stem;
},
{
horizontal = 1;
place = "{317, 24}";
type = Stem;
},
{
horizontal = 1;
place = "{374, -20}";
target = down;
type = TopGhost;
}
);
layerId = "9E0C627C-9F9A-47B5-8A8C-706F30D5AE4A";
paths = (
{
closed = 1;
nodes = (
"169 -9 OFFCURVE",
"368 122 OFFCURVE",
"418 219 CURVE SMOOTH",
"430 244 OFFCURVE",
"437 277 OFFCURVE",
"437 305 CURVE SMOOTH",
"437 336 OFFCURVE",
"429 379 OFFCURVE",
"393 379 CURVE SMOOTH",
"389 379 OFFCURVE",
"385 378 OFFCURVE",
"385 377 CURVE SMOOTH",
"385 373 OFFCURVE",
"387 368 OFFCURVE",
"387 364 CURVE SMOOTH",
"387 350 OFFCURVE",
"377 341 OFFCURVE",
"364 341 CURVE SMOOTH",
"320 341 OFFCURVE",
"278 349 OFFCURVE",
"235 349 CURVE SMOOTH",
"211 349 OFFCURVE",
"191 346 OFFCURVE",
"173 329 CURVE SMOOTH",
"132 291 OFFCURVE",
"60 124 OFFCURVE",
"38 66 CURVE SMOOTH",
"33 53 OFFCURVE",
"20 19 OFFCURVE",
"20 7 CURVE SMOOTH",
"20 -5 OFFCURVE",
"51 -9 OFFCURVE",
"60 -9 CURVE SMOOTH"
);
},
{
closed = 1;
nodes = (
"115 38 OFFCURVE",
"109 41 OFFCURVE",
"109 53 CURVE SMOOTH",
"109 112 OFFCURVE",
"212 305 OFFCURVE",
"268 325 CURVE SMOOTH",
"276 328 OFFCURVE",
"284 329 OFFCURVE",
"293 329 CURVE SMOOTH",
"331 329 OFFCURVE",
"362 308 OFFCURVE",
"362 268 CURVE SMOOTH",
"362 233 OFFCURVE",
"341 186 OFFCURVE",
"321 158 CURVE SMOOTH",
"281 106 OFFCURVE",
"227 68 OFFCURVE",
"166 47 CURVE SMOOTH",
"153 43 OFFCURVE",
"139 38 OFFCURVE",
"126 38 CURVE SMOOTH"
);
}
);
width = 393;
}
);
note = o;
unicode = 006F;
},
{
glyphname = oslash;
lastChange = "2021-11-27 15:47:14 +0000";
layers = (
{
hints = (
{
horizontal = 1;
place = "{-9, 20}";
type = Stem;
},
{
horizontal = 1;
place = "{317, 24}";
type = Stem;
},
{
horizontal = 1;
place = "{374, -20}";
target = down;
type = TopGhost;
}
);
layerId = "9E0C627C-9F9A-47B5-8A8C-706F30D5AE4A";
paths = (
{
closed = 1;
nodes = (
"-45 -98 OFFCURVE",
"-43 -98 OFFCURVE",
"-41 -97 CURVE",
"51 -8 LINE",
"54 -8 OFFCURVE",
"57 -9 OFFCURVE",
"60 -9 CURVE SMOOTH",
"170 -9 OFFCURVE",
"368 122 OFFCURVE",
"418 219 CURVE SMOOTH",
"431 244 OFFCURVE",
"438 277 OFFCURVE",
"438 305 CURVE SMOOTH",
"438 322 OFFCURVE",
"436 340 OFFCURVE",
"428 355 CURVE",
"434 361 OFFCURVE",
"499 421 OFFCURVE",
"499 424 CURVE",
"497 430 OFFCURVE",
"471 430 OFFCURVE",
"466 430 CURVE SMOOTH",
"458 430 OFFCURVE",
"435 429 OFFCURVE",
"429 424 CURVE",
"351 341 LINE",
"312 343 OFFCURVE",
"274 349 OFFCURVE",
"235 349 CURVE SMOOTH",
"212 349 OFFCURVE",
"191 346 OFFCURVE",
"173 329 CURVE SMOOTH",
"132 290 OFFCURVE",
"61 125 OFFCURVE",
"39 66 CURVE SMOOTH",
"34 53 OFFCURVE",
"20 19 OFFCURVE",
"20 7 CURVE SMOOTH",
"20 4 OFFCURVE",
"24 1 OFFCURVE",
"27 -1 CURVE",
"19 -9 OFFCURVE",
"-59 -90 OFFCURVE",
"-59 -92 CURVE SMOOTH",
"-58 -97 OFFCURVE",
"-51 -98 OFFCURVE",
"-47 -98 CURVE SMOOTH"
);
},
{
closed = 1;
nodes = (
"136 149 OFFCURVE",
"214 306 OFFCURVE",
"268 325 CURVE SMOOTH",
"276 328 OFFCURVE",
"285 329 OFFCURVE",
"293 329 CURVE SMOOTH",
"307 329 OFFCURVE",
"320 327 OFFCURVE",
"331 321 CURVE",
"119 96 LINE"
);
},
{
closed = 1;
nodes = (
"119 38 OFFCURVE",
"111 40 OFFCURVE",
"110 49 CURVE",
"359 289 LINE",
"362 282 OFFCURVE",
"363 275 OFFCURVE",
"363 268 CURVE SMOOTH",
"363 233 OFFCURVE",
"342 185 OFFCURVE",
"321 158 CURVE SMOOTH",
"281 105 OFFCURVE",
"228 69 OFFCURVE",
"166 47 CURVE SMOOTH",
"153 43 OFFCURVE",
"140 38 OFFCURVE",
"126 38 CURVE SMOOTH"
);
}
);
width = 393;
}
);
note = oslash;
unicode = 00F8;
},
{
glyphname = oe;
lastChange = "2021-11-27 15:47:14 +0000";
layers = (
{
hints = (
{
horizontal = 1;
place = "{-9, 47}";
type = Stem;
},
{
horizontal = 1;
place = "{329, 12}";
type = Stem;
},
{
horizontal = 1;
place = "{365, 13}";
type = Stem;
},
{
place = "{362, 59}";
type = Stem;
}
);
layerId = "9E0C627C-9F9A-47B5-8A8C-706F30D5AE4A";
paths = (
{
closed = 1;
nodes = (
"129 -9 OFFCURVE",
"222 42 OFFCURVE",
"278 80 CURVE",
"271 66 OFFCURVE",
"249 28 OFFCURVE",
"249 15 CURVE SMOOTH",
"249 -7 OFFCURVE",
"280 -8 OFFCURVE",
"295 -8 CURVE SMOOTH",
"326 -8 OFFCURVE",
"357 -1 OFFCURVE",
"388 3 CURVE SMOOTH",
"450 12 OFFCURVE",
"544 67 OFFCURVE",
"586 111 CURVE SMOOTH",
"590 116 OFFCURVE",
"594 121 OFFCURVE",
"594 127 CURVE SMOOTH",
"594 130 OFFCURVE",
"593 134 OFFCURVE",
"590 134 CURVE SMOOTH",
"588 134 OFFCURVE",
"586 132 OFFCURVE",
"584 131 CURVE",
"538 94 OFFCURVE",
"448 32 OFFCURVE",
"388 32 CURVE SMOOTH",
"365 32 OFFCURVE",
"350 42 OFFCURVE",
"350 66 CURVE SMOOTH",
"350 102 OFFCURVE",
"385 155 OFFCURVE",
"405 186 CURVE",
"409 181 OFFCURVE",
"422 166 OFFCURVE",
"428 166 CURVE SMOOTH",
"431 166 LINE",
"465 175 OFFCURVE",
"495 188 OFFCURVE",
"531 196 CURVE SMOOTH",
"566 204 OFFCURVE",
"602 205 OFFCURVE",
"638 210 CURVE SMOOTH",
"639 210 OFFCURVE",
"641 210 OFFCURVE",
"642 212 CURVE",
"638 228 OFFCURVE",
"570 228 OFFCURVE",
"558 228 CURVE",
"603 248 OFFCURVE",
"673 323 OFFCURVE",
"693 367 CURVE SMOOTH",
"697 375 OFFCURVE",
"703 387 OFFCURVE",
"703 396 CURVE SMOOTH",
"703 404 OFFCURVE",
"696 407 OFFCURVE",
"689 407 CURVE SMOOTH",
"669 407 OFFCURVE",
"633 396 OFFCURVE",
"626 376 CURVE",
"617 378 OFFCURVE",
"608 378 OFFCURVE",
"600 378 CURVE SMOOTH",
"573 378 OFFCURVE",
"539 374 OFFCURVE",
"517 359 CURVE SMOOTH",
"488 340 OFFCURVE",
"462 317 OFFCURVE",
"437 294 CURVE",
"439 327 OFFCURVE",
"433 379 OFFCURVE",
"390 379 CURVE SMOOTH",
"389 379 OFFCURVE",
"386 378 OFFCURVE",
"386 377 CURVE SMOOTH",
"386 373 OFFCURVE",
"388 368 OFFCURVE",
"388 364 CURVE SMOOTH",
"388 350 OFFCURVE",
"378 341 OFFCURVE",
"364 341 CURVE SMOOTH",
"321 341 OFFCURVE",
"278 349 OFFCURVE",
"235 349 CURVE SMOOTH",
"212 349 OFFCURVE",
"190 346 OFFCURVE",
"173 329 CURVE SMOOTH",
"131 289 OFFCURVE",
"62 126 OFFCURVE",
"39 66 CURVE SMOOTH",
"34 53 OFFCURVE",
"20 19 OFFCURVE",
"20 7 CURVE SMOOTH",
"20 -5 OFFCURVE",
"51 -9 OFFCURVE",
"60 -9 CURVE SMOOTH"
);
},
{
closed = 1;
nodes = (
"457 260 OFFCURVE",
"538 366 OFFCURVE",
"603 366 CURVE SMOOTH",
"606 366 OFFCURVE",
"622 364 OFFCURVE",
"622 362 CURVE SMOOTH",
"622 360 LINE SMOOTH",
"616 316 OFFCURVE",
"585 279 OFFCURVE",
"553 248 CURVE SMOOTH",
"547 243 OFFCURVE",
"538 235 OFFCURVE",
"534 228 CURVE",
"496 226 OFFCURVE",
"458 220 OFFCURVE",
"422 210 CURVE"
);
},
{
closed = 1;
nodes = (
"115 38 OFFCURVE",
"109 41 OFFCURVE",
"109 53 CURVE SMOOTH",
"109 112 OFFCURVE",
"212 305 OFFCURVE",
"268 325 CURVE SMOOTH",
"276 328 OFFCURVE",
"285 329 OFFCURVE",
"293 329 CURVE SMOOTH",
"331 329 OFFCURVE",
"363 308 OFFCURVE",
"363 268 CURVE SMOOTH",
"363 233 OFFCURVE",
"342 186 OFFCURVE",
"321 158 CURVE SMOOTH",
"282 106 OFFCURVE",
"228 68 OFFCURVE",
"166 47 CURVE SMOOTH",
"153 43 OFFCURVE",
"140 38 OFFCURVE",
"126 38 CURVE SMOOTH"
);
}
);
width = 597;
}
);
note = oe;
unicode = 0153;
},
{
glyphname = p;
lastChange = "2021-11-27 15:47:14 +0000";
layers = (
{
hints = (
{
horizontal = 1;
place = "{378, -20}";
target = down;
type = TopGhost;
}
);
layerId = "9E0C627C-9F9A-47B5-8A8C-706F30D5AE4A";
paths = (
{
closed = 1;
nodes = (
"-125 -231 OFFCURVE",
"-58 -203 OFFCURVE",
"-58 -198 CURVE SMOOTH",
"-58 -195 OFFCURVE",
"-66 -194 OFFCURVE",
"-66 -181 CURVE SMOOTH",
"-66 -142 OFFCURVE",
"7 -33 OFFCURVE",
"31 4 CURVE",
"63 -9 OFFCURVE",
"97 -14 OFFCURVE",
"130 -14 CURVE SMOOTH",
"156 -14 OFFCURVE",
"195 -10 OFFCURVE",
"216 5 CURVE SMOOTH",
"303 67 OFFCURVE",
"397 190 OFFCURVE",
"434 290 CURVE SMOOTH",
"440 305 OFFCURVE",
"447 324 OFFCURVE",
"447 341 CURVE SMOOTH",
"447 357 OFFCURVE",
"440 367 OFFCURVE",
"423 367 CURVE SMOOTH",
"396 367 OFFCURVE",
"352 340 OFFCURVE",
"329 324 CURVE SMOOTH",
"284 293 OFFCURVE",
"130 172 OFFCURVE",
"101 130 CURVE",
"136 201 OFFCURVE",
"174 268 OFFCURVE",
"220 333 CURVE SMOOTH",
"222 336 OFFCURVE",
"226 341 OFFCURVE",
"226 345 CURVE SMOOTH",
"226 349 OFFCURVE",
"222 349 OFFCURVE",
"219 349 CURVE SMOOTH",
"208 349 OFFCURVE",
"186 341 OFFCURVE",
"175 337 CURVE SMOOTH",
"148 326 OFFCURVE",
"116 306 OFFCURVE",
"100 282 CURVE SMOOTH",
"96 276 OFFCURVE",
"89 267 OFFCURVE",
"89 260 CURVE SMOOTH",
"89 245 OFFCURVE",
"108 259 OFFCURVE",
"108 242 CURVE SMOOTH",
"108 216 OFFCURVE",
"76 149 OFFCURVE",
"61 126 CURVE SMOOTH",
"27 70 OFFCURVE",
"-10 16 OFFCURVE",
"-48 -38 CURVE SMOOTH",
"-72 -73 OFFCURVE",
"-97 -107 OFFCURVE",
"-120 -143 CURVE SMOOTH",
"-132 -162 OFFCURVE",
"-146 -188 OFFCURVE",
"-146 -211 CURVE SMOOTH",
"-146 -216 OFFCURVE",
"-144 -231 OFFCURVE",
"-137 -231 CURVE SMOOTH"
);
},
{
closed = 1;
nodes = (
"91 9 OFFCURVE",
"77 16 OFFCURVE",
"77 35 CURVE SMOOTH",
"77 54 OFFCURVE",
"88 75 OFFCURVE",
"97 90 CURVE SMOOTH",
"123 134 OFFCURVE",
"290 286 OFFCURVE",
"340 286 CURVE SMOOTH",
"348 286 OFFCURVE",
"352 281 OFFCURVE",
"352 273 CURVE SMOOTH",
"352 261 OFFCURVE",
"346 247 OFFCURVE",
"341 237 CURVE SMOOTH",
"313 173 OFFCURVE",
"254 92 OFFCURVE",
"200 47 CURVE SMOOTH",
"177 28 OFFCURVE",
"139 9 OFFCURVE",
"109 9 CURVE SMOOTH"
);
}
);
width = 367;
}
);
note = p;
unicode = 0070;
},
{
glyphname = thorn;
lastChange = "2021-11-27 15:47:14 +0000";
layers = (
{
background = {
hints = (
{
horizontal = 1;
place = "{-13, 22}";
type = Stem;
},
{
horizontal = 1;
place = "{366, -20}";
target = down;
type = TopGhost;
},
{
horizontal = 1;
place = "{530, 34}";
type = Stem;
},
{
place = "{-37, 475}";
type = Stem;
}
);
paths = (
{
closed = 1;
nodes = (
"85 168 OFFCURVE",
"12 47 OFFCURVE",
"85 88 CURVE",
"89 108 OFFCURVE",
"153 225 OFFCURVE",
"165 248 CURVE SMOOTH",
"201 317 OFFCURVE",
"324 530 OFFCURVE",
"411 530 CURVE SMOOTH",
"413 530 OFFCURVE",
"417 530 OFFCURVE",
"417 533 CURVE SMOOTH",
"417 535 OFFCURVE",
"415 537 OFFCURVE",
"413 538 CURVE",
"395 553 OFFCURVE",
"375 564 OFFCURVE",
"350 564 CURVE SMOOTH",
"298 564 OFFCURVE",
"258 516 OFFCURVE",
"237 473 CURVE SMOOTH",
"109 216 LINE SMOOTH"
);
}
);
};
hints = (
{
horizontal = 1;
place = "{378, -20}";
target = down;
type = TopGhost;
}
);
layerId = "9E0C627C-9F9A-47B5-8A8C-706F30D5AE4A";
paths = (
{
closed = 1;
nodes = (
"-125 -231 OFFCURVE",
"-58 -203 OFFCURVE",
"-58 -198 CURVE SMOOTH",
"-58 -195 OFFCURVE",
"-66 -194 OFFCURVE",
"-66 -181 CURVE SMOOTH",
"-66 -142 OFFCURVE",
"7 -33 OFFCURVE",
"31 4 CURVE",
"63 -9 OFFCURVE",
"97 -14 OFFCURVE",
"130 -14 CURVE SMOOTH",
"156 -14 OFFCURVE",
"195 -10 OFFCURVE",
"216 5 CURVE SMOOTH",
"303 67 OFFCURVE",
"397 190 OFFCURVE",
"434 290 CURVE SMOOTH",
"440 305 OFFCURVE",
"447 324 OFFCURVE",
"447 341 CURVE SMOOTH",
"447 357 OFFCURVE",
"440 367 OFFCURVE",
"423 367 CURVE SMOOTH",
"396 367 OFFCURVE",
"352 340 OFFCURVE",
"329 324 CURVE SMOOTH",
"287 295 OFFCURVE",
"147 186 OFFCURVE",
"107 138 CURVE",
"208 341 OFFCURVE",
"327 530 OFFCURVE",
"411 530 CURVE SMOOTH",
"413 530 OFFCURVE",
"417 530 OFFCURVE",
"417 533 CURVE SMOOTH",
"417 535 OFFCURVE",
"415 537 OFFCURVE",
"413 538 CURVE",
"395 553 OFFCURVE",
"375 564 OFFCURVE",
"350 564 CURVE SMOOTH",
"298 564 OFFCURVE",
"258 516 OFFCURVE",
"237 473 CURVE SMOOTH",
"109 216 LINE SMOOTH",
"60 119 OFFCURVE",
"22 61 OFFCURVE",
"-48 -38 CURVE SMOOTH",
"-72 -73 OFFCURVE",
"-97 -107 OFFCURVE",
"-120 -143 CURVE SMOOTH",
"-132 -162 OFFCURVE",
"-146 -188 OFFCURVE",
"-146 -211 CURVE SMOOTH",
"-146 -216 OFFCURVE",
"-144 -231 OFFCURVE",
"-137 -231 CURVE SMOOTH"
);
},
{
closed = 1;
nodes = (
"91 9 OFFCURVE",
"77 16 OFFCURVE",
"77 35 CURVE SMOOTH",
"77 54 OFFCURVE",
"88 75 OFFCURVE",
"97 90 CURVE SMOOTH",
"123 134 OFFCURVE",
"290 286 OFFCURVE",
"340 286 CURVE SMOOTH",
"348 286 OFFCURVE",
"352 281 OFFCURVE",
"352 273 CURVE SMOOTH",
"352 261 OFFCURVE",
"346 247 OFFCURVE",
"341 237 CURVE SMOOTH",
"313 173 OFFCURVE",
"254 92 OFFCURVE",
"200 47 CURVE SMOOTH",
"177 28 OFFCURVE",
"139 9 OFFCURVE",
"109 9 CURVE SMOOTH"
);
}
);
width = 367;
}
);
unicode = 00FE;
},
{
glyphname = q;
lastChange = "2021-11-27 15:47:14 +0000";
layers = (
{
hints = (
{
horizontal = 1;
place = "{367, -20}";
target = down;
type = TopGhost;
}
);
layerId = "9E0C627C-9F9A-47B5-8A8C-706F30D5AE4A";
paths = (
{
closed = 1;
nodes = (
"214 -238 OFFCURVE",
"219 -233 OFFCURVE",
"227 -221 CURVE SMOOTH",
"233 -212 OFFCURVE",
"237 -196 OFFCURVE",
"241 -186 CURVE SMOOTH",
"276 -97 LINE SMOOTH",
"304 -28 OFFCURVE",
"345 42 OFFCURVE",
"403 89 CURVE SMOOTH",
"444 123 OFFCURVE",
"510 173 OFFCURVE",
"558 195 CURVE",
"557 198 OFFCURVE",
"556 202 OFFCURVE",
"552 202 CURVE SMOOTH",
"551 202 OFFCURVE",
"535 196 OFFCURVE",
"534 195 CURVE",
"466 167 OFFCURVE",
"405 118 OFFCURVE",
"350 71 CURVE",
"348 70 OFFCURVE",
"346 68 OFFCURVE",
"344 68 CURVE SMOOTH",
"342 68 OFFCURVE",
"342 69 OFFCURVE",
"342 70 CURVE SMOOTH",
"342 80 OFFCURVE",
"356 108 OFFCURVE",
"361 118 CURVE SMOOTH",
"398 193 OFFCURVE",
"434 266 OFFCURVE",
"491 329 CURVE SMOOTH",
"503 342 OFFCURVE",
"520 352 OFFCURVE",
"537 356 CURVE",
"532 366 OFFCURVE",
"392 371 OFFCURVE",
"375 371 CURVE SMOOTH",
"354 371 OFFCURVE",
"299 371 OFFCURVE",
"281 359 CURVE SMOOTH",
"177 290 OFFCURVE",
"89 171 OFFCURVE",
"32 61 CURVE SMOOTH",
"21 40 OFFCURVE",
"6 15 OFFCURVE",
"0 -8 CURVE",
"5 -10 OFFCURVE",
"11 -11 OFFCURVE",
"16 -11 CURVE SMOOTH",
"40 -11 OFFCURVE",
"63 -1 OFFCURVE",
"83 11 CURVE SMOOTH",
"139 45 OFFCURVE",
"192 86 OFFCURVE",
"243 126 CURVE SMOOTH",
"289 162 OFFCURVE",
"338 197 OFFCURVE",
"381 237 CURVE",
"355 203 OFFCURVE",
"160 -199 OFFCURVE",
"160 -220 CURVE SMOOTH",
"160 -232 OFFCURVE",
"190 -238 OFFCURVE",
"198 -238 CURVE SMOOTH"
);
},
{
closed = 1;
nodes = (
"107 64 OFFCURVE",
"105 67 OFFCURVE",
"105 70 CURVE SMOOTH",
"105 79 OFFCURVE",
"113 94 OFFCURVE",
"117 101 CURVE SMOOTH",
"151 171 OFFCURVE",
"235 288 OFFCURVE",
"297 333 CURVE SMOOTH",
"304 338 OFFCURVE",
"318 338 OFFCURVE",
"326 338 CURVE SMOOTH",
"346 338 OFFCURVE",
"407 338 OFFCURVE",
"407 310 CURVE SMOOTH",
"407 293 OFFCURVE",
"388 274 OFFCURVE",
"377 263 CURVE SMOOTH",
"312 201 OFFCURVE",
"216 124 OFFCURVE",
"139 77 CURVE SMOOTH",
"132 73 OFFCURVE",
"119 64 OFFCURVE",
"111 64 CURVE SMOOTH"
);
}
);
width = 452;
}
);
note = q;
unicode = 0071;
},
{
glyphname = r;
lastChange = "2021-11-27 15:47:14 +0000";
layers = (
{
hints = (
{
horizontal = 1;
place = "{-2, 20}";
type = Stem;
},
{
horizontal = 1;
place = "{360, -20}";
target = down;
type = TopGhost;
}
);
layerId = "9E0C627C-9F9A-47B5-8A8C-706F30D5AE4A";
paths = (
{
closed = 1;
nodes = (
"9 -12 OFFCURVE",
"77 8 OFFCURVE",
"83 23 CURVE SMOOTH",
"92 43 OFFCURVE",
"99 64 OFFCURVE",
"108 84 CURVE SMOOTH",
"146 171 OFFCURVE",
"202 263 OFFCURVE",
"303 278 CURVE SMOOTH",
"360 287 OFFCURVE",
"424 290 OFFCURVE",
"422 365 CURVE",
"421 372 LINE",
"409 359 OFFCURVE",
"363 352 OFFCURVE",
"345 347 CURVE SMOOTH",
"331 343 OFFCURVE",
"317 338 OFFCURVE",
"303 332 CURVE SMOOTH",
"263 315 OFFCURVE",
"203 253 OFFCURVE",
"176 217 CURVE",
"192 243 OFFCURVE",
"244 320 OFFCURVE",
"244 348 CURVE SMOOTH",
"244 349 OFFCURVE",
"242 358 OFFCURVE",
"239 358 CURVE SMOOTH",
"236 358 OFFCURVE",
"169 328 OFFCURVE",
"164 325 CURVE SMOOTH",
"159 321 OFFCURVE",
"149 314 OFFCURVE",
"149 306 CURVE SMOOTH",
"149 299 OFFCURVE",
"152 291 OFFCURVE",
"152 283 CURVE SMOOTH",
"152 272 OFFCURVE",
"150 262 OFFCURVE",
"145 253 CURVE SMOOTH",
"121 200 OFFCURVE",
"90 148 OFFCURVE",
"60 98 CURVE SMOOTH",
"38 62 OFFCURVE",
"17 23 OFFCURVE",
"-9 -11 CURVE",
"-9 -12 OFFCURVE",
"-7 -12 OFFCURVE",
"-7 -12 CURVE"
);
}
);
width = 295;
}
);
note = r;
unicode = 0072;
},
{
glyphname = s;
lastChange = "2021-11-27 15:47:14 +0000";
layers = (
{
hints = (
{
horizontal = 1;
place = "{365, -20}";
target = down;
type = TopGhost;
}
);
layerId = "9E0C627C-9F9A-47B5-8A8C-706F30D5AE4A";
paths = (
{
closed = 1;
nodes = (
"237 -38 OFFCURVE",
"117 227 OFFCURVE",
"193 325 CURVE SMOOTH",
"202 336 OFFCURVE",
"216 349 OFFCURVE",
"231 349 CURVE SMOOTH",
"253 349 OFFCURVE",
"260 326 OFFCURVE",
"260 308 CURVE SMOOTH",
"260 297 OFFCURVE",
"256 287 OFFCURVE",
"256 276 CURVE SMOOTH",
"256 273 OFFCURVE",
"257 267 OFFCURVE",
"261 267 CURVE SMOOTH",
"267 267 OFFCURVE",
"270 276 OFFCURVE",
"271 280 CURVE SMOOTH",
"280 307 OFFCURVE",
"293 328 OFFCURVE",
"307 352 CURVE SMOOTH",
"309 355 OFFCURVE",
"311 358 OFFCURVE",
"311 361 CURVE SMOOTH",
"311 374 OFFCURVE",
"279 374 OFFCURVE",
"270 374 CURVE SMOOTH",
"259 374 OFFCURVE",
"237 373 OFFCURVE",
"227 369 CURVE SMOOTH",
"145 339 OFFCURVE",
"114 262 OFFCURVE",
"106 181 CURVE SMOOTH",
"102 131 OFFCURVE",
"100 68 OFFCURVE",
"78 23 CURVE SMOOTH",
"68 1 OFFCURVE",
"47 -11 OFFCURVE",
"23 -11 CURVE SMOOTH",
"-19 -11 OFFCURVE",
"-33 24 OFFCURVE",
"-40 24 CURVE SMOOTH",
"-47 24 OFFCURVE",
"-50 14 OFFCURVE",
"-50 8 CURVE SMOOTH",
"-50 -23 OFFCURVE",
"8 -38 OFFCURVE",
"32 -38 CURVE SMOOTH"
);
}
);
width = 207;
}
);
note = s;
unicode = 0073;
},
